<svg xmlns="http://www.w3.org/2000/svg" width="24" height="24" fill="currentColor" viewBox="0 0 24 24">
  <path fill-rule="evenodd" d="M12 2.336c-.69 0-1.315.313-2.049.682l-5.18 2.59c-.506.253-.945.472-1.291.693-.372.236-.701.513-.947.91-.246.398-.346.816-.391 1.255-.042.408-.042.898-.042 1.463v4.141c0 .565 0 1.056.042 1.464.045.439.145.857.39 1.254.247.398.576.674.948.911.346.22.785.44 1.29.692l5.181 2.591c.734.369 1.358.682 2.049.682.69 0 1.314-.314 2.048-.682l5.181-2.59c.505-.253.944-.473 1.29-.693.372-.237.702-.513.948-.91.245-.398.345-.816.39-1.255.043-.408.043-.899.043-1.464V9.93c0-.566 0-1.056-.042-1.464-.046-.439-.146-.857-.392-1.255-.245-.397-.575-.674-.947-.91-.346-.22-.784-.44-1.29-.693l-5.181-2.59c-.734-.369-1.358-.682-2.048-.682Zm-1.387 2.363c.959-.479 1.177-.563 1.387-.563.21 0 .427.084 1.386.563l1.101.55L7.5 8.745 5.015 7.5c.17-.087.366-.186.598-.302l5-2.5ZM3.911 8.962c-.01.258-.011.58-.011 1.01v4.056c0 .62 0 1.016.032 1.32.03.284.08.409.132.494.053.086.142.186.382.339.258.164.613.342 1.167.62l5 2.5.487.24v-6.985L3.91 8.962ZM12.9 19.54c.137-.066.297-.145.486-.24l5-2.5c.554-.277.909-.455 1.167-.62.24-.152.33-.252.382-.338.053-.085.103-.21.132-.493.032-.305.033-.701.033-1.321V9.972c0-.43 0-.752-.012-1.01L12.9 12.556v6.984Zm6.084-12.039c-.17-.087-.366-.186-.598-.302L16.5 6.256 9.512 9.75 12 10.994 18.984 7.5Z" clip-rule="evenodd"/>
</svg>
