<svg xmlns="http://www.w3.org/2000/svg" width="40" height="40" fill="currentColor" viewBox="0 0 40 40">
  <path fill-rule="evenodd" d="M20 3.893c-1.15 0-2.19.523-3.414 1.137L7.951 9.348c-.842.42-1.574.786-2.15 1.153-.62.395-1.17.855-1.58 1.518-.409.663-.575 1.36-.65 2.091-.071.68-.071 1.497-.071 2.439v6.902c0 .941 0 1.76.07 2.439.076.731.242 1.428.652 2.09.41.664.958 1.124 1.579 1.519.576.367 1.308.732 2.15 1.153l8.635 4.318c1.223.614 2.264 1.136 3.414 1.136 1.15 0 2.19-.522 3.414-1.136l8.635-4.318c.842-.42 1.574-.786 2.15-1.153.62-.395 1.17-.855 1.58-1.518.409-.663.575-1.36.65-2.091.071-.68.071-1.497.071-2.439V16.55c0-.941 0-1.76-.07-2.439-.076-.731-.242-1.428-.652-2.09-.41-.664-.958-1.124-1.579-1.519-.576-.367-1.308-.732-2.15-1.153L23.414 5.03C22.191 4.416 21.15 3.893 20 3.893Zm-2.31 3.94c1.597-.8 1.96-.94 2.31-.94.35 0 .713.14 2.31.94l1.836.917L12.5 14.573l-4.14-2.07c.282-.146.61-.31.996-.504l8.333-4.167ZM6.518 14.936A43.99 43.99 0 0 0 6.5 16.62v6.76c0 1.033.002 1.694.054 2.201.05.473.132.68.22.823.088.142.236.309.637.564.43.273 1.021.57 1.945 1.033l8.333 4.167c.316.157.583.29.811.4V20.926l-11.981-5.99ZM21.5 32.566c.228-.11.495-.242.81-.4L30.644 28c.924-.462 1.515-.76 1.945-1.033.4-.255.55-.422.637-.564.088-.143.17-.35.22-.823.052-.507.054-1.168.054-2.201v-6.76c0-.715 0-1.252-.019-1.684L21.5 20.928v11.64Zm10.14-20.065c-.282-.145-.61-.31-.996-.503L27.5 10.427 15.854 16.25 20 18.323l11.64-5.82Z" clip-rule="evenodd"/>
</svg>
