<svg width="20" height="20" viewBox="0 0 20 20" fill="none" xmlns="http://www.w3.org/2000/svg">
<path d="M15.3027 3.63635C15.5956 3.34362 16.0704 3.34351 16.3633 3.63635C16.656 3.9292 16.656 4.40402 16.3633 4.6969L11.0605 9.99963L16.3633 15.3033C16.6559 15.5963 16.6561 16.0711 16.3633 16.3639C16.0705 16.6567 15.5956 16.6565 15.3027 16.3639L9.99902 11.0612L4.69629 16.3639C4.40341 16.6566 3.92859 16.6566 3.63574 16.3639C3.3429 16.0711 3.34301 15.5963 3.63574 15.3033L8.93848 9.99963L3.63574 4.6969C3.34292 4.404 3.34288 3.92922 3.63574 3.63635C3.92861 3.34348 4.40339 3.34353 4.69629 3.63635L9.99902 8.93909L15.3027 3.63635Z" fill="#00091A"/>
</svg>
