<svg xmlns="http://www.w3.org/2000/svg" width="24" height="24" fill="currentColor" viewBox="0 0 24 24">
  <path fill-rule="evenodd" d="M10.1 9a5.9 5.9 0 1 1 8.902 5.08l1.834 4.586a.9.9 0 1 1-1.672.668L17.33 14.75A5.9 5.9 0 0 1 10.1 9ZM16 4.9a4.1 4.1 0 1 0 0 8.2 4.1 4.1 0 0 0 0-8.2Z" clip-rule="evenodd"/>
  <path d="M2.1 12a.9.9 0 0 1 .9-.9h4a.9.9 0 1 1 0 1.8H3a.9.9 0 0 1-.9-.9Zm0-6a.9.9 0 0 1 .9-.9h4a.9.9 0 0 1 0 1.8H3a.9.9 0 0 1-.9-.9ZM3 17.1a.9.9 0 1 0 0 1.8h10a.9.9 0 0 0 0-1.8H3Z"/>
  <path d="m19.002 14.08-.128-.214-.184.109.08.199.232-.093Zm1.834 4.586.232-.093-.233.093Zm-.502 1.17-.093-.232.093.232Zm-1.17-.502-.232.093.232-.093ZM17.33 14.75l.233-.092-.08-.2-.209.049.056.243ZM3 5.1v-.25.25Zm4 0v.25-.25Zm0 1.8v.25-.25Zm-4 0v-.25.25ZM11.9 9h.25A3.85 3.85 0 0 1 16 5.15v-.5A4.35 4.35 0 0 0 11.65 9h.25Zm4.1 4.1v-.25A3.85 3.85 0 0 1 12.15 9h-.5A4.35 4.35 0 0 0 16 13.35v-.25ZM20.1 9h-.25A3.85 3.85 0 0 1 16 12.85v.5A4.35 4.35 0 0 0 20.35 9h-.25ZM16 4.9v.25A3.85 3.85 0 0 1 19.85 9h.5A4.35 4.35 0 0 0 16 4.65v.25Zm0-1.8v-.25A6.15 6.15 0 0 0 9.85 9h.5A5.65 5.65 0 0 1 16 3.35V3.1ZM21.9 9h.25A6.15 6.15 0 0 0 16 2.85v.5A5.65 5.65 0 0 1 21.65 9h.25Zm-2.898 5.08.127.216A6.147 6.147 0 0 0 22.15 9h-.5a5.647 5.647 0 0 1-2.776 4.866l.128.215Zm1.834 4.586.232-.093-1.834-4.585-.233.093-.232.093 1.834 4.585.232-.093Zm-.502 1.17.093.232a1.15 1.15 0 0 0 .64-1.495l-.232.093-.232.093a.65.65 0 0 1-.362.845l.093.232Zm-1.17-.502-.232.093c.236.59.905.877 1.495.64l-.093-.231-.093-.232a.65.65 0 0 1-.845-.363l-.232.093ZM17.33 14.75l-.232.093 1.834 4.585.232-.093.232-.093-1.834-4.584-.232.092ZM16 14.9v.25c.477 0 .94-.054 1.387-.157l-.057-.244-.056-.243A5.67 5.67 0 0 1 16 14.65v.25ZM10.1 9h-.25A6.15 6.15 0 0 0 16 15.15v-.5A5.65 5.65 0 0 1 10.35 9h-.25ZM3 11.1v-.25A1.15 1.15 0 0 0 1.85 12h.5a.65.65 0 0 1 .65-.65v-.25Zm4 0v-.25H3v.5h4v-.25Zm.9.9h.25A1.15 1.15 0 0 0 7 10.85v.5a.65.65 0 0 1 .65.65h.25Zm-.9.9v.25A1.15 1.15 0 0 0 8.15 12h-.5a.65.65 0 0 1-.65.65v.25Zm-4 0v.25h4v-.5H3v.25Zm-.9-.9h-.25c0 .635.515 1.15 1.15 1.15v-.5a.65.65 0 0 1-.65-.65H2.1ZM3 5.1v-.25A1.15 1.15 0 0 0 1.85 6h.5A.65.65 0 0 1 3 5.35V5.1Zm4 0v-.25H3v.5h4V5.1Zm.9.9h.25A1.15 1.15 0 0 0 7 4.85v.5a.65.65 0 0 1 .65.65h.25Zm-.9.9v.25A1.15 1.15 0 0 0 8.15 6h-.5a.65.65 0 0 1-.65.65v.25Zm-4 0v.25h4v-.5H3v.25ZM2.1 6h-.25c0 .635.515 1.15 1.15 1.15v-.5A.65.65 0 0 1 2.35 6H2.1Zm0 12h.25a.65.65 0 0 1 .65-.65v-.5A1.15 1.15 0 0 0 1.85 18h.25Zm.9.9v-.25a.65.65 0 0 1-.65-.65h-.5c0 .635.515 1.15 1.15 1.15v-.25Zm10 0v-.25H3v.5h10v-.25Zm.9-.9h-.25a.65.65 0 0 1-.65.65v.5A1.15 1.15 0 0 0 14.15 18h-.25Zm-.9-.9v.25a.65.65 0 0 1 .65.65h.5A1.15 1.15 0 0 0 13 16.85v.25Zm-10 0v.25h10v-.5H3v.25Z"/>
</svg>
