<svg xmlns="http://www.w3.org/2000/svg" width="20" height="20" fill="currentColor" viewBox="0 0 20 20">
  <path d="M7.583 14.167v-5a.75.75 0 1 1 1.5 0v5a.75.75 0 0 1-1.5 0Zm4.834-5a.75.75 0 0 0-1.5 0v5a.75.75 0 0 0 1.5 0v-5Z"/>
  <path fill-rule="evenodd" d="M9.95 1.75h.1c.743 0 1.375 0 1.879.068.537.072 1.04.233 1.446.64.407.406.568.91.64 1.447.046.337.06.732.066 1.178h2.586a.75.75 0 0 1 0 1.5h-.917v7.634c0 .743 0 1.374-.068 1.878-.072.537-.233 1.04-.64 1.447-.407.407-.91.568-1.447.64-.504.068-1.135.068-1.878.068H8.283c-.743 0-1.374 0-1.878-.068-.537-.072-1.04-.233-1.447-.64-.407-.407-.568-.91-.64-1.447-.068-.504-.068-1.135-.068-1.878V6.583h-.917a.75.75 0 1 1 0-1.5H5.92c.005-.446.02-.841.065-1.178.072-.537.234-1.04.64-1.447.407-.407.91-.568 1.447-.64.504-.068 1.136-.068 1.879-.068Zm2.63 3.333a8.38 8.38 0 0 0-.051-.979c-.05-.37-.133-.504-.214-.586-.082-.081-.215-.164-.586-.214-.393-.052-.922-.054-1.73-.054-.806 0-1.336.002-1.728.054-.37.05-.504.133-.586.214-.081.082-.164.216-.214.586a8.368 8.368 0 0 0-.052.98h5.162Zm-6.83 1.5v7.584c0 .806.002 1.336.054 1.729.05.37.133.504.214.585.082.082.216.165.586.215.393.052.922.054 1.73.054h3.333c.806 0 1.336-.002 1.728-.054.371-.05.505-.133.586-.215.082-.081.165-.215.215-.586.052-.392.054-.921.054-1.728V6.583h-8.5Z" clip-rule="evenodd"/>
</svg>
