<svg xmlns="http://www.w3.org/2000/svg" width="24" height="24" fill="currentColor" viewBox="0 0 24 24">
  <path d="M20.62 11.376v9a1.875 1.875 0 0 1-1.875 1.875h-13.5a1.875 1.875 0 0 1-1.875-1.875v-9A1.875 1.875 0 0 1 5.245 9.5H7.12a1.125 1.125 0 1 1 0 2.25h-1.5V20h12.75v-8.25h-1.5a1.125 1.125 0 1 1 0-2.25h1.875a1.875 1.875 0 0 1 1.875 1.875ZM9.041 7.672l1.83-1.827v7.78a1.125 1.125 0 1 0 2.25 0v-7.78l1.828 1.83a1.127 1.127 0 1 0 1.594-1.594l-3.75-3.75a1.125 1.125 0 0 0-1.594 0L7.45 6.08a1.127 1.127 0 1 0 1.594 1.594l-.002-.003Z"/>
</svg>
