<svg xmlns="http://www.w3.org/2000/svg" width="20" height="20" fill="currentColor" viewBox="0 0 20 20">
  <path fill-rule="evenodd" d="M6.667 9.083a3.251 3.251 0 0 1-3.163-2.5H2.5a.75.75 0 0 1 0-1.5h1.004a3.251 3.251 0 0 1 6.326 0h7.67a.75.75 0 0 1 0 1.5H9.83a3.251 3.251 0 0 1-3.163 2.5Zm0-1.5a1.75 1.75 0 1 0 0-3.5 1.75 1.75 0 0 0 0 3.5Zm3.503 5.834a3.251 3.251 0 0 1 6.326 0H17.5a.75.75 0 0 1 0 1.5h-1.004a3.251 3.251 0 0 1-6.326 0H2.5a.75.75 0 0 1 0-1.5h7.67Zm4.913.75a1.75 1.75 0 1 1-3.5 0 1.75 1.75 0 0 1 3.5 0Z" clip-rule="evenodd"/>
</svg>
