<svg xmlns="http://www.w3.org/2000/svg" width="24" height="24" fill="currentColor" viewBox="0 0 24 24">
  <path fill-rule="evenodd" d="M11.263 1.818a.9.9 0 0 1 .641.89 9.054 9.054 0 0 0 1.348 5.068 7.11 7.11 0 0 0 1.246-1.91.9.9 0 0 1 1.564-.147c.191.278.38.548.563.812C18.505 9.232 19.9 11.235 19.9 14a7.883 7.883 0 0 1-2.628 5.884A7.874 7.874 0 0 1 12 21.9a7.874 7.874 0 0 1-5.273-2.016A7.883 7.883 0 0 1 4.1 14c0-2.019.73-3.6 1.833-5.334.432-.68.935-1.405 1.483-2.194l.437-.63a77.563 77.563 0 0 0 2.384-3.632.9.9 0 0 1 1.026-.392ZM7.453 9.63C6.424 11.248 5.9 12.481 5.9 14a6.07 6.07 0 0 0 1.228 3.672A5.893 5.893 0 0 1 12 15.1c2.024 0 3.81 1.02 4.872 2.572A6.07 6.07 0 0 0 18.1 14c0-2.043-.93-3.51-2.694-6.064a8.945 8.945 0 0 1-1.715 1.907.9.9 0 0 1-1.285-.138 10.86 10.86 0 0 1-2.05-4.344 106.31 106.31 0 0 1-1.023 1.504l-.45.65a64.59 64.59 0 0 0-1.43 2.116Zm8.102 9.326A4.099 4.099 0 0 0 12 16.9c-1.52 0-2.848.827-3.556 2.057A6.069 6.069 0 0 0 12 20.1a6.069 6.069 0 0 0 3.555-1.143Z" clip-rule="evenodd"/>
</svg>
