<svg xmlns="http://www.w3.org/2000/svg" width="24" height="24" fill="currentColor" viewBox="0 0 24 24">
  <path d="M10.6 8a1.4 1.4 0 1 1 2.8 0 1.4 1.4 0 0 1-2.8 0Z"/>
  <path fill-rule="evenodd" d="M11 12.9h.29l-.844 2.813a5.675 5.675 0 0 0-.132.493 1.42 1.42 0 0 0 .022.714 1.4 1.4 0 0 0 .55.739c.247.167.505.21.677.226.157.015.34.015.51.015h.427a.9.9 0 0 0 0-1.8h-.29l.843-2.813c.049-.162.102-.339.133-.493a1.42 1.42 0 0 0-.023-.714 1.4 1.4 0 0 0-.55-.739 1.42 1.42 0 0 0-.677-.226 5.657 5.657 0 0 0-.51-.015H11a.9.9 0 0 0 0 1.8Z" clip-rule="evenodd"/>
  <path fill-rule="evenodd" d="M12 2.1c-5.468 0-9.9 4.432-9.9 9.9s4.432 9.9 9.9 9.9c5.467 0 9.9-4.432 9.9-9.9S17.467 2.1 12 2.1ZM3.9 12a8.1 8.1 0 1 1 16.2 0 8.1 8.1 0 0 1-16.2 0Z" clip-rule="evenodd"/>
</svg>
