<svg xmlns="http://www.w3.org/2000/svg" width="24" height="24" fill="currentColor" viewBox="0 0 24 24">
  <path fill-rule="evenodd" d="M5.772 2.629c2.372-.62 4.418.195 5.981 1.723.096.093.176.172.247.239l.246-.24c1.563-1.527 3.609-2.342 5.981-1.722 3.038.794 4.673 3.541 4.673 6.37 0 2.898-1.362 5.329-3.123 7.239-1.76 1.908-3.969 3.358-5.815 4.323l-.096.05c-.613.322-1.15.604-1.866.604-.717 0-1.254-.282-1.867-.604a40.857 40.857 0 0 0-.096-.05c-1.846-.965-4.055-2.415-5.814-4.323C2.46 14.328 1.1 11.897 1.1 9c0-2.83 1.634-5.577 4.672-6.371Zm4.723 3.01C9.288 4.46 7.87 3.941 6.227 4.37 4.127 4.92 2.9 6.83 2.9 9c0 2.298 1.075 4.314 2.646 6.018 1.573 1.707 3.591 3.041 5.325 3.947.752.394.9.45 1.129.45.229 0 .377-.056 1.129-.45 1.733-.906 3.751-2.24 5.324-3.947C20.024 13.314 21.1 11.298 21.1 9c0-2.17-1.227-4.08-3.328-4.63-1.642-.43-3.061.09-4.268 1.27l-.027.026c-.2.195-.397.387-.57.526-.166.132-.481.36-.907.36-.427 0-.742-.228-.907-.36a8.225 8.225 0 0 1-.598-.553Z" clip-rule="evenodd"/>
</svg>
