<svg xmlns="http://www.w3.org/2000/svg" width="24" height="24" fill="currentColor" viewBox="0 0 24 24">
  <path d="M10 21.9a.9.9 0 1 0 0-1.8H7c-.969 0-1.604-.002-2.075-.066-.445-.06-.605-.159-.703-.257-.098-.097-.197-.258-.257-.703-.063-.47-.065-1.106-.065-2.074V7c0-.969.002-1.604.065-2.075.06-.445.159-.605.257-.703.098-.098.258-.197.703-.257C5.395 3.902 6.031 3.9 7 3.9h3a.9.9 0 1 0 0-1.8H6.94c-.892 0-1.65 0-2.255.08-.644.087-1.248.281-1.736.769s-.681 1.092-.768 1.736C2.1 5.29 2.1 6.048 2.1 6.94v10.12c0 .891 0 1.65.08 2.254.088.645.281 1.248.769 1.736s1.092.682 1.736.768c.605.082 1.363.082 2.254.082H10Z"/>
  <path d="M21.636 12.636a.9.9 0 0 0 0-1.273l-5-5a.9.9 0 0 0-1.273 1.273l3.464 3.464H9a.9.9 0 0 0 0 1.8h9.827l-3.464 3.463a.9.9 0 0 0 1.273 1.273l5-5Z"/>
</svg>
