<svg width="129" height="34" viewBox="0 0 129 34" fill="none" xmlns="http://www.w3.org/2000/svg">
<path d="M33.4653 23.7213L40.6816 14.9078H52V18.8164H42.5745L32.19 31.5L25.4013 13.6353L19.5135 29.131L12.2576 17.3507H0V13.442H14.4857L18.6653 20.2273L25.4017 2.5L33.4653 23.7213Z" fill="#E1312F"/>
<path d="M59 0H60.1097V34H59V0Z" fill="#C6CAD2"/>
<path d="M68.3514 14.9716L72.9412 1.95282H76.7763L81.3749 14.9716H77.6907L76.9095 12.4888H72.7103L71.938 14.9716H68.3514ZM73.4294 9.64321H76.1726L74.8055 5.53299L73.4294 9.64321Z" fill="#00091A"/>
<path d="M83.5549 14.9716V5.68178L80.8739 6.65819L80.0216 3.98003L86.3247 1.67385H86.5378V14.9716H83.5549Z" fill="#00091A"/>
<path d="M68.3514 32.0472V19.0284H75.5245V20.0327H69.3812V24.831H74.9919V25.8354H69.3812V32.0472H68.3514Z" fill="#9BA2B0"/>
<path d="M83.7169 32.3262C82.8055 32.3262 81.9562 32.1557 81.169 31.8147C80.3878 31.4675 79.7042 30.9871 79.1183 30.3733C78.5383 29.7596 78.0856 29.0405 77.76 28.2159C77.4345 27.3914 77.2718 26.4987 77.2718 25.5378C77.2718 24.5707 77.4345 23.6749 77.76 22.8503C78.0856 22.0258 78.5383 21.3067 79.1183 20.6929C79.7042 20.0792 80.3878 19.6018 81.169 19.2609C81.9562 18.9199 82.8055 18.7494 83.7169 18.7494C84.6224 18.7494 85.4658 18.923 86.247 19.2702C87.0283 19.6173 87.7118 20.1009 88.2978 20.7208C88.8837 21.3408 89.3394 22.063 89.6649 22.8875C89.9963 23.7058 90.1621 24.5893 90.1621 25.5378C90.1621 26.4987 89.9963 27.3914 89.6649 28.2159C89.3394 29.0405 88.8837 29.7596 88.2978 30.3733C87.7118 30.9871 87.0283 31.4675 86.247 31.8147C85.4658 32.1557 84.6224 32.3262 83.7169 32.3262ZM83.7169 31.2847C84.4626 31.2847 85.161 31.1483 85.812 30.8755C86.463 30.6027 87.0342 30.2152 87.5254 29.7131C88.0166 29.2047 88.4013 28.5972 88.6795 27.8905C88.9577 27.1837 89.0967 26.3995 89.0967 25.5378C89.0967 24.3847 88.8541 23.3773 88.3688 22.5156C87.8894 21.6538 87.2413 20.9843 86.4246 20.5069C85.6138 20.0296 84.7112 19.7909 83.7169 19.7909C82.9712 19.7909 82.2728 19.9273 81.6218 20.2001C80.9708 20.4728 80.3996 20.8634 79.9084 21.3718C79.4172 21.8739 79.0325 22.4784 78.7543 23.1851C78.4762 23.8856 78.3371 24.6699 78.3371 25.5378C78.3371 26.6909 78.5768 27.6983 79.0562 28.56C79.5415 29.4217 80.1895 30.0913 81.0004 30.5686C81.8171 31.046 82.7226 31.2847 83.7169 31.2847Z" fill="#9BA2B0"/>
<path d="M92.5748 32.0472V19.0284H96.9248C97.7179 19.0284 98.4015 19.1834 98.9756 19.4933C99.5556 19.8033 99.9995 20.2404 100.307 20.8045C100.621 21.3625 100.778 22.0165 100.778 22.7666C100.778 23.4238 100.63 24.0065 100.334 24.5149C100.044 25.017 99.6266 25.4262 99.0821 25.7424C98.5435 26.0523 97.9014 26.2445 97.1557 26.3189L101.31 32.0472H99.9965L95.895 26.3375H93.6046V32.0472H92.5748ZM93.6046 25.3332H96.623C97.6114 25.3332 98.3778 25.1038 98.9223 24.6451C99.4727 24.1801 99.7479 23.554 99.7479 22.7666C99.7479 21.9483 99.5112 21.2881 99.0377 20.7859C98.5642 20.2838 97.8304 20.0327 96.8361 20.0327H93.6046V25.3332Z" fill="#9BA2B0"/>
<path d="M103.611 32.0472V19.0284H104.624L110.039 28.1043H109.666L114.94 19.0284H115.898V32.0472H114.869V20.6278L115.099 20.7022L110.234 28.8855H109.293L104.411 20.7022L104.553 20.6278V32.0472H103.611Z" fill="#9BA2B0"/>
<path d="M117.631 32.0472L122.638 19.0284H123.526L128.746 32.0472H127.592L126.171 28.4763H120.099L118.75 32.0472H117.631ZM120.472 27.472H125.781L123.047 20.6278L120.472 27.472Z" fill="#9BA2B0"/>
</svg>
