<svg xmlns="http://www.w3.org/2000/svg" width="24" height="24" fill="currentColor" viewBox="0 0 24 24">
  <path d="M8.9 7c0-1.93 1.521-3.1 3.1-3.1 1.578 0 3.1 1.17 3.1 3.1 0 2.91-.025 5.215-1.803 7.438A.9.9 0 0 0 13.1 15c0 .348.128.646.266.868.139.226.32.428.506.605.373.353.857.69 1.352.986a16.587 16.587 0 0 0 2.991 1.395c.76.253 1.19.45 1.46.72.22.22.425.585.425 1.426a.9.9 0 0 0 1.8 0c0-1.16-.296-2.044-.951-2.699-.606-.605-1.424-.908-2.165-1.155a14.825 14.825 0 0 1-2.634-1.23c-.442-.266-.802-.524-1.039-.749a2.421 2.421 0 0 1-.064-.062C16.9 12.495 16.9 9.758 16.9 7.09V7c0-3.07-2.479-4.9-4.9-4.9-2.422 0-4.9 1.83-4.9 4.9v.091c0 2.667 0 5.403 1.852 8.014l-.064.062c-.237.225-.597.483-1.039.749a14.825 14.825 0 0 1-2.634 1.23c-.74.247-1.56.55-2.164 1.155-.655.655-.951 1.54-.951 2.699a.9.9 0 0 0 1.8 0c0-.84.204-1.206.424-1.426.27-.27.7-.467 1.46-.72a16.584 16.584 0 0 0 2.991-1.395c.495-.297.98-.633 1.352-.986.186-.177.367-.38.507-.605A1.66 1.66 0 0 0 10.9 15a.9.9 0 0 0-.198-.562C8.924 12.215 8.9 9.909 8.9 7Z"/>
</svg>
