<svg xmlns="http://www.w3.org/2000/svg" width="24" height="24" fill="currentColor" viewBox="0 0 24 24">
  <path d="M7.94 3.1c-.892 0-1.65 0-2.255.081-.644.087-1.248.28-1.736.768s-.681 1.092-.768 1.737C3.1 6.29 3.1 7.048 3.1 7.939V8.5a.9.9 0 0 0 1.8 0V8c0-.968.002-1.604.065-2.075.06-.444.159-.605.257-.703.098-.098.258-.197.703-.257C6.395 4.902 7.031 4.9 8 4.9h.5a.9.9 0 1 0 0-1.8h-.56ZM16 4.9c.968 0 1.604.002 2.074.065.445.06.606.16.703.257.098.098.198.259.257.703.064.471.066 1.107.066 2.075v.5a.9.9 0 0 0 1.8 0v-.56c0-.892 0-1.65-.082-2.254-.086-.645-.28-1.249-.768-1.737s-1.091-.681-1.736-.768C17.71 3.1 16.951 3.1 16.06 3.1h-.56a.9.9 0 0 0 0 1.8h.5ZM4.9 15.5a.9.9 0 1 0-1.8 0v.56c0 .892 0 1.65.08 2.254.088.645.281 1.249.769 1.737s1.092.681 1.736.768c.605.081 1.363.081 2.254.081H9a.9.9 0 0 0 0-1.8H8c-.968 0-1.603-.002-2.074-.065-.445-.06-.605-.16-.703-.257-.098-.098-.197-.259-.257-.703C4.902 17.604 4.9 16.968 4.9 16v-.5Zm16 0a.9.9 0 1 0-1.8 0v.5c0 .968-.002 1.604-.066 2.075-.06.444-.159.605-.257.703-.097.098-.258.197-.703.257-.47.063-1.106.065-2.074.065h-.5a.9.9 0 0 0 0 1.8h.56c.891 0 1.65 0 2.254-.081.645-.087 1.248-.28 1.736-.768s.682-1.092.768-1.737c.082-.605.082-1.362.082-2.253V15.5Zm-3.264-4.864a.9.9 0 1 0-1.273-1.272L11 14.727l-3.364-3.363a.9.9 0 1 0-1.273 1.272l4 4a.9.9 0 0 0 1.273 0l6-6Z"/>
</svg>
