<svg xmlns="http://www.w3.org/2000/svg" width="24" height="24" fill="currentColor" viewBox="0 0 24 24">
  <path d="M14.289 16.81a12.681 12.681 0 0 0 3.21-1.3 1.6 1.6 0 0 0 .4-2.2 1.71 1.71 0 0 0-2.2-.5 7.06 7.06 0 0 1-7.41 0 1.6 1.6 0 0 0-1.7 2.71 9.839 9.839 0 0 0 3.21 1.3l-3.12 3.1a1.7 1.7 0 0 0 0 2.3 1.61 1.61 0 0 0 1.1.5 1.61 1.61 0 0 0 1.1-.5l3.11-3 3 3a1.7 1.7 0 0 0 2.3 0 1.57 1.57 0 0 0 0-2.2c.1-.1-3-3.21-3-3.21Zm-2.29-4.51a5.491 5.491 0 0 0 5.5-5.51 5.51 5.51 0 0 0-11 0 5.56 5.56 0 0 0 5.5 5.51Zm0-7.92a2.27 2.27 0 0 1 2.3 2.3 2.305 2.305 0 0 1-4.61 0 2.4 2.4 0 0 1 2.31-2.29v-.01Z"/>
</svg>
