<svg xmlns="http://www.w3.org/2000/svg" width="24" height="24" fill="currentColor" viewBox="0 0 24 24">
  <path d="M11 7.5a1.5 1.5 0 1 1-3 0 1.5 1.5 0 0 1 3 0Zm-2.5 4a1.5 1.5 0 1 1-3 0 1.5 1.5 0 0 1 3 0Zm6-2.5a1.5 1.5 0 1 0 0-3 1.5 1.5 0 0 0 0 3Zm4 2.5a1.5 1.5 0 1 1-3 0 1.5 1.5 0 0 1 3 0Z"/>
  <path fill-rule="evenodd" d="M12 2.1c-5.468 0-9.9 4.432-9.9 9.9s4.432 9.9 9.9 9.9a2.4 2.4 0 0 0 2.4-2.4c0-.746-.452-1.262-.677-1.518l-.042-.048c-.272-.315-.281-.375-.281-.434a.6.6 0 0 1 .6-.6h2c1.398 0 2.873-.263 4.016-1.13 1.19-.902 1.866-2.34 1.866-4.343C21.882 5.92 17.188 2.1 12 2.1ZM3.9 12A8.1 8.1 0 0 1 12 3.9c4.368 0 8.082 3.18 8.082 7.527 0 1.57-.507 2.418-1.154 2.91-.694.526-1.709.763-2.928.763h-2a2.4 2.4 0 0 0-2.4 2.4c0 .781.454 1.305.691 1.579l.027.031c.284.329.282.37.282.388v.002a.6.6 0 0 1-.6.6A8.1 8.1 0 0 1 3.9 12Z" clip-rule="evenodd"/>
</svg>
