<svg width="100" height="40" viewBox="0 0 100 40" fill="none" xmlns="http://www.w3.org/2000/svg">
<g clip-path="url(#clip0_16181_12876)">
<mask id="mask0_16181_12876" style="mask-type:luminance" maskUnits="userSpaceOnUse" x="70" y="5" width="30" height="30">
<path d="M100 5H70V35H100V5Z" fill="white"/>
</mask>
<g mask="url(#mask0_16181_12876)">
<path d="M85 5C82.0333 5 79.1332 5.87974 76.6665 7.52796C74.1997 9.17618 72.2771 11.5189 71.1418 14.2598C70.0065 17.0006 69.7094 20.0166 70.2882 22.9264C70.867 25.8361 72.2956 28.5088 74.3934 30.6066C76.4912 32.7044 79.1639 34.133 82.0737 34.7118C84.9834 35.2906 87.9994 34.9935 90.7403 33.8582C93.4812 32.7229 95.8238 30.8003 97.4721 28.3336C99.1203 25.8668 100 22.9667 100 20C99.9947 16.0234 98.4127 12.2111 95.6008 9.39924C92.7889 6.58734 88.9766 5.00529 85 5ZM95.925 20C95.925 22.8975 94.774 25.6763 92.7251 27.7251C90.6763 29.774 87.8975 30.925 85 30.925C82.1025 30.925 79.3237 29.774 77.2749 27.7251C75.226 25.6763 74.075 22.8975 74.075 20C74.075 17.1025 75.226 14.3237 77.2749 12.2749C79.3237 10.226 82.1025 9.075 85 9.075C87.8975 9.075 90.6763 10.226 92.7251 12.2749C94.774 14.3237 95.925 17.1025 95.925 20Z" fill="#FF0001"/>
<path d="M99.9762 18.2274C99.4863 14.8958 97.9349 11.8111 95.5524 9.43132C93.1699 7.05153 90.0834 5.50362 86.7512 5.01743C86.452 4.9784 86.1479 5.00419 85.8596 5.09305C85.5712 5.18191 85.3053 5.33176 85.08 5.53243C84.7737 5.79941 84.55 6.14835 84.4353 6.53817C84.3206 6.92799 84.3197 7.34246 84.4327 7.73278C84.5456 8.1231 84.7677 8.47303 85.0729 8.74137C85.378 9.00971 85.7534 9.18529 86.155 9.24744C88.5783 9.59738 90.8235 10.7213 92.5558 12.4516C94.2881 14.1819 95.4147 16.4258 95.7675 18.8486C95.842 19.3266 96.077 19.7651 96.4337 20.0918C96.7904 20.4186 97.2477 20.6143 97.7304 20.6467C98.2131 20.6792 98.6925 20.5464 99.0897 20.2703C99.4869 19.9942 99.7784 19.5911 99.9162 19.1274C100.001 18.8361 100.023 18.5286 99.9762 18.2274Z" fill="black"/>
</g>
</g>
<defs>
<clipPath id="clip0_16181_12876">
<rect width="30" height="30" fill="white" transform="translate(70 5)"/>
</clipPath>
</defs>
</svg>
