<svg xmlns="http://www.w3.org/2000/svg" width="24" height="24" fill="currentColor" viewBox="0 0 24 24">
  <path fill-rule="evenodd" d="M11.904 6.337c-.225.323-.484.835-.888 1.643l-.875 1.75-.023.046c-.243.486-.46.921-.675 1.245-.221.336-.542.718-1.06.87a1.901 1.901 0 0 1-.778.06c-.536-.069-.913-.396-1.184-.693-.262-.286-.545-.682-.86-1.124l-.03-.043c-.604-.844-1.013-1.415-1.337-1.779a2.938 2.938 0 0 0-.199-.206 2.93 2.93 0 0 0-.042.284C3.9 8.873 3.9 9.576 3.9 10.614V13c0 1.44.002 2.429.101 3.172.097.717.27 1.069.514 1.313s.596.417 1.313.513c.743.1 1.732.102 3.172.102h6c1.44 0 2.428-.002 3.172-.102.717-.096 1.068-.269 1.313-.513.244-.244.416-.596.513-1.313.1-.743.102-1.732.102-3.172v-2.386c0-1.037-.002-1.74-.053-2.225a2.957 2.957 0 0 0-.043-.283 2.905 2.905 0 0 0-.199.206c-.324.364-.733.935-1.336 1.78l-.03.042c-.316.442-.599.838-.86 1.124-.272.298-.649.624-1.184.694a1.928 1.928 0 0 1-.778-.061c-.518-.152-.84-.534-1.061-.87-.214-.324-.432-.759-.674-1.245l-.899-1.796c-.404-.808-.662-1.32-.888-1.643A1.97 1.97 0 0 0 12 6.21a1.97 1.97 0 0 0-.096.127Zm-1.476-1.03c.316-.453.802-.97 1.572-.97.769 0 1.256.517 1.571.97.31.444.628 1.079.991 1.806l.906 1.812c.274.547.443.882.59 1.104.037.057.066.095.087.12.024-.022.059-.055.104-.105.18-.196.4-.501.755-.999L17.037 9c.562-.787 1.027-1.438 1.423-1.883.204-.23.427-.448.675-.61a1.6 1.6 0 0 1 .973-.282 1.9 1.9 0 0 1 .906.29 1.6 1.6 0 0 1 .628.795c.107.276.162.584.194.889.064.592.064 1.393.064 2.36v2.506c0 1.36 0 2.47-.118 3.348-.123.916-.39 1.711-1.025 2.346-.634.634-1.429.9-2.346 1.024-.877.118-1.988.118-3.347.118H8.935c-1.36 0-2.47 0-3.347-.118-.917-.123-1.712-.39-2.346-1.024-.635-.635-.901-1.43-1.025-2.346-.117-.877-.117-1.988-.117-3.348v-2.506c0-.967 0-1.768.063-2.36.033-.305.087-.613.195-.89a1.6 1.6 0 0 1 .627-.794 1.9 1.9 0 0 1 .907-.29 1.6 1.6 0 0 1 .972.282c.248.162.471.38.675.61.396.445.861 1.097 1.423 1.883l.033.046c.356.498.575.803.755 1 .045.05.08.082.104.104.021-.025.05-.063.087-.12.147-.222.317-.557.59-1.104l.875-1.75.03-.062c.364-.727.682-1.362.992-1.807Z" clip-rule="evenodd"/>
</svg>
