<svg xmlns="http://www.w3.org/2000/svg" width="24" height="24" fill="currentColor" viewBox="0 0 24 24">
  <path fill-rule="evenodd" d="m1.116 13.17.77 4.624c.557 3.336 4.778 5.25 7.478 2.937a4.4 4.4 0 0 0 1.536-3.34v-10.1a4.947 4.947 0 0 0-2.403-4.243C4.416.599-.24 5.036.468 9.284l.64 3.841.008.045Zm6.455-8.578c-2.373-1.424-5.078.866-5.355 3.3a12.046 12.046 0 0 1 6.86-.993A3.15 3.15 0 0 0 7.57 4.592Zm1.53 4.135a10.246 10.246 0 0 0-6.386.922l-.312.156a.906.906 0 0 1-.021.01l.31 1.867a12.047 12.047 0 0 1 6.408-.78V8.728Zm0 4a10.246 10.246 0 0 0-6.103.786l.664 3.985c.337 2.02 2.869 3.29 4.53 1.866A2.6 2.6 0 0 0 9.1 17.39v-4.663Zm14.431-3.443-.64 3.841a.754.754 0 0 1-.008.045l-.77 4.624c-.556 3.336-4.778 5.25-7.477 2.937a4.4 4.4 0 0 1-1.537-3.34v-10.1c0-1.738.912-3.349 2.403-4.243 4.082-2.45 8.737 1.987 8.029 6.235Zm-7.103-4.692c2.325-1.395 5.083.905 5.356 3.3a12.046 12.046 0 0 0-6.86-.993 3.15 3.15 0 0 1 1.504-2.307Zm5.169 5.213.02.01-.31 1.867a12.047 12.047 0 0 0-6.408-.78V8.728a10.246 10.246 0 0 1 6.385.922l.313.156ZM14.9 12.727a10.246 10.246 0 0 1 6.102.786l-.664 3.985c-.333 1.998-2.882 3.28-4.53 1.866a2.6 2.6 0 0 1-.908-1.974v-4.663Z" clip-rule="evenodd"/>
</svg>
