<svg width="100" height="40" viewBox="0 0 100 40" fill="none" xmlns="http://www.w3.org/2000/svg">
<g clip-path="url(#clip0_16181_12881)">
<mask id="mask0_16181_12881" style="mask-type:luminance" maskUnits="userSpaceOnUse" x="34" y="9" width="66" height="22">
<path d="M100 9H34V31H100V9Z" fill="white"/>
</mask>
<g mask="url(#mask0_16181_12881)">
<mask id="mask1_16181_12881" style="mask-type:luminance" maskUnits="userSpaceOnUse" x="56" y="9" width="44" height="21">
<path d="M56.7859 9.62817H100V29.2705H56.7859V9.62817Z" fill="white"/>
</mask>
<g mask="url(#mask1_16181_12881)">
<path d="M92.7314 12.7399H88.3718L85.6364 19.7848C84.1576 23.6189 85.4629 26.0829 87.9513 26.0829C90.1196 26.0829 91.6217 24.6138 92.5836 22.5727L92.5591 25.1614L95.2944 24.8619L100 12.7375H95.6391L92.8793 19.8581C92.3134 21.3028 91.5984 22.1975 90.5889 22.1975C89.5793 22.1975 89.3826 21.326 89.9729 19.808L92.7327 12.7387M69.4738 27.8026L75.338 12.7399H63.216L56.7859 29.2717L61.3448 28.7486L66.1726 16.3504H69.5728L64.9161 28.3257L69.4738 27.8038V27.8026ZM72.8984 21.0804C71.7899 24.3412 73.3177 27.3027 77.0124 27.3027C82.2851 27.3027 85.4384 20.556 85.4384 16.7965C85.4384 13.9829 83.9107 12.2902 80.904 12.2902C77.6529 12.2902 75.6814 14.4327 74.3517 17.6679H78.5402C79.1318 16.3736 79.7478 15.6024 80.5117 15.6024C81.1521 15.6024 81.3746 16.2502 81.3746 17.0202C81.3746 17.3196 81.3257 17.6679 81.2511 18.0664H78.7138L77.6052 20.9044H80.3406C79.6256 22.5482 78.5916 23.9917 77.5551 23.9917C76.6201 23.9917 76.4967 22.6228 77.0638 21.0791L72.8984 21.0804ZM97.5861 11.9675L98.4967 9.62817H92.3611L91.4493 11.9675H97.5837H97.5861Z" fill="#242424"/>
</g>
<path d="M56 20C56 13.9249 51.0751 9 45 9C38.9249 9 34 13.9249 34 20C34 26.0751 38.9249 31 45 31C51.0751 31 56 26.0751 56 20Z" fill="#F8604A"/>
<path d="M46.5498 26.6109H48.8476V13.4109H45.5072C42.1461 13.4109 40.3788 15.1391 40.3788 17.6838C40.3788 19.7164 41.348 20.9129 43.0762 22.1474L40.0732 26.6121H42.5617L45.9045 21.6169L44.7458 20.8384C43.3402 19.8887 42.6558 19.148 42.6558 17.553C42.6558 16.1474 43.6446 15.1978 45.5244 15.1978H46.551V26.6121L46.5498 26.6109Z" fill="white" fill-opacity="0.98"/>
</g>
</g>
<defs>
<clipPath id="clip0_16181_12881">
<rect width="66" height="22" fill="white" transform="translate(34 9)"/>
</clipPath>
</defs>
</svg>
