<svg xmlns="http://www.w3.org/2000/svg" width="24" height="24" fill="currentColor" viewBox="0 0 24 24">
  <path d="M17 3.9c.968 0 1.604.002 2.075.065.444.06.605.16.703.257.098.098.197.259.257.703.063.471.065 1.107.065 2.075v6a1.1 1.1 0 0 1-1.089 1.1H18a.9.9 0 1 0 0 1.8h1a2.9 2.9 0 0 0 2.9-2.9V6.94c0-.892 0-1.65-.081-2.254-.087-.645-.28-1.249-.768-1.737s-1.092-.681-1.737-.768C18.71 2.1 17.952 2.1 17.06 2.1H11a2.9 2.9 0 0 0-2.9 2.899V6a.9.9 0 0 0 1.8 0V5A1.1 1.1 0 0 1 11 3.9h6Z"/>
  <path fill-rule="evenodd" d="M6.94 8.1c-.892 0-1.65 0-2.254.081-.645.087-1.249.28-1.737.768s-.681 1.092-.768 1.736C2.1 11.29 2.1 12.048 2.1 12.94v4.12c0 .892 0 1.65.081 2.254.087.645.28 1.249.768 1.737s1.092.681 1.737.768c.604.081 1.362.081 2.253.081h4.121c.892 0 1.65 0 2.254-.081.645-.087 1.249-.28 1.737-.768s.681-1.092.768-1.737c.081-.604.081-1.362.081-2.253V12.94c0-.892 0-1.65-.081-2.255-.087-.644-.28-1.248-.768-1.736s-1.092-.681-1.737-.768C12.71 8.1 11.952 8.1 11.06 8.1H6.94Zm-2.718 2.122c.098-.098.259-.197.703-.257C5.396 9.902 6.032 9.9 7 9.9h4c.968 0 1.604.002 2.075.065.444.06.605.16.703.257.098.098.197.258.257.703.063.471.065 1.107.065 2.075v4c0 .968-.002 1.604-.065 2.075-.06.444-.16.605-.257.703-.098.098-.259.197-.703.257-.471.063-1.107.065-2.075.065H7c-.968 0-1.604-.002-2.075-.065-.444-.06-.605-.16-.703-.257-.098-.098-.197-.259-.257-.703C3.902 18.604 3.9 17.968 3.9 17v-4c0-.968.002-1.604.065-2.075.06-.445.16-.605.257-.703Z" clip-rule="evenodd"/>
</svg>
