<svg xmlns="http://www.w3.org/2000/svg" width="24" height="24" fill="currentColor" viewBox="0 0 24 24">
  <path d="M21.694 10.572a.9.9 0 0 0-1.388-1.145 13.239 13.239 0 0 1-.352.409 12.523 12.523 0 0 1-2.446 2.096 10.38 10.38 0 0 1-3.721 1.502 9.687 9.687 0 0 1-3.614-.008 10.392 10.392 0 0 1-3.68-1.495 12.464 12.464 0 0 1-2.799-2.504.9.9 0 0 0-1.388 1.146 14.175 14.175 0 0 0 2.382 2.287l-.882 1.067a.9.9 0 1 0 1.388 1.146l1.005-1.216a12.163 12.163 0 0 0 2.725 1.123l-.301 1.32a.9.9 0 1 0 1.754.4l.314-1.374a11.515 11.515 0 0 0 2.618 0l.314 1.374a.9.9 0 1 0 1.754-.4l-.3-1.32a12.17 12.17 0 0 0 2.725-1.122l1.004 1.215a.9.9 0 1 0 1.388-1.146l-.881-1.067.13-.1a14.24 14.24 0 0 0 2.251-2.188Z"/>
</svg>
