<svg xmlns="http://www.w3.org/2000/svg" width="24" height="24" fill="currentColor" viewBox="0 0 24 24">
  <path d="M8.9 7c0-1.93 1.521-3.1 3.1-3.1 1.578 0 3.1 1.17 3.1 3.1 0 1.844.395 3.66 1.148 5.743a9.18 9.18 0 0 0-1.089.276c-.424.137-.882.328-1.252.592-.35.25-.807.703-.807 1.389 0 .348.128.646.266.868.139.226.32.428.506.605.373.353.857.69 1.352.986a16.587 16.587 0 0 0 2.991 1.395c.76.253 1.19.45 1.46.72.22.22.425.585.425 1.426a.9.9 0 0 0 1.8 0c0-1.16-.296-2.044-.951-2.699-.606-.605-1.424-.908-2.165-1.155a14.825 14.825 0 0 1-2.634-1.23c-.442-.266-.802-.524-1.039-.749a2.088 2.088 0 0 1-.117-.12c.159-.102.404-.213.72-.316.696-.225 1.477-.331 1.786-.331a.9.9 0 0 0 .835-1.234C17.357 10.72 16.9 8.84 16.9 7c0-3.07-2.479-4.9-4.9-4.9-2.422 0-4.9 1.83-4.9 4.9 0 1.84-.458 3.72-1.436 6.166A.9.9 0 0 0 6.5 14.4c.308 0 1.09.106 1.784.331.317.103.562.214.721.317a2.08 2.08 0 0 1-.117.12c-.237.224-.597.482-1.039.748a14.825 14.825 0 0 1-2.634 1.23c-.74.247-1.56.55-2.164 1.155-.655.655-.951 1.54-.951 2.699a.9.9 0 0 0 1.8 0c0-.84.204-1.206.424-1.426.27-.27.7-.467 1.46-.72a16.584 16.584 0 0 0 2.991-1.395c.495-.297.98-.633 1.352-.986.186-.177.367-.38.507-.605A1.66 1.66 0 0 0 10.9 15c0-.686-.458-1.14-.808-1.39-.37-.263-.828-.454-1.252-.591a9.186 9.186 0 0 0-1.089-.276C8.504 10.66 8.9 8.844 8.9 7Z"/>
</svg>
