<svg xmlns="http://www.w3.org/2000/svg" width="24" height="24" fill="currentColor" viewBox="0 0 24 24">
  <path fill-rule="evenodd" d="M12 7.6a4.4 4.4 0 1 0 0 8.8 4.4 4.4 0 0 0 0-8.8ZM9.4 12a2.6 2.6 0 1 1 5.2 0 2.6 2.6 0 0 1-5.2 0Z" clip-rule="evenodd"/>
  <path fill-rule="evenodd" d="m16.007 1.86-.027-.01a4.601 4.601 0 0 0-.459-.164 1.391 1.391 0 0 0-.716-.019c-.329.083-.555.294-.675.415-.127.127-.27.295-.413.466l-.02.023c-.858 1.014-2.537 1.014-3.395 0l-.02-.023c-.144-.17-.286-.339-.413-.466-.12-.12-.346-.332-.675-.415a1.391 1.391 0 0 0-.716.02 4.555 4.555 0 0 0-.459.162l-.027.01a10.89 10.89 0 0 0-2.77 1.603L5.2 3.48a4.358 4.358 0 0 0-.37.316 1.392 1.392 0 0 0-.374.61c-.093.326-.023.627.02.791.047.174.122.38.197.591l.01.029c.449 1.25-.39 2.702-1.696 2.938l-.03.005c-.22.04-.437.08-.611.126-.164.044-.46.134-.697.378a1.382 1.382 0 0 0-.34.63c-.041.152-.067.33-.089.48l-.004.028a10.982 10.982 0 0 0 0 3.195l.004.029c.022.15.048.327.088.479.048.182.137.419.341.63.236.244.533.334.697.378.174.047.39.086.61.126l.03.005c1.307.236 2.146 1.689 1.697 2.938l-.01.029c-.075.21-.15.417-.196.59-.044.165-.114.466-.021.792.08.282.24.477.374.61.111.11.251.222.37.316l.022.018a10.89 10.89 0 0 0 2.77 1.602l.027.01c.141.056.307.122.46.164.181.05.43.09.715.019.33-.083.555-.294.675-.415.127-.127.27-.295.414-.466l.02-.023c.857-1.014 2.536-1.014 3.394 0l.02.023c.144.17.286.339.413.466.12.12.346.332.675.415.285.071.534.03.716-.02.152-.04.318-.107.459-.162l.027-.01a10.89 10.89 0 0 0 2.77-1.603l.023-.018a4.56 4.56 0 0 0 .37-.316 1.39 1.39 0 0 0 .373-.61c.093-.326.023-.627-.02-.791-.047-.174-.122-.38-.197-.59l-.01-.03c-.448-1.25.39-2.702 1.697-2.938l.03-.005c.22-.04.437-.08.61-.126.165-.044.461-.134.697-.378a1.39 1.39 0 0 0 .341-.63c.04-.152.066-.33.088-.48l.004-.028a10.982 10.982 0 0 0 0-3.195l-.004-.029a4.61 4.61 0 0 0-.088-.479 1.39 1.39 0 0 0-.34-.63c-.237-.244-.533-.334-.697-.378a8.093 8.093 0 0 0-.611-.126l-.03-.005c-1.307-.236-2.145-1.689-1.697-2.938l.01-.029c.075-.21.15-.417.196-.59.044-.165.114-.466.021-.792a1.39 1.39 0 0 0-.373-.61 4.916 4.916 0 0 0-.37-.316l-.023-.018a10.89 10.89 0 0 0-2.77-1.602Zm-.936 1.874.196-.23.078.03a9.09 9.09 0 0 1 2.312 1.337l.066.053-.101.285c-.824 2.297.67 4.883 3.07 5.317l.298.055.012.083a9.18 9.18 0 0 1 0 2.671l-.012.083-.298.055c-2.4.434-3.894 3.02-3.07 5.317l.1.285-.065.053a9.086 9.086 0 0 1-2.312 1.337l-.078.03a22.91 22.91 0 0 1-.196-.23c-1.577-1.864-4.566-1.864-6.143 0-.078.092-.14.167-.196.23l-.078-.03a9.086 9.086 0 0 1-2.312-1.337l-.065-.053c.027-.08.06-.172.1-.285.824-2.296-.67-4.883-3.07-5.317a21.979 21.979 0 0 1-.298-.055l-.012-.083a9.182 9.182 0 0 1 0-2.671l.012-.083.298-.055c2.4-.434 3.894-3.02 3.07-5.317l-.1-.285.065-.053a9.09 9.09 0 0 1 2.312-1.337l.078-.03.196.23c1.577 1.864 4.566 1.864 6.143 0Z" clip-rule="evenodd"/>
</svg>
