<svg xmlns="http://www.w3.org/2000/svg" width="24" height="24" fill="currentColor" viewBox="0 0 24 24">
  <path d="M12 2.25A9.75 9.75 0 1 0 21.75 12 9.76 9.76 0 0 0 12 2.25Zm0 1.5a8.203 8.203 0 0 1 4.5 1.339v1.848l-2.078 2.414-2.95.399-.03-.02-1.844-1.206a1.5 1.5 0 0 0-2.11.392L5.525 11.85a1.5 1.5 0 0 0-.253.826l-.022 3.397-.307.201A8.25 8.25 0 0 1 12 3.75ZM5.84 17.482l.236-.155a1.5 1.5 0 0 0 .674-1.246l.02-3.397L8.735 9.75l.03.02 1.844 1.207c.309.218.689.311 1.064.26l2.952-.4a1.5 1.5 0 0 0 .938-.508l2.078-2.415A1.5 1.5 0 0 0 18 6.938v-.594a8.238 8.238 0 0 1 1.853 8.187l-1.513-1.383a1.5 1.5 0 0 0-1.587-.282l-2.855 1.186a1.508 1.508 0 0 0-.908 1.167l-.224 1.518a1.5 1.5 0 0 0 1.103 1.67l2.012.53.221.223A8.239 8.239 0 0 1 5.84 17.482Zm11.504.8-.403-.405a1.5 1.5 0 0 0-.681-.392l-2.01-.53.224-1.518 2.855-1.187 1.89 1.732a8.291 8.291 0 0 1-1.875 2.3Z"/>
</svg>
