<svg xmlns="http://www.w3.org/2000/svg" width="24" height="24" fill="currentColor" viewBox="0 0 24 24">
  <path fill-rule="evenodd" d="M11.32 5.044c-.377.288-.828.736-1.512 1.421l-3.829 3.829c-1.208 1.208-1.623 1.646-1.843 2.177-.22.531-.236 1.135-.236 2.843V17c0 .968.002 1.604.065 2.075.06.445.16.605.257.703.098.098.258.197.703.257.47.063 1.106.065 2.075.065 1.049 0 1.1-.027 1.1-1.1v-3.03c0-.686-.048-1.431.22-2.08a2.9 2.9 0 0 1 1.57-1.569c.312-.13.63-.177.954-.2.76-.052 1.55-.052 2.311 0 .325.023.643.07.955.2a2.9 2.9 0 0 1 1.569 1.57c.268.648.22 1.393.22 2.08V19c0 1.048.028 1.1 1.1 1.1.969 0 1.605-.003 2.075-.066.445-.06.606-.16.703-.257.098-.098.198-.258.258-.703.063-.47.065-1.107.065-2.075v-1.686c0-1.708-.016-2.312-.236-2.843-.22-.531-.636-.97-1.844-2.178l-3.828-3.828c-.685-.685-1.136-1.133-1.513-1.42-.357-.273-.541-.316-.68-.316-.138 0-.321.043-.678.315ZM8.218 21.856c.372-.05.785-.17 1.126-.512.342-.342.462-.754.512-1.127.045-.333.045-.739.045-1.166v-3.05c0-.479 0-.793.017-1.034.03-.436.236-.807.662-.983.056-.023.155-.05.388-.067a15.35 15.35 0 0 1 2.066 0c.233.016.332.044.388.067.426.176.632.547.662.983.016.241.017.555.017 1.033v3.051c0 .428 0 .833.044 1.167.05.372.17.784.512 1.126.342.341.754.462 1.127.512.422.056.852.044 1.277.044.891 0 1.65 0 2.254-.081.645-.087 1.248-.28 1.736-.768s.682-1.092.768-1.736c.082-.605.082-1.363.082-2.254v-1.924c0-1.463 0-2.452-.373-3.355-.374-.903-1.074-1.602-2.109-2.636l-.125-.125-3.871-3.871c-.63-.63-1.166-1.167-1.652-1.537-.516-.394-1.08-.684-1.77-.684s-1.254.29-1.771.684c-.485.37-1.021.906-1.651 1.537L4.706 9.02l-.125.126c-1.035 1.034-1.734 1.733-2.108 2.636-.374.903-.374 1.892-.373 3.355v1.924c0 .89 0 1.649.081 2.254.087.644.28 1.248.768 1.736s1.092.681 1.736.768c.605.081 1.363.081 2.254.081.425 0 .855.012 1.278-.044Z" clip-rule="evenodd"/>
</svg>
