<svg xmlns="http://www.w3.org/2000/svg" width="16" height="16" fill="currentColor" viewBox="0 0 16 16">
  <path fill-rule="evenodd" d="M1.4 8a6.6 6.6 0 1 1 13.2 0A6.6 6.6 0 0 1 1.4 8ZM8 4.4a.933.933 0 1 0 0 1.867A.933.933 0 0 0 8 4.4Zm-.473 4.2h-.194a.6.6 0 0 1 0-1.2h.285c.112 0 .235 0 .34.01.115.01.286.04.451.15a.933.933 0 0 1 .367.494c.06.19.037.362.015.475-.02.103-.056.22-.089.329l-.562 1.875h.193a.6.6 0 1 1 0 1.2H8.05c-.113 0-.236 0-.34-.01a.947.947 0 0 1-.452-.15.933.933 0 0 1-.366-.493.947.947 0 0 1-.015-.476c.02-.103.056-.22.088-.328L7.527 8.6Z" clip-rule="evenodd"/>
</svg>
