<svg xmlns="http://www.w3.org/2000/svg" width="24" height="24" fill="currentColor" viewBox="0 0 24 24">
  <path d="M7 14c-.55 0-1.02-.196-1.412-.587A1.93 1.93 0 0 1 5 12c0-.55.196-1.02.588-1.412A1.931 1.931 0 0 1 7 10c.55 0 1.021.196 1.413.588.392.392.588.863.587 1.412a1.93 1.93 0 0 1-.587 1.413A1.92 1.92 0 0 1 7 14Zm0 4c-1.667 0-3.083-.583-4.25-1.75C1.583 15.083 1 13.667 1 12c0-1.667.583-3.083 1.75-4.25C3.917 6.583 5.333 6 7 6c1.117 0 2.13.275 3.038.825A6.202 6.202 0 0 1 12.2 9H21l3 3-4.5 4.5-2-1.5-2 1.5-2.125-1.5H12.2a6.213 6.213 0 0 1-2.162 2.175C9.13 17.725 8.118 18 7 18Zm0-2c.933 0 1.754-.283 2.463-.85A4.026 4.026 0 0 0 10.875 13H14l1.45 1.025L17.5 12.5l1.775 1.375L21.15 12l-1-1h-9.275a4.033 4.033 0 0 0-1.412-2.15C8.755 8.283 7.934 8 7 8c-1.1 0-2.042.392-2.825 1.175C3.392 9.958 3 10.9 3 12s.392 2.042 1.175 2.825C4.958 15.608 5.9 16 7 16Z"/>
</svg>
