<svg xmlns="http://www.w3.org/2000/svg" width="24" height="24" fill="currentColor" viewBox="0 0 24 24">
  <path fill-rule="evenodd" d="M6.94 4.1c-.892 0-1.65 0-2.255.08-.644.088-1.248.281-1.736.769s-.681 1.092-.768 1.736C2.1 7.29 2.1 8.048 2.1 8.94v6.121c0 .891 0 1.65.08 2.254.088.645.281 1.248.769 1.736s1.092.682 1.736.768c.605.082 1.363.082 2.254.082H17.06c.891 0 1.65 0 2.254-.082.645-.086 1.248-.28 1.736-.768s.682-1.091.768-1.736c.082-.605.082-1.363.082-2.254V8.94c0-.892 0-1.65-.082-2.255-.086-.644-.28-1.248-.768-1.736s-1.091-.681-1.736-.768C18.71 4.1 17.951 4.1 17.06 4.1H6.94ZM4.221 6.222c.098-.098.258-.197.703-.257C5.395 5.902 6.031 5.9 7 5.9h10c.968 0 1.604.002 2.074.065.445.06.606.159.703.257.098.098.198.258.257.703.037.274.053.603.06 1.021L13.386 11.3c-.959.48-1.177.564-1.386.564-.21 0-.428-.084-1.387-.564L3.905 7.946a8.99 8.99 0 0 1 .06-1.021c.06-.445.159-.605.257-.703ZM3.9 9.956V15c0 .968.002 1.604.065 2.074.06.445.159.606.257.703.098.098.258.198.703.257.47.064 1.106.066 2.075.066h10c.968 0 1.604-.002 2.074-.066.445-.06.606-.159.703-.257.098-.097.198-.258.257-.703.064-.47.066-1.106.066-2.074V9.956l-5.91 2.954-.143.072c-.734.368-1.358.682-2.048.682s-1.315-.314-2.049-.682l-.143-.072L3.9 9.956Z" clip-rule="evenodd"/>
</svg>
