<svg xmlns="http://www.w3.org/2000/svg" width="24" height="24" fill="currentColor" viewBox="0 0 24 24">
  <path d="M6.94 4.1h10.12c.891 0 1.65 0 2.254.081.645.087 1.248.28 1.736.768s.682 1.092.768 1.737c.017.12.03.246.04.379L13.386 11.3c-.959.479-1.177.563-1.386.563-.21 0-.428-.084-1.387-.563L2.141 7.065c.01-.133.024-.26.04-.38.087-.644.28-1.248.768-1.736s1.092-.681 1.736-.768C5.29 4.1 6.048 4.1 6.94 4.1Z"/>
  <path d="M2.1 9.056v6.005c0 .89 0 1.649.08 2.253.087.645.281 1.249.769 1.737s1.092.681 1.736.768c.605.081 1.363.081 2.254.081H17.06c.891 0 1.65 0 2.254-.081.645-.087 1.248-.28 1.736-.768s.682-1.092.768-1.737c.082-.604.082-1.362.082-2.254V9.056l-7.709 3.855-.143.071c-.734.369-1.358.682-2.048.682s-1.315-.313-2.049-.682l-.143-.071L2.1 9.056Z"/>
</svg>
