<svg width="100" height="40" viewBox="0 0 100 40" fill="none" xmlns="http://www.w3.org/2000/svg">
<path fill-rule="evenodd" clip-rule="evenodd" d="M91.7909 30.0579C91.0063 30.1634 89.9469 30.1666 88.3332 30.1666H73.3332C72.5048 30.1666 71.8332 30.8382 71.8332 31.6666C71.8332 32.495 72.5048 33.1666 73.3332 33.1666L88.434 33.1666C89.9192 33.1667 91.1825 33.1667 92.1906 33.0312C93.2647 32.8868 94.2709 32.5643 95.0842 31.7509C95.8975 30.9376 96.22 29.9314 96.3644 28.8574C96.5 27.8492 96.4999 26.586 96.4998 25.1008L96.4998 14.8991C96.4999 13.4139 96.5 12.1506 96.3644 11.1425C96.22 10.0684 95.8975 9.06222 95.0842 8.24891C94.2709 7.4356 93.2647 7.11308 92.1906 6.96867C91.1825 6.83313 89.9193 6.83319 88.4341 6.83325L71.5657 6.83326C70.0805 6.83319 68.8172 6.83313 67.8091 6.96868C66.735 7.11308 65.7288 7.4356 64.9155 8.24891C64.1022 9.06222 63.7797 10.0684 63.6353 11.1425C63.4997 12.1507 63.4998 13.4139 63.4998 14.8991L63.4998 22.4999C63.4998 23.3284 64.1714 23.9999 64.9998 23.9999C65.8283 23.9999 66.4998 23.3284 66.4998 22.4999V18.1665H93.4998V24.9999C93.4998 26.6137 93.4967 27.6731 93.3912 28.4576C93.2915 29.199 93.1259 29.4666 92.9629 29.6296C92.7999 29.7926 92.5323 29.9583 91.7909 30.0579ZM93.4998 14.9999V15.1665H66.4998V14.9999C66.4998 13.3862 66.503 12.3268 66.6085 11.5422C66.7082 10.8008 66.8738 10.5332 67.0368 10.3702C67.1998 10.2072 67.4674 10.0416 68.2088 9.94192C68.9933 9.83645 70.0528 9.83326 71.6665 9.83326L88.3332 9.83326C89.9469 9.83326 91.0063 9.83645 91.7909 9.94192C92.5323 10.0416 92.7999 10.2072 92.9629 10.3702C93.1259 10.5332 93.2915 10.8008 93.3912 11.5422C93.4967 12.3268 93.4998 13.3862 93.4998 14.9999Z" fill="black"/>
<path d="M71.8938 26.8938C72.4796 26.3081 72.4796 25.3583 71.8938 24.7725C71.308 24.1867 70.3583 24.1867 69.7725 24.7725L64.9998 29.5452L62.7272 27.2725C62.1414 26.6867 61.1916 26.6867 60.6058 27.2725C60.0201 27.8583 60.0201 28.8081 60.6058 29.3938L63.9392 32.7272C64.525 33.313 65.4747 33.313 66.0605 32.7272L71.8938 26.8938Z" fill="black"/>
</svg>
