<svg xmlns="http://www.w3.org/2000/svg" width="24" height="24" fill="currentColor" viewBox="0 0 24 24">
  <path d="M7 1.094a.9.9 0 0 0-.486.142l-3.5 2.25a.9.9 0 0 0-.336 1.123l.736 1.657C2.028 7.599 1.1 9.296 1.1 10.994v7.5a.9.9 0 0 0 .9.9h2.6v1.1a.9.9 0 0 0 .697.877l6.357 1.467a.9.9 0 0 0 .684.002l6.365-1.469a.9.9 0 0 0 .697-.877v-1.1H22a.9.9 0 0 0 .9-.9v-7.5c0-1.698-.928-3.395-2.314-4.728l.736-1.657a.9.9 0 0 0-.336-1.123l-3.5-2.25A.9.9 0 0 0 17 1.094H7Zm.264 1.8h9.472l2.627 1.69-.25.562c-1.507-.87-3.002-1.044-3.002-1.044a.9.9 0 0 0-.742.25l-.006.005L12 7.721 8.637 4.357a.9.9 0 0 0-.748-.255s-1.494.173-3.002 1.044l-.25-.562 2.627-1.69Zm.453 3.09L11.1 9.367v11.496l-4.7-1.086v-1.133a.9.9 0 0 0 0-.29v-7.36a.9.9 0 1 0-1.8 0v6.6H2.9v-6.6c0-1.091.83-2.67 2.145-3.781a.892.892 0 0 0 .031-.027c1.01-.842 2.161-1.107 2.64-1.202Zm8.566 0c.48.095 1.631.36 2.64 1.202 1.335 1.111 2.177 2.708 2.177 3.808v6.6h-1.7v-6.6a.9.9 0 0 0-1.8 0v7.35a.9.9 0 0 0 0 .29v1.143l-4.7 1.086V9.367l3.383-3.383Z"/>
</svg>
