<svg width="100" height="40" viewBox="0 0 100 40" fill="none" xmlns="http://www.w3.org/2000/svg">
<path fill-rule="evenodd" clip-rule="evenodd" d="M80 3.89355C78.8498 3.89355 77.8094 4.41572 76.586 5.02975L67.9508 9.34768C67.1086 9.76871 66.377 10.1345 65.8006 10.5012C65.1803 10.8959 64.6316 11.3562 64.2219 12.0192C63.8121 12.6822 63.6458 13.3788 63.5702 14.1101C63.4999 14.7897 63.5 15.6076 63.5 16.5491V23.4511C63.5 24.3926 63.4999 25.2105 63.5702 25.8901C63.6458 26.6214 63.8121 27.318 64.2219 27.981C64.6316 28.644 65.1803 29.1043 65.8006 29.499C66.377 29.8658 67.1086 30.2315 67.9507 30.6525L76.586 34.9705C77.8094 35.5845 78.8498 36.1067 80 36.1067C81.1503 36.1067 82.1906 35.5845 83.414 34.9705L92.0492 30.6526C92.8914 30.2315 93.623 29.8658 94.1994 29.499C94.8197 29.1043 95.3684 28.644 95.7782 27.981C96.1879 27.318 96.3542 26.6214 96.4298 25.8901C96.5001 25.2105 96.5001 24.3927 96.5 23.4512V16.5491C96.5001 15.6076 96.5001 14.7897 96.4298 14.1101C96.3542 13.3788 96.1879 12.6822 95.7782 12.0192C95.3684 11.3562 94.8197 10.8959 94.1994 10.5012C93.623 10.1345 92.8914 9.76872 92.0493 9.3477L83.414 5.02975C82.1906 4.41572 81.1503 3.89355 80 3.89355ZM77.6894 7.83246C79.2871 7.03361 79.6504 6.89355 80 6.89355C80.3496 6.89355 80.7129 7.03361 82.3106 7.83246L84.1459 8.75011L72.5 14.5731L68.3592 12.5026C68.6416 12.3567 68.9697 12.1923 69.3561 11.9991L77.6894 7.83246ZM66.5188 14.9366C66.5009 15.3677 66.5 15.9049 66.5 16.6203V23.3799C66.5 24.413 66.5019 25.0745 66.5543 25.5816C66.6031 26.0541 66.6857 26.2613 66.7738 26.4038C66.8619 26.5463 67.0103 26.7129 67.4111 26.9679C67.8411 27.2416 68.432 27.5391 69.3561 28.0011L77.6894 32.1678C78.0045 32.3253 78.2716 32.4572 78.5 32.5675V20.9272L66.5188 14.9366ZM81.5 32.5675C81.7284 32.4572 81.9955 32.3253 82.3106 32.1678L90.6439 28.0011C91.568 27.5391 92.1589 27.2416 92.5889 26.9679C92.9897 26.7129 93.1381 26.5463 93.2262 26.4038C93.3143 26.2613 93.3969 26.0541 93.4457 25.5816C93.4982 25.0745 93.5 24.413 93.5 23.3799V16.6203C93.5 15.9049 93.4991 15.3677 93.4812 14.9366L81.5 20.9272V32.5675ZM91.6408 12.5026C91.3584 12.3567 91.0303 12.1923 90.6439 11.9991L87.5 10.4272L75.8541 16.2501L80 18.3231L91.6408 12.5026Z" fill="black"/>
</svg>
