<svg xmlns="http://www.w3.org/2000/svg" width="24" height="24" fill="currentColor" viewBox="0 0 24 24">
  <path fill-rule="evenodd" d="M4.55 2.507c1.377-.91 3.016-.196 3.73.993l1.516 2.528a2.96 2.96 0 0 1-.075 3.165l-1.023 1.534c.32.569.76 1.458 1.938 2.636 1.178 1.179 2.068 1.62 2.637 1.939l1.534-1.023a2.96 2.96 0 0 1 3.165-.076L20.5 15.72c1.189.713 1.902 2.352.992 3.73-1.089 1.648-2.534 2.45-4.071 2.45-3.45 0-6.91-2.115-10.058-5.264C4.215 13.488 2.1 10.028 2.1 6.58c0-1.537.802-2.983 2.45-4.072Zm2.186 1.919c-.327-.545-.884-.622-1.194-.417C4.307 4.825 3.9 5.747 3.9 6.58c0 2.73 1.704 5.752 4.736 8.784 3.032 3.033 6.054 4.737 8.785 4.737.831 0 1.754-.408 2.57-1.643.204-.31.128-.866-.417-1.193l-2.528-1.517a1.16 1.16 0 0 0-1.24.03l-1.757 1.17c-.42.28-1.005.335-1.492.021-.307-.198-1.636-.774-3.194-2.332-1.558-1.558-2.134-2.886-2.332-3.194a1.357 1.357 0 0 1 .021-1.491l1.171-1.757a1.16 1.16 0 0 0 .03-1.24L6.736 4.426Z" clip-rule="evenodd"/>
</svg>
