<svg xmlns="http://www.w3.org/2000/svg" width="32" height="32" fill="currentColor" viewBox="0 0 32 32">
  <path fill-rule="evenodd" d="M16 8.133a5.2 5.2 0 1 0 0 10.4 5.2 5.2 0 0 0 0-10.4Zm-2.8 5.2a2.8 2.8 0 1 1 5.6 0 2.8 2.8 0 0 1-5.6 0Z" clip-rule="evenodd"/>
  <path fill-rule="evenodd" d="M16 1.467c-5.896 0-11.867 4.44-11.867 11.867 0 5.359 3.789 10.493 7.977 14.333l.059.053c.63.578 1.2 1.1 1.749 1.465.619.41 1.275.668 2.082.668.806 0 1.462-.257 2.081-.668.549-.364 1.12-.887 1.75-1.465l.058-.053c4.188-3.84 7.977-8.974 7.977-14.334 0-7.425-5.97-11.866-11.867-11.866ZM6.532 13.334c0-5.908 4.696-9.467 9.466-9.467 4.771 0 9.467 3.559 9.467 9.466 0 4.303-3.126 8.83-7.199 12.565-.707.648-1.14 1.04-1.513 1.288-.321.213-.524.267-.755.267-.23 0-.433-.054-.754-.267-.373-.248-.806-.64-1.513-1.288-4.073-3.735-7.2-8.262-7.2-12.564Z" clip-rule="evenodd"/>
</svg>
