<svg xmlns="http://www.w3.org/2000/svg" width="56" height="56" fill="currentColor" viewBox="0 0 56 56">
  <path d="M24.414 19.2a2.1 2.1 0 0 0-3.18 1.8v14a2.1 2.1 0 0 0 3.18 1.8l11.667-7a2.1 2.1 0 0 0 0-3.6l-11.667-7Z"/>
  <path fill-rule="evenodd" d="M4.9 28C4.9 15.242 15.243 4.9 28 4.9c12.758 0 23.1 10.342 23.1 23.1 0 12.758-10.342 23.1-23.1 23.1C15.243 51.1 4.9 40.758 4.9 28ZM28 9.1C17.562 9.1 9.1 17.562 9.1 28c0 10.438 8.462 18.9 18.9 18.9 10.439 0 18.9-8.462 18.9-18.9 0-10.438-8.46-18.9-18.9-18.9Z" clip-rule="evenodd"/>
</svg>
