<svg xmlns="http://www.w3.org/2000/svg" width="24" height="24" fill="currentColor" viewBox="0 0 24 24">
  <path d="M9 7.5a1.5 1.5 0 1 0 0 3 1.5 1.5 0 0 0 0-3Zm6.636 2.136-6 6a.9.9 0 0 1-1.273-1.272l6-6a.9.9 0 1 1 1.273 1.272ZM13.5 15a1.5 1.5 0 1 1 3 0 1.5 1.5 0 0 1-3 0Z"/>
  <path fill-rule="evenodd" d="M10.983 1.712c.274-.172.606-.323 1.017-.323.41 0 .742.15 1.016.323.376.236.713.534 1.057.814.182.148.278.226.352.277.028.02.038.022.073.02.09-.008.212-.027.443-.064.438-.07.878-.16 1.322-.177.323-.012.686.023 1.042.229.356.205.568.501.72.787.207.393.349.82.507 1.234.083.22.128.334.167.416.015.03.022.038.053.053.082.039.196.083.416.167.414.158.84.3 1.233.507.286.151.583.364.788.72.205.355.241.718.229 1.041-.017.444-.107.885-.177 1.322a6.359 6.359 0 0 0-.064.444c-.002.034 0 .044.02.073.051.074.128.17.276.352.28.344.579.68.815 1.056.172.274.322.606.322 1.017 0 .41-.15.743-.322 1.017-.236.376-.535.712-.815 1.056a6.348 6.348 0 0 0-.276.352c-.02.029-.022.039-.02.073.008.09.026.212.064.444.07.438.16.878.177 1.322.012.323-.024.686-.23 1.041-.204.356-.5.569-.787.72-.392.207-.819.35-1.233.507-.22.084-.334.128-.416.167-.031.015-.038.022-.053.053a6.37 6.37 0 0 0-.167.416c-.158.415-.3.841-.508 1.234-.15.286-.363.582-.719.787-.355.206-.718.242-1.042.23-.444-.017-.884-.108-1.322-.178a6.338 6.338 0 0 0-.443-.063c-.035-.003-.044 0-.073.02-.074.05-.17.128-.352.276-.345.28-.68.578-1.057.814-.274.173-.606.323-1.016.323-.411 0-.743-.15-1.017-.323-.376-.236-.712-.534-1.056-.814a6.359 6.359 0 0 0-.353-.276c-.028-.02-.038-.023-.073-.02-.09.007-.211.026-.443.063-.438.07-.878.16-1.322.177-.323.013-.686-.023-1.042-.229-.355-.205-.568-.501-.72-.787-.207-.393-.349-.82-.507-1.234a6.384 6.384 0 0 0-.167-.415c-.014-.032-.022-.039-.053-.054a6.36 6.36 0 0 0-.415-.167c-.415-.158-.841-.3-1.234-.507-.286-.151-.582-.364-.788-.72-.205-.355-.241-.718-.229-1.041.017-.444.107-.884.178-1.322.037-.232.056-.354.063-.444.002-.034 0-.044-.02-.072a6.372 6.372 0 0 0-.276-.353c-.28-.344-.578-.68-.815-1.056-.172-.274-.322-.606-.322-1.017 0-.41.15-.743.322-1.017.237-.376.535-.712.815-1.056.148-.182.225-.278.276-.352.02-.029.022-.039.02-.073a6.378 6.378 0 0 0-.063-.444c-.07-.438-.161-.878-.178-1.322-.012-.323.024-.686.23-1.041.205-.356.5-.569.787-.72.393-.207.82-.35 1.234-.507.219-.084.334-.128.415-.167.031-.015.039-.022.053-.053.04-.082.084-.197.167-.416.158-.414.3-.84.508-1.234.151-.286.364-.582.72-.787.355-.206.718-.241 1.04-.23.445.017.885.108 1.323.178.232.037.353.056.443.063.035.003.045 0 .073-.02a6.38 6.38 0 0 0 .353-.276c.344-.28.68-.578 1.056-.814Zm.322 2.013c.32-.26.498-.403.636-.49.057-.035.06-.035.117 0 .138.087.316.23.636.49.397.323.79.706 1.297.842.507.135 1.04.001 1.545-.08.407-.066.632-.1.795-.107.064-.002.072.003.102.059.076.144.159.357.305.742.183.479.332 1.006.703 1.377.371.371.9.521 1.378.703.385.147.597.23.742.306.056.03.06.038.058.102-.006.163-.04.388-.106.795-.081.505-.216 1.038-.08 1.544.136.507.518.9.842 1.298.26.32.402.497.49.636.033.053.033.063 0 .117-.088.138-.23.316-.49.635-.324.397-.706.791-.842 1.298s-.001 1.039.08 1.544c.065.407.1.633.106.796.003.063-.002.071-.058.101-.145.076-.357.159-.742.306-.479.182-1.007.332-1.378.703-.37.37-.52.899-.703 1.378-.146.385-.23.597-.305.741-.03.056-.038.061-.102.059-.163-.006-.388-.041-.795-.106-.506-.082-1.038-.216-1.545-.08-.506.135-.9.518-1.297.841-.32.26-.498.403-.636.49-.054.034-.063.034-.117 0-.138-.087-.316-.23-.636-.49-.397-.323-.79-.706-1.297-.841-.507-.136-1.039-.002-1.545.08-.407.065-.632.1-.795.106-.064.002-.072-.003-.101-.059-.077-.144-.16-.356-.306-.741-.182-.48-.332-1.007-.703-1.378-.371-.371-.899-.521-1.378-.703-.385-.147-.597-.23-.741-.306-.057-.03-.061-.038-.06-.101.007-.163.042-.389.107-.796.082-.505.216-1.037.08-1.544-.136-.507-.518-.9-.842-1.298-.26-.32-.402-.497-.489-.635-.034-.054-.034-.064 0-.117.087-.139.23-.316.49-.636.323-.397.705-.791.841-1.298.136-.506.002-1.039-.08-1.544-.065-.407-.1-.632-.106-.795-.002-.064.002-.072.059-.102.144-.076.356-.159.741-.306.479-.182 1.007-.332 1.378-.703.37-.37.52-.898.703-1.377.147-.385.23-.598.306-.742.03-.056.037-.061.101-.059.163.007.388.041.795.107.506.081 1.038.215 1.545.08.507-.136.9-.519 1.297-.842Z" clip-rule="evenodd"/>
</svg>
