<svg width="100" height="40" viewBox="0 0 100 40" fill="none" xmlns="http://www.w3.org/2000/svg">
<path d="M66.6554 22.8144H68.9934C73.4311 22.8144 75.8126 21.0405 75.8126 17.5146C75.8126 14.0969 73.7775 12.3879 68.9934 12.3879H63.9495V27.53H66.6554V22.8144ZM66.6554 14.8755H69.2316C71.8725 14.8755 72.9982 15.5894 72.9982 17.4498C72.9982 19.5047 71.6993 20.3267 69.1881 20.3267H66.6554V14.8755Z" fill="#00D800"/>
<path d="M79.8813 27.7028C81.6132 27.7028 82.9337 26.8376 83.4532 25.583V27.5298H85.8345V20.3914C85.8345 17.5794 84.2758 16.4978 81.1152 16.4978C79.2535 16.4978 77.9546 16.9305 77.2402 17.4712V20.6294C77.9763 19.4829 79.1236 18.7042 81.1152 18.7042C82.5657 18.7042 83.3016 19.1801 83.3016 20.7159V21.1918H80.8554C78.1926 21.1918 76.396 21.884 76.396 24.35C76.396 26.4699 77.6948 27.7028 79.8813 27.7028ZM81.1585 22.8358H83.3016V23.7226C83.1934 24.4581 82.3925 25.4316 80.6823 25.4316C79.5566 25.4316 78.9504 24.9124 78.9504 24.0904C78.9504 23.117 79.6647 22.8358 81.1585 22.8358Z" fill="#00D800"/>
<path d="M89.882 29.5633C89.4056 29.5633 88.9078 29.3469 88.5832 29.0225V31.3803C88.9078 31.6615 89.6438 31.8562 90.315 31.8562C91.7436 31.8562 92.7178 31.2721 93.6704 28.6764L98 16.7141H95.3156L92.891 24.1338L89.9252 16.7141H87.0894L91.657 27.5732C91.2458 29.0441 90.6614 29.5633 89.882 29.5633Z" fill="#00D800"/>
<path d="M39.1702 17.4819V20.8032L43.5774 23.5646L54.1263 15.7956C53.7532 14.9732 53.2858 14.2025 52.7387 13.4961L43.5774 20.2429L39.1702 17.4819Z" fill="#00D800"/>
<path d="M43.5776 32.138C49.9719 32.138 55.1551 26.9581 55.1551 20.5691C55.1551 19.8613 55.0914 19.1688 54.9698 18.4964L52.4774 20.3311C52.4794 20.4105 52.4807 20.4898 52.4807 20.5691C52.4807 25.4748 48.4868 29.4656 43.5776 29.4656C38.6683 29.4656 34.6744 25.4748 34.6744 20.5691C34.6744 15.6636 38.6683 11.6728 43.5776 11.6728C45.4382 11.6728 47.1669 12.2467 48.5969 13.2255L50.8486 11.5669C48.8612 9.96207 46.3322 9 43.5776 9C37.1837 9 32 14.1798 32 20.5691C32 26.9581 37.1837 32.138 43.5776 32.138Z" fill="#00D800"/>
</svg>
