<svg width="100" height="40" viewBox="0 0 100 40" fill="none" xmlns="http://www.w3.org/2000/svg">
<path d="M99.5938 16.2346V24.4325H96.7406V18.6811H93.9923V24.4314H91.1392V16.2334H99.5938V16.2346Z" fill="black"/>
<path fill-rule="evenodd" clip-rule="evenodd" d="M85.2793 24.7253C87.8335 24.7253 89.7308 23.1193 89.7308 20.6828C89.7308 18.3257 88.331 16.7956 85.992 16.7956C84.9123 16.7956 84.0222 17.1857 83.3508 17.8574C83.5114 16.4681 84.6569 15.4533 85.9184 15.4533L88.4024 15.4477L89.6415 13.0146C89.6415 13.0146 86.8899 13.0794 85.6105 13.0794C82.6871 13.1308 80.7129 15.8568 80.7129 19.1673C80.7129 23.0231 82.638 24.7253 85.2793 24.7253ZM85.2949 18.9504C86.243 18.9504 86.901 19.5897 86.901 20.6828C86.901 21.6663 86.3166 22.4777 85.2949 22.48C84.3178 22.48 83.6597 21.7289 83.6597 20.6995C83.6597 19.6065 84.3178 18.9504 85.2949 18.9504Z" fill="black"/>
<path d="M78.3895 21.6876C78.3895 21.6876 77.7158 22.0866 76.7098 22.1615C75.552 22.1973 74.5214 21.4462 74.5214 20.1162C74.5214 18.8164 75.4304 18.0709 76.6796 18.0709C77.4459 18.0709 78.4598 18.6163 78.4598 18.6163C78.4598 18.6163 79.2004 17.2193 79.5852 16.5219C78.8825 15.9753 77.9456 15.6758 76.8548 15.6758C74.1053 15.6758 71.9761 17.5143 71.9761 20.0983C71.9761 22.7159 73.9771 24.5131 76.8548 24.4572C77.6601 24.427 78.7688 24.1375 79.4458 23.6916L78.3895 21.6876Z" fill="black"/>
<path d="M42 10.5334L45.9585 17.7914V22.2184L42.0045 29.4619L42 10.5334Z" fill="#5B57A2"/>
<path d="M57.1992 15.1495L60.9079 12.8181L68.4992 12.8103L57.1992 19.9118V15.1495Z" fill="#D90751"/>
<path d="M57.1783 10.4911L57.1995 20.0996L53.231 17.5994V3.23535L57.1783 10.4911Z" fill="#FAB718"/>
<path d="M68.4995 12.8114L60.9082 12.8181L57.1783 10.4911L53.231 3.23535L68.4995 12.8114Z" fill="#ED6F26"/>
<path d="M57.1995 29.5021V24.8404L53.231 22.3872L53.2332 36.7646L57.1995 29.5021Z" fill="#63B22F"/>
<path d="M60.8991 27.1908L45.9585 17.7914L42 10.5334L68.4826 27.1819L60.898 27.192L60.8991 27.1908Z" fill="#1487C9"/>
<path d="M53.233 36.7646L57.1982 29.5021L60.898 27.1908L68.4826 27.1819L53.2319 36.7646H53.233Z" fill="#017F36"/>
<path d="M42.0042 29.4608L53.2628 22.3861L49.4783 20.0044L45.9582 22.2173L42.0042 29.4608Z" fill="#984995"/>
</svg>
