<svg xmlns="http://www.w3.org/2000/svg" width="20" height="20" fill="currentColor" viewBox="0 0 20 20">
  <path d="M10 7.583a1.167 1.167 0 1 0 0 2.334 1.167 1.167 0 0 0 0-2.334Zm0 4.167a1.167 1.167 0 1 0 0 2.333 1.167 1.167 0 0 0 0-2.333Z"/>
  <path fill-rule="evenodd" d="M5.783 1.75c-.743 0-1.374 0-1.878.068-.537.072-1.04.233-1.447.64-.407.406-.568.91-.64 1.447-.068.504-.068 1.135-.068 1.878v8.434c0 .743 0 1.374.068 1.878.072.537.233 1.04.64 1.447.406.407.91.568 1.447.64.504.068 1.135.068 1.878.068h8.434c.743 0 1.374 0 1.878-.068.537-.072 1.04-.233 1.447-.64.407-.407.568-.91.64-1.447.068-.504.068-1.135.068-1.878V5.783c0-.743 0-1.374-.068-1.878-.072-.537-.233-1.04-.64-1.447-.407-.407-.91-.568-1.447-.64-.504-.068-1.135-.068-1.878-.068H5.783Zm2.694 1.5H5.833c-.807 0-1.336.002-1.729.054-.37.05-.504.133-.586.214-.07.071-.142.18-.192.45L5.792 6.74l2.685-3.49ZM3.25 6.14v8.027c0 .806.002 1.336.054 1.729.05.37.133.504.214.585.082.082.216.165.586.215.393.052.922.054 1.73.054h8.333c.806 0 1.336-.002 1.729-.054.37-.05.504-.133.585-.215.082-.081.165-.215.215-.586.052-.392.054-.921.054-1.728V6.139l-2.023 2.276a.75.75 0 0 1-1.155-.041L10 3.73 6.428 8.374a.75.75 0 0 1-1.155.04L3.25 6.14Zm13.424-2.173c-.05-.268-.122-.378-.192-.449-.082-.081-.216-.164-.586-.214-.393-.052-.923-.054-1.73-.054h-2.643l2.686 3.49 2.465-2.773Z" clip-rule="evenodd"/>
</svg>
