<svg width="100" height="40" viewBox="0 0 100 40" fill="none" xmlns="http://www.w3.org/2000/svg">
<g clip-path="url(#clip0_16181_12880)">
<mask id="mask0_16181_12880" style="mask-type:luminance" maskUnits="userSpaceOnUse" x="10" y="8" width="90" height="24">
<path d="M100 8H10V32H100V8Z" fill="white"/>
</mask>
<g mask="url(#mask0_16181_12880)">
<mask id="mask1_16181_12880" style="mask-type:luminance" maskUnits="userSpaceOnUse" x="10" y="8" width="25" height="24">
<path d="M10 8H34.1791V32H10V8Z" fill="white"/>
</mask>
<g mask="url(#mask1_16181_12880)">
<mask id="mask2_16181_12880" style="mask-type:luminance" maskUnits="userSpaceOnUse" x="10" y="8" width="25" height="24">
<path d="M31.471 8H12.7081C11.2124 8 10 9.20346 10 10.688V29.312C10 30.7965 11.2124 32 12.7081 32H31.471C32.9667 32 34.1791 30.7965 34.1791 29.312V10.688C34.1791 9.20346 32.9667 8 31.471 8Z" fill="white"/>
</mask>
<g mask="url(#mask2_16181_12880)">
<mask id="mask3_16181_12880" style="mask-type:alpha" maskUnits="userSpaceOnUse" x="9" y="8" width="22" height="25">
<path fill-rule="evenodd" clip-rule="evenodd" d="M30.0149 27.1879L30.0418 27.1999L30.0163 27.2212L30.0552 27.2399C30.0507 27.2439 30.0462 27.2479 30.0418 27.2519L30.0713 27.2652L30.0458 27.2879L30.066 27.2959L30.0767 27.3012L30.0566 27.3199L30.1009 27.3412L30.0821 27.3586C30.0949 27.3642 30.1075 27.3704 30.1197 27.3772L30.1157 27.3812L30.113 27.3826L30.1076 27.3879C30.1157 27.3918 30.1238 27.3958 30.1318 27.3999C30.1229 27.4079 30.1139 27.4159 30.1049 27.4239L30.1452 27.4452L30.1425 27.4492L30.1385 27.4519L30.1318 27.4586L30.1721 27.4799L30.1533 27.4959L30.1627 27.5012C30.1673 27.5032 30.1717 27.5055 30.1761 27.5079L30.1533 27.5279L30.1909 27.5492L30.1748 27.5639L30.2097 27.5839L30.207 27.5866L30.1976 27.5959L30.211 27.6026L30.2191 27.6079L30.2218 27.6092L30.1976 27.6306L30.2352 27.6532L30.2191 27.6666L30.2527 27.6879L30.2352 27.7012L30.2567 27.7146C30.26 27.7165 30.2632 27.7187 30.2661 27.7212L30.2513 27.7346L30.2822 27.7559L30.2594 27.7759C30.2722 27.7834 30.2848 27.7914 30.297 27.7999L30.2863 27.8079C30.2955 27.8133 30.3044 27.8191 30.3131 27.8252L30.2943 27.8412L30.3212 27.8599L30.3077 27.8706C30.3196 27.8778 30.3312 27.8854 30.3427 27.8932L30.3319 27.9026C30.3412 27.9084 30.3501 27.9146 30.3588 27.9212C30.3522 27.9276 30.3455 27.9338 30.3386 27.9399C30.3496 27.9476 30.3603 27.9556 30.3709 27.9639L30.3507 27.9812C30.3603 27.9877 30.3697 27.9944 30.3789 28.0012L30.3655 28.0146L30.4031 28.0412L30.3951 28.0492C30.4029 28.0547 30.4105 28.0605 30.4179 28.0666L30.4004 28.0799L30.4233 28.0986L30.4273 28.1012L30.4166 28.1106C30.4272 28.1186 30.4375 28.127 30.4474 28.1359L30.434 28.1479L30.4501 28.1612C30.4537 28.1639 30.4573 28.1666 30.4609 28.1692L30.4542 28.1759L30.477 28.1959L30.4595 28.2119L30.4918 28.2386L30.4824 28.2479L30.5119 28.2746L30.5012 28.2839L30.528 28.3079L30.5146 28.3212L30.5374 28.3412L30.5254 28.3532L30.5522 28.3772L30.5415 28.3866L30.5657 28.4092L30.5683 28.4119L30.563 28.4172L30.5925 28.4452L30.5777 28.4586L30.5992 28.4799L30.5858 28.4906L30.6127 28.5159L30.6006 28.5266L30.6274 28.5519L30.3507 28.7999C28.0462 30.9443 24.9892 32.1107 21.831 32.0506C18.6728 31.9906 15.663 30.7088 13.4429 28.4784C11.2229 26.248 9.96797 23.2453 9.94562 20.11C9.92326 16.9746 11.1352 13.9546 13.3233 11.6932C13.5463 11.4572 13.78 11.2292 14.0298 11.0105L14.0379 11.0039L14.0473 10.9959C14.2488 10.8252 14.4583 10.6625 14.6706 10.5052L14.6867 10.4932C16.2157 9.34487 17.995 8.56881 19.8813 8.22746C21.7676 7.88611 23.7082 7.98901 25.5471 8.52787C26.698 8.85671 27.7928 9.35467 28.7952 10.0052C29.5513 10.4924 30.2485 11.0642 30.8733 11.7092L30.8746 11.7119C30.8775 11.7153 30.8794 11.7194 30.88 11.7239C30.8856 11.7336 30.8901 11.7439 30.8934 11.7545C31.0143 11.9812 31.0721 13.2132 22.1607 20.0706L28.72 26.6412C29.5206 26.9666 30.0283 27.1746 30.0257 27.1772L30.0149 27.1879Z" fill="white"/>
</mask>
<g mask="url(#mask3_16181_12880)">
<path d="M22.0896 32C28.7664 32 34.1791 26.6274 34.1791 20C34.1791 13.3726 28.7664 8 22.0896 8C15.4127 8 10 13.3726 10 20C10 26.6274 15.4127 32 22.0896 32Z" fill="url(#paint0_radial_16181_12880)"/>
</g>
<path d="M25.6478 17.3064C23.4435 19.1021 21.1941 20.8427 18.9019 22.5264C21.1196 24.8104 23.4999 26.6571 25.6451 27.7678C27.7917 28.8771 29.5044 29.1051 30.3144 28.3798C31.1244 27.6544 31.0317 25.9798 30.0605 23.8038C29.1619 21.7771 27.609 19.5011 25.6478 17.3064Z" fill="url(#paint1_linear_16181_12880)"/>
<path d="M25.8374 17.1504L24.9307 17.8877C26.6054 19.7111 27.9971 21.772 29.0599 24.0024C29.9975 26.1358 29.9734 27.2078 29.6725 27.4758C29.3702 27.7451 28.0646 27.8131 25.9798 26.7198C23.6813 25.4259 21.6032 23.7799 19.8222 21.8424L18.7825 22.6091L19.0055 22.8251C23.3483 27.2651 28.0458 29.7918 30.1117 28.8718C30.1735 28.8424 30.2568 28.8118 30.3146 28.7784C30.4803 28.677 30.6255 28.5458 30.7431 28.3918C32.0931 26.6398 30.0432 21.9211 25.9569 17.2984L25.8374 17.1504Z" fill="#84EEB1"/>
</g>
</g>
<path d="M88.3914 15.044V11.8H99.4842V15.044H95.8976V27.5974H91.9537V15.044H88.3887H88.3914Z" fill="black"/>
<path d="M78.7345 27.5972H74.792V11.8013H78.7345V20.7146L82.8557 11.8013H86.7983V27.5972H82.8557V18.6839L78.7345 27.5972Z" fill="black"/>
<path d="M60.9656 23.9799C61.5445 24.0532 61.9677 23.9652 62.235 23.7146C62.5171 23.4506 62.6957 22.9719 62.7696 22.2812C62.8596 21.5012 62.9335 20.2812 62.9926 18.6186C63.0665 16.9413 63.1269 14.6693 63.1712 11.8013H73.0175V27.5972H69.0736V15.0439H66.5348C66.5073 16.8692 66.4401 18.6935 66.3333 20.5159C66.2595 21.8839 66.148 22.9719 66.0002 23.7812C65.7477 25.2812 65.1754 26.3626 64.2848 27.0239C63.3942 27.6852 62.2874 27.8692 60.9669 27.5759L60.9656 23.9799Z" fill="black"/>
<path d="M48.2244 11.8H59.5617V27.5974H55.6205V15.044H52.1682V27.5974H48.2244V11.8Z" fill="black"/>
<path d="M43.6359 27.8186C42.2094 27.8186 40.9762 27.4946 39.9379 26.8479C38.8982 26.1999 38.0962 25.2746 37.5321 24.0679C36.9813 22.8466 36.7073 21.3986 36.7073 19.7212C36.7073 18.0292 36.9894 16.5812 37.5535 15.3745C38.1177 14.1545 38.9197 13.2199 39.9594 12.5732C41.0138 11.9252 42.2765 11.6025 43.7474 11.6025C44.9349 11.6025 45.9598 11.8079 46.8209 12.2199V15.4625C46.0187 15.0901 45.1448 14.8945 44.2592 14.8892C41.9125 14.8892 40.7398 16.4999 40.7398 19.7212C40.7398 21.3386 41.0219 22.5452 41.5861 23.3399C42.165 24.1186 43.0556 24.5092 44.2592 24.5092C45.1794 24.5092 46.0323 24.2959 46.8209 23.8692V27.1119C46.0485 27.5826 44.9859 27.8186 43.6346 27.8186H43.6359Z" fill="black"/>
</g>
</g>
<defs>
<radialGradient id="paint0_radial_16181_12880" cx="0" cy="0" r="1" gradientTransform="matrix(-14.6278 63.6301 -38.843 -8.79776 26.654 -1.18)" gradientUnits="userSpaceOnUse">
<stop offset="0.043" stop-color="#0D9B43"/>
<stop offset="0.172" stop-color="#48F56D"/>
<stop offset="0.218" stop-color="#43EA68"/>
<stop offset="0.309" stop-color="#37CB5A"/>
<stop offset="0.43" stop-color="#239A44"/>
<stop offset="0.482" stop-color="#1F9140"/>
<stop offset="0.503" stop-color="#0BA446"/>
<stop offset="0.73" stop-color="#085625"/>
<stop offset="0.8" stop-color="#00421C"/>
</radialGradient>
<linearGradient id="paint1_linear_16181_12880" x1="26.6083" y1="36.8291" x2="22.2065" y2="5.05611" gradientUnits="userSpaceOnUse">
<stop offset="0.1" stop-color="#FF8475"/>
<stop offset="0.37" stop-color="#E84E43"/>
<stop offset="0.6" stop-color="#D6261F"/>
<stop offset="0.79" stop-color="#CC0E08"/>
<stop offset="0.9" stop-color="#C80500"/>
</linearGradient>
<clipPath id="clip0_16181_12880">
<rect width="90" height="24" fill="white" transform="translate(10 8)"/>
</clipPath>
</defs>
</svg>
