<?xml version="1.0" encoding="utf-8"?><svg xmlns="http://www.w3.org/2000/svg" xmlns:xlink="http://www.w3.org/1999/xlink"><symbol fill="currentColor" viewBox="0 0 24 24" id="arrow-left" xmlns="http://www.w3.org/2000/svg"><path d="m2.954 12.796 6.75 6.75a1.127 1.127 0 1 0 1.594-1.594l-4.83-4.827H20.25a1.125 1.125 0 1 0 0-2.25H6.469l4.827-4.83a1.127 1.127 0 1 0-1.594-1.594l-6.75 6.75a1.124 1.124 0 0 0 .002 1.595Z"/></symbol><symbol fill="currentColor" viewBox="0 0 24 24" id="arrow-left-short" xmlns="http://www.w3.org/2000/svg"><path fill-rule="evenodd" d="M12.636 5.364a.9.9 0 0 1 0 1.272L8.174 11.1H18a.9.9 0 1 1 0 1.8H8.173l4.463 4.464a.9.9 0 1 1-1.272 1.272l-6-6a.9.9 0 0 1 0-1.272l6-6a.9.9 0 0 1 1.272 0Z" clip-rule="evenodd"/></symbol><symbol fill="currentColor" viewBox="0 0 24 24" id="arrow-right" xmlns="http://www.w3.org/2000/svg"><path d="m21.046 12.796-6.75 6.75a1.127 1.127 0 1 1-1.594-1.594l4.83-4.827H3.75a1.125 1.125 0 1 1 0-2.25h13.781l-4.827-4.83a1.127 1.127 0 1 1 1.594-1.594l6.75 6.75a1.126 1.126 0 0 1-.002 1.595Z"/></symbol><symbol fill="currentColor" viewBox="0 0 24 24" id="arrow-up" xmlns="http://www.w3.org/2000/svg"><path d="m12.796 2.954 6.75 6.75a1.127 1.127 0 0 1-1.594 1.594l-4.827-4.83V20.25a1.125 1.125 0 1 1-2.25 0V6.469l-4.83 4.827A1.127 1.127 0 1 1 4.45 9.702l6.75-6.75a1.124 1.124 0 0 1 1.595.002Z"/></symbol><symbol fill="currentColor" viewBox="0 0 20 20" id="asterisk" xmlns="http://www.w3.org/2000/svg"><path d="M17.054 14.232a.938.938 0 0 1-1.287.322l-4.83-2.899v5.22a.938.938 0 0 1-1.875 0v-5.22l-4.83 2.899a.936.936 0 0 1-1.392-1.031.937.937 0 0 1 .428-.577L8.178 10l-4.91-2.946a.938.938 0 0 1 .964-1.608l4.83 2.899v-5.22a.937.937 0 1 1 1.875 0v5.22l4.83-2.899a.938.938 0 0 1 .965 1.608L11.822 10l4.91 2.946a.938.938 0 0 1 .322 1.286Z"/></symbol><symbol fill="currentColor" viewBox="0 0 40 40" id="box" xmlns="http://www.w3.org/2000/svg"><path fill-rule="evenodd" d="M20 3.893c-1.15 0-2.19.523-3.414 1.137L7.951 9.348c-.842.42-1.574.786-2.15 1.153-.62.395-1.17.855-1.58 1.518-.409.663-.575 1.36-.65 2.091-.071.68-.071 1.497-.071 2.439v6.902c0 .941 0 1.76.07 2.439.076.731.242 1.428.652 2.09.41.664.958 1.124 1.579 1.519.576.367 1.308.732 2.15 1.153l8.635 4.318c1.223.614 2.264 1.136 3.414 1.136 1.15 0 2.19-.522 3.414-1.136l8.635-4.318c.842-.42 1.574-.786 2.15-1.153.62-.395 1.17-.855 1.58-1.518.409-.663.575-1.36.65-2.091.071-.68.071-1.497.071-2.439V16.55c0-.941 0-1.76-.07-2.439-.076-.731-.242-1.428-.652-2.09-.41-.664-.958-1.124-1.579-1.519-.576-.367-1.308-.732-2.15-1.153L23.414 5.03C22.191 4.416 21.15 3.893 20 3.893Zm-2.31 3.94c1.597-.8 1.96-.94 2.31-.94.35 0 .713.14 2.31.94l1.836.917L12.5 14.573l-4.14-2.07c.282-.146.61-.31.996-.504l8.333-4.167ZM6.518 14.936A43.99 43.99 0 0 0 6.5 16.62v6.76c0 1.033.002 1.694.054 2.201.05.473.132.68.22.823.088.142.236.309.637.564.43.273 1.021.57 1.945 1.033l8.333 4.167c.316.157.583.29.811.4V20.926l-11.981-5.99ZM21.5 32.566c.228-.11.495-.242.81-.4L30.644 28c.924-.462 1.515-.76 1.945-1.033.4-.255.55-.422.637-.564.088-.143.17-.35.22-.823.052-.507.054-1.168.054-2.201v-6.76c0-.715 0-1.252-.019-1.684L21.5 20.928v11.64Zm10.14-20.065c-.282-.145-.61-.31-.996-.503L27.5 10.427 15.854 16.25 20 18.323l11.64-5.82Z" clip-rule="evenodd"/></symbol><symbol fill="currentColor" viewBox="0 0 14 14" id="cancel" xmlns="http://www.w3.org/2000/svg"><path d="M11.454 3.288a.525.525 0 0 0-.742-.743L7 6.258 3.288 2.545a.525.525 0 0 0-.743.743L6.257 7l-3.712 3.712a.525.525 0 1 0 .743.743L7 7.743l3.712 3.712a.525.525 0 0 0 .742-.743L7.742 7l3.712-3.712Z"/></symbol><symbol fill="currentColor" viewBox="0 0 24 24" id="cart" xmlns="http://www.w3.org/2000/svg"><path d="M22.645 6.07a1.125 1.125 0 0 0-.895-.445H5.647l-.813-2.926a1.125 1.125 0 0 0-1.084-.824H1.875a1.125 1.125 0 0 0 0 2.25h1.02l3.216 11.577a2.634 2.634 0 0 0 2.53 1.923h9.265a2.633 2.633 0 0 0 2.532-1.923l2.402-8.651a1.125 1.125 0 0 0-.195-.982Zm-4.383 9.03a.374.374 0 0 1-.356.275H8.64a.375.375 0 0 1-.36-.275L6.271 7.875H20.27L18.262 15.1Zm-8.137 5.525a1.875 1.875 0 1 1-3.75 0 1.875 1.875 0 0 1 3.75 0Zm9.75 0a1.875 1.875 0 1 1-3.75 0 1.875 1.875 0 0 1 3.75 0Z"/></symbol><symbol fill="currentColor" viewBox="0 0 24 24" id="cart-stroke-thin" xmlns="http://www.w3.org/2000/svg"><path d="M9.75 20.25a1.5 1.5 0 1 1-3 0 1.5 1.5 0 0 1 3 0Zm8.25-1.5a1.5 1.5 0 1 0 0 3 1.5 1.5 0 0 0 0-3Zm4.473-11.8-2.404 8.652a2.256 2.256 0 0 1-2.163 1.648H8.64a2.255 2.255 0 0 1-2.171-1.648L3.18 3.75H1.5a.75.75 0 0 1 0-1.5h2.25a.75.75 0 0 1 .723.55L5.362 6H21.75a.75.75 0 0 1 .723.95Zm-1.71.55H5.779l2.138 7.7a.75.75 0 0 0 .723.55h9.266a.75.75 0 0 0 .723-.55l2.134-7.7Z"/></symbol><symbol fill="currentColor" viewBox="0 0 24 24" id="catalog" xmlns="http://www.w3.org/2000/svg"><path fill-rule="evenodd" d="M10.1 9a5.9 5.9 0 1 1 8.902 5.08l1.834 4.586a.9.9 0 1 1-1.672.668L17.33 14.75A5.9 5.9 0 0 1 10.1 9ZM16 4.9a4.1 4.1 0 1 0 0 8.2 4.1 4.1 0 0 0 0-8.2Z" clip-rule="evenodd"/><path d="M2.1 12a.9.9 0 0 1 .9-.9h4a.9.9 0 1 1 0 1.8H3a.9.9 0 0 1-.9-.9Zm0-6a.9.9 0 0 1 .9-.9h4a.9.9 0 0 1 0 1.8H3a.9.9 0 0 1-.9-.9ZM3 17.1a.9.9 0 1 0 0 1.8h10a.9.9 0 0 0 0-1.8H3Z"/><path d="m19.002 14.08-.128-.214-.184.109.08.199.232-.093Zm1.834 4.586.232-.093-.233.093Zm-.502 1.17-.093-.232.093.232Zm-1.17-.502-.232.093.232-.093ZM17.33 14.75l.233-.092-.08-.2-.209.049.056.243ZM3 5.1v-.25.25Zm4 0v.25-.25Zm0 1.8v.25-.25Zm-4 0v-.25.25ZM11.9 9h.25A3.85 3.85 0 0 1 16 5.15v-.5A4.35 4.35 0 0 0 11.65 9h.25Zm4.1 4.1v-.25A3.85 3.85 0 0 1 12.15 9h-.5A4.35 4.35 0 0 0 16 13.35v-.25ZM20.1 9h-.25A3.85 3.85 0 0 1 16 12.85v.5A4.35 4.35 0 0 0 20.35 9h-.25ZM16 4.9v.25A3.85 3.85 0 0 1 19.85 9h.5A4.35 4.35 0 0 0 16 4.65v.25Zm0-1.8v-.25A6.15 6.15 0 0 0 9.85 9h.5A5.65 5.65 0 0 1 16 3.35V3.1ZM21.9 9h.25A6.15 6.15 0 0 0 16 2.85v.5A5.65 5.65 0 0 1 21.65 9h.25Zm-2.898 5.08.127.216A6.147 6.147 0 0 0 22.15 9h-.5a5.647 5.647 0 0 1-2.776 4.866l.128.215Zm1.834 4.586.232-.093-1.834-4.585-.233.093-.232.093 1.834 4.585.232-.093Zm-.502 1.17.093.232a1.15 1.15 0 0 0 .64-1.495l-.232.093-.232.093a.65.65 0 0 1-.362.845l.093.232Zm-1.17-.502-.232.093c.236.59.905.877 1.495.64l-.093-.231-.093-.232a.65.65 0 0 1-.845-.363l-.232.093ZM17.33 14.75l-.232.093 1.834 4.585.232-.093.232-.093-1.834-4.584-.232.092ZM16 14.9v.25c.477 0 .94-.054 1.387-.157l-.057-.244-.056-.243A5.67 5.67 0 0 1 16 14.65v.25ZM10.1 9h-.25A6.15 6.15 0 0 0 16 15.15v-.5A5.65 5.65 0 0 1 10.35 9h-.25ZM3 11.1v-.25A1.15 1.15 0 0 0 1.85 12h.5a.65.65 0 0 1 .65-.65v-.25Zm4 0v-.25H3v.5h4v-.25Zm.9.9h.25A1.15 1.15 0 0 0 7 10.85v.5a.65.65 0 0 1 .65.65h.25Zm-.9.9v.25A1.15 1.15 0 0 0 8.15 12h-.5a.65.65 0 0 1-.65.65v.25Zm-4 0v.25h4v-.5H3v.25Zm-.9-.9h-.25c0 .635.515 1.15 1.15 1.15v-.5a.65.65 0 0 1-.65-.65H2.1ZM3 5.1v-.25A1.15 1.15 0 0 0 1.85 6h.5A.65.65 0 0 1 3 5.35V5.1Zm4 0v-.25H3v.5h4V5.1Zm.9.9h.25A1.15 1.15 0 0 0 7 4.85v.5a.65.65 0 0 1 .65.65h.25Zm-.9.9v.25A1.15 1.15 0 0 0 8.15 6h-.5a.65.65 0 0 1-.65.65v.25Zm-4 0v.25h4v-.5H3v.25ZM2.1 6h-.25c0 .635.515 1.15 1.15 1.15v-.5A.65.65 0 0 1 2.35 6H2.1Zm0 12h.25a.65.65 0 0 1 .65-.65v-.5A1.15 1.15 0 0 0 1.85 18h.25Zm.9.9v-.25a.65.65 0 0 1-.65-.65h-.5c0 .635.515 1.15 1.15 1.15v-.25Zm10 0v-.25H3v.5h10v-.25Zm.9-.9h-.25a.65.65 0 0 1-.65.65v.5A1.15 1.15 0 0 0 14.15 18h-.25Zm-.9-.9v.25a.65.65 0 0 1 .65.65h.5A1.15 1.15 0 0 0 13 16.85v.25Zm-10 0v.25h10v-.5H3v.25Z"/></symbol><symbol fill="currentColor" viewBox="0 0 20 20" id="check" xmlns="http://www.w3.org/2000/svg"><path fill-rule="evenodd" d="M16.364 6.136a.75.75 0 0 1 0 1.061l-7.5 7.5a.75.75 0 0 1-1.06 0L3.636 10.53a.75.75 0 0 1 1.06-1.06l3.637 3.636 6.97-6.97a.75.75 0 0 1 1.06 0Z" clip-rule="evenodd"/></symbol><symbol fill="currentColor" viewBox="0 0 16 16" id="check-circle-fill" xmlns="http://www.w3.org/2000/svg"><path fill-rule="evenodd" d="M1.4 8a6.6 6.6 0 1 1 13.2 0A6.6 6.6 0 0 1 1.4 8Zm10.024-1.242a.6.6 0 0 0-.848-.849L7 9.485l-1.91-1.91a.6.6 0 0 0-.848.85l2.334 2.333a.6.6 0 0 0 .848 0l4-4Z" clip-rule="evenodd"/></symbol><symbol fill="currentColor" viewBox="0 0 18 18" id="chevron-down" xmlns="http://www.w3.org/2000/svg"><path fill-rule="evenodd" d="M4.023 6.273a.675.675 0 0 1 .954 0L9 10.295l4.023-4.022a.675.675 0 0 1 .954.954l-4.5 4.5a.675.675 0 0 1-.954 0l-4.5-4.5a.675.675 0 0 1 0-.954Z" clip-rule="evenodd"/></symbol><symbol fill="none" viewBox="0 0 20 20" id="chevron-left" xmlns="http://www.w3.org/2000/svg"><path fill-rule="evenodd" clip-rule="evenodd" d="M13.03 4.47a.75.75 0 0 1 0 1.06L8.56 10l4.47 4.47a.75.75 0 1 1-1.06 1.06l-5-5a.75.75 0 0 1 0-1.06l5-5a.75.75 0 0 1 1.06 0Z" fill="currentColor"/></symbol><symbol fill="none" viewBox="0 0 20 20" id="chevron-right" xmlns="http://www.w3.org/2000/svg"><path fill-rule="evenodd" clip-rule="evenodd" d="M6.97 4.47a.75.75 0 0 1 1.06 0l5 5a.75.75 0 0 1 0 1.06l-5 5a.75.75 0 0 1-1.06-1.06L11.44 10 6.97 5.53a.75.75 0 0 1 0-1.06Z" fill="currentColor"/></symbol><symbol fill="currentColor" viewBox="0 0 24 24" id="chevron-up" xmlns="http://www.w3.org/2000/svg"><path fill-rule="evenodd" d="M11.364 8.364a.9.9 0 0 1 1.272 0l6 6a.9.9 0 0 1-1.272 1.272L12 10.273l-5.364 5.363a.9.9 0 0 1-1.272-1.272l6-6Z" clip-rule="evenodd"/></symbol><symbol fill="currentColor" viewBox="0 0 20 20" id="coat-hanger" xmlns="http://www.w3.org/2000/svg"><path d="m19.063 13.125-7.5-5.625 1.5-1.125a.938.938 0 0 0 .374-.75 3.437 3.437 0 0 0-6.848-.428.938.938 0 0 0 1.861.234 1.562 1.562 0 0 1 3.054-.228l-2.05 1.535a.535.535 0 0 0-.034.025L.938 13.125a1.563 1.563 0 0 0 .937 2.813h16.25a1.562 1.562 0 0 0 .938-2.813Zm-16.25.938L10 8.671l7.188 5.39H2.813Z"/></symbol><symbol fill="currentColor" viewBox="0 0 24 24" id="copy" xmlns="http://www.w3.org/2000/svg"><path d="M17 3.9c.968 0 1.604.002 2.075.065.444.06.605.16.703.257.098.098.197.259.257.703.063.471.065 1.107.065 2.075v6a1.1 1.1 0 0 1-1.089 1.1H18a.9.9 0 1 0 0 1.8h1a2.9 2.9 0 0 0 2.9-2.9V6.94c0-.892 0-1.65-.081-2.254-.087-.645-.28-1.249-.768-1.737s-1.092-.681-1.737-.768C18.71 2.1 17.952 2.1 17.06 2.1H11a2.9 2.9 0 0 0-2.9 2.899V6a.9.9 0 0 0 1.8 0V5A1.1 1.1 0 0 1 11 3.9h6Z"/><path fill-rule="evenodd" d="M6.94 8.1c-.892 0-1.65 0-2.254.081-.645.087-1.249.28-1.737.768s-.681 1.092-.768 1.736C2.1 11.29 2.1 12.048 2.1 12.94v4.12c0 .892 0 1.65.081 2.254.087.645.28 1.249.768 1.737s1.092.681 1.737.768c.604.081 1.362.081 2.253.081h4.121c.892 0 1.65 0 2.254-.081.645-.087 1.249-.28 1.737-.768s.681-1.092.768-1.737c.081-.604.081-1.362.081-2.253V12.94c0-.892 0-1.65-.081-2.255-.087-.644-.28-1.248-.768-1.736s-1.092-.681-1.737-.768C12.71 8.1 11.952 8.1 11.06 8.1H6.94Zm-2.718 2.122c.098-.098.259-.197.703-.257C5.396 9.902 6.032 9.9 7 9.9h4c.968 0 1.604.002 2.075.065.444.06.605.16.703.257.098.098.197.258.257.703.063.471.065 1.107.065 2.075v4c0 .968-.002 1.604-.065 2.075-.06.444-.16.605-.257.703-.098.098-.259.197-.703.257-.471.063-1.107.065-2.075.065H7c-.968 0-1.604-.002-2.075-.065-.444-.06-.605-.16-.703-.257-.098-.098-.197-.259-.257-.703C3.902 18.604 3.9 17.968 3.9 17v-4c0-.968.002-1.604.065-2.075.06-.445.16-.605.257-.703Z" clip-rule="evenodd"/></symbol><symbol fill="currentColor" viewBox="0 0 20 20" id="delete" xmlns="http://www.w3.org/2000/svg"><path d="M7.583 14.167v-5a.75.75 0 1 1 1.5 0v5a.75.75 0 0 1-1.5 0Zm4.834-5a.75.75 0 0 0-1.5 0v5a.75.75 0 0 0 1.5 0v-5Z"/><path fill-rule="evenodd" d="M9.95 1.75h.1c.743 0 1.375 0 1.879.068.537.072 1.04.233 1.446.64.407.406.568.91.64 1.447.046.337.06.732.066 1.178h2.586a.75.75 0 0 1 0 1.5h-.917v7.634c0 .743 0 1.374-.068 1.878-.072.537-.233 1.04-.64 1.447-.407.407-.91.568-1.447.64-.504.068-1.135.068-1.878.068H8.283c-.743 0-1.374 0-1.878-.068-.537-.072-1.04-.233-1.447-.64-.407-.407-.568-.91-.64-1.447-.068-.504-.068-1.135-.068-1.878V6.583h-.917a.75.75 0 1 1 0-1.5H5.92c.005-.446.02-.841.065-1.178.072-.537.234-1.04.64-1.447.407-.407.91-.568 1.447-.64.504-.068 1.136-.068 1.879-.068Zm2.63 3.333a8.38 8.38 0 0 0-.051-.979c-.05-.37-.133-.504-.214-.586-.082-.081-.215-.164-.586-.214-.393-.052-.922-.054-1.73-.054-.806 0-1.336.002-1.728.054-.37.05-.504.133-.586.214-.081.082-.164.216-.214.586a8.368 8.368 0 0 0-.052.98h5.162Zm-6.83 1.5v7.584c0 .806.002 1.336.054 1.729.05.37.133.504.214.585.082.082.216.165.586.215.393.052.922.054 1.73.054h3.333c.806 0 1.336-.002 1.728-.054.371-.05.505-.133.586-.215.082-.081.165-.215.215-.586.052-.392.054-.921.054-1.728V6.583h-8.5Z" clip-rule="evenodd"/></symbol><symbol fill="currentColor" viewBox="0 0 20 20" id="dismiss-fill" xmlns="http://www.w3.org/2000/svg"><path d="M10 1.75a8.25 8.25 0 1 1 0 16.501 8.25 8.25 0 0 1 0-16.5Zm3.863 4.386a.75.75 0 0 0-1.06 0L10 8.94 7.196 6.136a.75.75 0 0 0-1.06 1.06L8.938 10l-2.802 2.803a.75.75 0 0 0 1.06 1.06L10 11.062l2.803 2.803a.75.75 0 1 0 1.06-1.06L11.06 10l2.803-2.803a.75.75 0 0 0 0-1.06Z"/></symbol><symbol fill="none" viewBox="0 0 100 40" id="dolyami" xmlns="http://www.w3.org/2000/svg"><g clip-path="url(#aua)"><mask id="aub" style="mask-type:luminance" maskUnits="userSpaceOnUse" x="74" y="8" width="26" height="25"><path d="M100 8H74v25h26V8Z" fill="#fff"/></mask><g mask="url(#aub)"><path d="M100 8h-3.355v20.755H100V8Zm-22.645 4.245H74V33h3.355V12.245Zm7.548-1.415h-3.356v20.755h3.356V10.83Zm7.548-1.415h-3.355V30.17h3.355V9.415Z" fill="#000"/></g></g><defs><clipPath id="aua"><path fill="#fff" transform="translate(74 8)" d="M0 0h26v25H0z"/></clipPath></defs></symbol><symbol fill="currentColor" viewBox="0 0 16 16" id="error-circle-fill" xmlns="http://www.w3.org/2000/svg"><path fill-rule="evenodd" d="M8 1.4a6.6 6.6 0 1 0 0 13.2A6.6 6.6 0 0 0 8 1.4Zm0 2.666a.6.6 0 0 1 .6.6V8a.6.6 0 0 1-1.2 0V4.667a.6.6 0 0 1 .6-.6Zm0 5.667a.934.934 0 1 1 0 1.868.934.934 0 0 1 0-1.868Z" clip-rule="evenodd"/></symbol><symbol fill="currentColor" viewBox="0 0 24 24" id="export" xmlns="http://www.w3.org/2000/svg"><path d="M20.625 10.5v9a1.875 1.875 0 0 1-1.875 1.875H5.25A1.875 1.875 0 0 1 3.375 19.5v-9A1.875 1.875 0 0 1 5.25 8.625h1.875a1.125 1.125 0 0 1 0 2.25h-1.5v8.25h12.75v-8.25h-1.5a1.125 1.125 0 1 1 0-2.25h1.875a1.875 1.875 0 0 1 1.875 1.875ZM9.045 6.796l1.83-1.827v7.78a1.125 1.125 0 1 0 2.25 0V4.97l1.83 1.83a1.126 1.126 0 0 0 1.923-.797 1.128 1.128 0 0 0-.33-.797l-3.75-3.75a1.125 1.125 0 0 0-1.594 0l-3.75 3.75A1.127 1.127 0 0 0 9.048 6.8l-.002-.003Z"/></symbol><symbol fill="currentColor" viewBox="0 0 24 24" id="eye-close" xmlns="http://www.w3.org/2000/svg"><path d="M21.694 10.572a.9.9 0 0 0-1.388-1.145 13.239 13.239 0 0 1-.352.409 12.523 12.523 0 0 1-2.446 2.096 10.38 10.38 0 0 1-3.721 1.502 9.687 9.687 0 0 1-3.614-.008 10.392 10.392 0 0 1-3.68-1.495 12.464 12.464 0 0 1-2.799-2.504.9.9 0 0 0-1.388 1.146 14.175 14.175 0 0 0 2.382 2.287l-.882 1.067a.9.9 0 1 0 1.388 1.146l1.005-1.216a12.163 12.163 0 0 0 2.725 1.123l-.301 1.32a.9.9 0 1 0 1.754.4l.314-1.374a11.515 11.515 0 0 0 2.618 0l.314 1.374a.9.9 0 1 0 1.754-.4l-.3-1.32a12.17 12.17 0 0 0 2.725-1.122l1.004 1.215a.9.9 0 1 0 1.388-1.146l-.881-1.067.13-.1a14.24 14.24 0 0 0 2.251-2.188Z"/></symbol><symbol fill="currentColor" viewBox="0 0 24 24" id="eye-fill" xmlns="http://www.w3.org/2000/svg"><path d="M10.515 10.515a2.1 2.1 0 1 1 2.97 2.969 2.1 2.1 0 0 1-2.97-2.969Z"/><path fill-rule="evenodd" d="M12 5.1c3.565 0 6.956 2.263 9.746 6.396a.9.9 0 0 1 0 1.008C18.956 16.637 15.566 18.9 12 18.9c-3.565 0-6.956-2.263-9.746-6.396a.9.9 0 0 1 0-1.008C5.044 7.363 8.434 5.1 12 5.1Zm0 3a3.9 3.9 0 1 0 0 7.8 3.9 3.9 0 0 0 0-7.8Z" clip-rule="evenodd"/></symbol><symbol fill="currentColor" viewBox="0 0 24 24" id="female" xmlns="http://www.w3.org/2000/svg"><path d="M8.9 7c0-1.93 1.521-3.1 3.1-3.1 1.578 0 3.1 1.17 3.1 3.1 0 1.844.395 3.66 1.148 5.743a9.18 9.18 0 0 0-1.089.276c-.424.137-.882.328-1.252.592-.35.25-.807.703-.807 1.389 0 .348.128.646.266.868.139.226.32.428.506.605.373.353.857.69 1.352.986a16.587 16.587 0 0 0 2.991 1.395c.76.253 1.19.45 1.46.72.22.22.425.585.425 1.426a.9.9 0 0 0 1.8 0c0-1.16-.296-2.044-.951-2.699-.606-.605-1.424-.908-2.165-1.155a14.825 14.825 0 0 1-2.634-1.23c-.442-.266-.802-.524-1.039-.749a2.088 2.088 0 0 1-.117-.12c.159-.102.404-.213.72-.316.696-.225 1.477-.331 1.786-.331a.9.9 0 0 0 .835-1.234C17.357 10.72 16.9 8.84 16.9 7c0-3.07-2.479-4.9-4.9-4.9-2.422 0-4.9 1.83-4.9 4.9 0 1.84-.458 3.72-1.436 6.166A.9.9 0 0 0 6.5 14.4c.308 0 1.09.106 1.784.331.317.103.562.214.721.317a2.08 2.08 0 0 1-.117.12c-.237.224-.597.482-1.039.748a14.825 14.825 0 0 1-2.634 1.23c-.74.247-1.56.55-2.164 1.155-.655.655-.951 1.54-.951 2.699a.9.9 0 0 0 1.8 0c0-.84.204-1.206.424-1.426.27-.27.7-.467 1.46-.72a16.584 16.584 0 0 0 2.991-1.395c.495-.297.98-.633 1.352-.986.186-.177.367-.38.507-.605A1.66 1.66 0 0 0 10.9 15c0-.686-.458-1.14-.808-1.39-.37-.263-.828-.454-1.252-.591a9.186 9.186 0 0 0-1.089-.276C8.504 10.66 8.9 8.844 8.9 7Z"/></symbol><symbol fill="currentColor" viewBox="0 0 20 20" id="filter" xmlns="http://www.w3.org/2000/svg"><path fill-rule="evenodd" d="M6.667 9.083a3.251 3.251 0 0 1-3.163-2.5H2.5a.75.75 0 0 1 0-1.5h1.004a3.251 3.251 0 0 1 6.326 0h7.67a.75.75 0 0 1 0 1.5H9.83a3.251 3.251 0 0 1-3.163 2.5Zm0-1.5a1.75 1.75 0 1 0 0-3.5 1.75 1.75 0 0 0 0 3.5Zm3.503 5.834a3.251 3.251 0 0 1 6.326 0H17.5a.75.75 0 0 1 0 1.5h-1.004a3.251 3.251 0 0 1-6.326 0H2.5a.75.75 0 0 1 0-1.5h7.67Zm4.913.75a1.75 1.75 0 1 1-3.5 0 1.75 1.75 0 0 1 3.5 0Z" clip-rule="evenodd"/></symbol><symbol fill="currentColor" viewBox="0 0 24 24" id="fire" xmlns="http://www.w3.org/2000/svg"><path fill-rule="evenodd" d="M11.263 1.818a.9.9 0 0 1 .641.89 9.054 9.054 0 0 0 1.348 5.068 7.11 7.11 0 0 0 1.246-1.91.9.9 0 0 1 1.564-.147c.191.278.38.548.563.812C18.505 9.232 19.9 11.235 19.9 14a7.883 7.883 0 0 1-2.628 5.884A7.874 7.874 0 0 1 12 21.9a7.874 7.874 0 0 1-5.273-2.016A7.883 7.883 0 0 1 4.1 14c0-2.019.73-3.6 1.833-5.334.432-.68.935-1.405 1.483-2.194l.437-.63a77.563 77.563 0 0 0 2.384-3.632.9.9 0 0 1 1.026-.392ZM7.453 9.63C6.424 11.248 5.9 12.481 5.9 14a6.07 6.07 0 0 0 1.228 3.672A5.893 5.893 0 0 1 12 15.1c2.024 0 3.81 1.02 4.872 2.572A6.07 6.07 0 0 0 18.1 14c0-2.043-.93-3.51-2.694-6.064a8.945 8.945 0 0 1-1.715 1.907.9.9 0 0 1-1.285-.138 10.86 10.86 0 0 1-2.05-4.344 106.31 106.31 0 0 1-1.023 1.504l-.45.65a64.59 64.59 0 0 0-1.43 2.116Zm8.102 9.326A4.099 4.099 0 0 0 12 16.9c-1.52 0-2.848.827-3.556 2.057A6.069 6.069 0 0 0 12 20.1a6.069 6.069 0 0 0 3.555-1.143Z" clip-rule="evenodd"/></symbol><symbol fill="currentColor" viewBox="0 0 24 24" id="gear" xmlns="http://www.w3.org/2000/svg"><path fill-rule="evenodd" d="M12 7.6a4.4 4.4 0 1 0 0 8.8 4.4 4.4 0 0 0 0-8.8ZM9.4 12a2.6 2.6 0 1 1 5.2 0 2.6 2.6 0 0 1-5.2 0Z" clip-rule="evenodd"/><path fill-rule="evenodd" d="m16.007 1.86-.027-.01a4.601 4.601 0 0 0-.459-.164 1.391 1.391 0 0 0-.716-.019c-.329.083-.555.294-.675.415-.127.127-.27.295-.413.466l-.02.023c-.858 1.014-2.537 1.014-3.395 0l-.02-.023c-.144-.17-.286-.339-.413-.466-.12-.12-.346-.332-.675-.415a1.391 1.391 0 0 0-.716.02 4.555 4.555 0 0 0-.459.162l-.027.01a10.89 10.89 0 0 0-2.77 1.603L5.2 3.48a4.358 4.358 0 0 0-.37.316 1.392 1.392 0 0 0-.374.61c-.093.326-.023.627.02.791.047.174.122.38.197.591l.01.029c.449 1.25-.39 2.702-1.696 2.938l-.03.005c-.22.04-.437.08-.611.126-.164.044-.46.134-.697.378a1.382 1.382 0 0 0-.34.63c-.041.152-.067.33-.089.48l-.004.028a10.982 10.982 0 0 0 0 3.195l.004.029c.022.15.048.327.088.479.048.182.137.419.341.63.236.244.533.334.697.378.174.047.39.086.61.126l.03.005c1.307.236 2.146 1.689 1.697 2.938l-.01.029c-.075.21-.15.417-.196.59-.044.165-.114.466-.021.792.08.282.24.477.374.61.111.11.251.222.37.316l.022.018a10.89 10.89 0 0 0 2.77 1.602l.027.01c.141.056.307.122.46.164.181.05.43.09.715.019.33-.083.555-.294.675-.415.127-.127.27-.295.414-.466l.02-.023c.857-1.014 2.536-1.014 3.394 0l.02.023c.144.17.286.339.413.466.12.12.346.332.675.415.285.071.534.03.716-.02.152-.04.318-.107.459-.162l.027-.01a10.89 10.89 0 0 0 2.77-1.603l.023-.018a4.56 4.56 0 0 0 .37-.316 1.39 1.39 0 0 0 .373-.61c.093-.326.023-.627-.02-.791-.047-.174-.122-.38-.197-.59l-.01-.03c-.448-1.25.39-2.702 1.697-2.938l.03-.005c.22-.04.437-.08.61-.126.165-.044.461-.134.697-.378a1.39 1.39 0 0 0 .341-.63c.04-.152.066-.33.088-.48l.004-.028a10.982 10.982 0 0 0 0-3.195l-.004-.029a4.61 4.61 0 0 0-.088-.479 1.39 1.39 0 0 0-.34-.63c-.237-.244-.533-.334-.697-.378a8.093 8.093 0 0 0-.611-.126l-.03-.005c-1.307-.236-2.145-1.689-1.697-2.938l.01-.029c.075-.21.15-.417.196-.59.044-.165.114-.466.021-.792a1.39 1.39 0 0 0-.373-.61 4.916 4.916 0 0 0-.37-.316l-.023-.018a10.89 10.89 0 0 0-2.77-1.602Zm-.936 1.874.196-.23.078.03a9.09 9.09 0 0 1 2.312 1.337l.066.053-.101.285c-.824 2.297.67 4.883 3.07 5.317l.298.055.012.083a9.18 9.18 0 0 1 0 2.671l-.012.083-.298.055c-2.4.434-3.894 3.02-3.07 5.317l.1.285-.065.053a9.086 9.086 0 0 1-2.312 1.337l-.078.03a22.91 22.91 0 0 1-.196-.23c-1.577-1.864-4.566-1.864-6.143 0-.078.092-.14.167-.196.23l-.078-.03a9.086 9.086 0 0 1-2.312-1.337l-.065-.053c.027-.08.06-.172.1-.285.824-2.296-.67-4.883-3.07-5.317a21.979 21.979 0 0 1-.298-.055l-.012-.083a9.182 9.182 0 0 1 0-2.671l.012-.083.298-.055c2.4-.434 3.894-3.02 3.07-5.317l-.1-.285.065-.053a9.09 9.09 0 0 1 2.312-1.337l.078-.03.196.23c1.577 1.864 4.566 1.864 6.143 0Z" clip-rule="evenodd"/></symbol><symbol fill="currentColor" viewBox="0 0 20 20" id="gender-female" xmlns="http://www.w3.org/2000/svg"><path d="M16.563 7.5a6.563 6.563 0 1 0-7.5 6.495v1.318H6.874a.937.937 0 1 0 0 1.875h2.188v1.562a.937.937 0 0 0 1.874 0v-1.562h2.188a.938.938 0 0 0 0-1.875h-2.188v-1.318A6.572 6.572 0 0 0 16.564 7.5Zm-11.25 0a4.687 4.687 0 1 1 9.374 0 4.687 4.687 0 0 1-9.374 0Z"/></symbol><symbol fill="currentColor" viewBox="0 0 20 20" id="gender-male" xmlns="http://www.w3.org/2000/svg"><path d="M16.875 2.188h-3.75a.937.937 0 0 0 0 1.874h1.485L12.054 6.62a6.563 6.563 0 1 0 1.328 1.328l2.556-2.557v1.484a.938.938 0 0 0 1.875 0v-3.75a.937.937 0 0 0-.938-.938ZM11.44 15.191a4.687 4.687 0 1 1 0-6.63 4.695 4.695 0 0 1 0 6.63Z"/></symbol><symbol fill="currentColor" viewBox="0 0 24 24" id="glob" xmlns="http://www.w3.org/2000/svg"><path d="M12 2.25A9.75 9.75 0 1 0 21.75 12 9.76 9.76 0 0 0 12 2.25Zm0 1.5a8.203 8.203 0 0 1 4.5 1.339v1.848l-2.078 2.414-2.95.399-.03-.02-1.844-1.206a1.5 1.5 0 0 0-2.11.392L5.525 11.85a1.5 1.5 0 0 0-.253.826l-.022 3.397-.307.201A8.25 8.25 0 0 1 12 3.75ZM5.84 17.482l.236-.155a1.5 1.5 0 0 0 .674-1.246l.02-3.397L8.735 9.75l.03.02 1.844 1.207c.309.218.689.311 1.064.26l2.952-.4a1.5 1.5 0 0 0 .938-.508l2.078-2.415A1.5 1.5 0 0 0 18 6.938v-.594a8.238 8.238 0 0 1 1.853 8.187l-1.513-1.383a1.5 1.5 0 0 0-1.587-.282l-2.855 1.186a1.508 1.508 0 0 0-.908 1.167l-.224 1.518a1.5 1.5 0 0 0 1.103 1.67l2.012.53.221.223A8.239 8.239 0 0 1 5.84 17.482Zm11.504.8-.403-.405a1.5 1.5 0 0 0-.681-.392l-2.01-.53.224-1.518 2.855-1.187 1.89 1.732a8.291 8.291 0 0 1-1.875 2.3Z"/></symbol><symbol fill="currentColor" viewBox="0 0 24 24" id="heart" xmlns="http://www.w3.org/2000/svg"><path d="M16.688 3.375c-1.884 0-3.555.743-4.688 2.021-1.133-1.278-2.804-2.021-4.688-2.021a6.195 6.195 0 0 0-6.187 6.188c0 6.781 9.92 12.2 10.342 12.428a1.125 1.125 0 0 0 1.066 0c.422-.228 10.342-5.647 10.342-12.428a6.195 6.195 0 0 0-6.188-6.188Zm-.515 13.346A30.82 30.82 0 0 1 12 19.703a30.82 30.82 0 0 1-4.173-2.982c-2.031-1.743-4.452-4.4-4.452-7.159a3.937 3.937 0 0 1 3.938-3.937c1.668 0 3.065.881 3.645 2.3a1.125 1.125 0 0 0 2.084 0c.58-1.419 1.977-2.3 3.646-2.3a3.937 3.937 0 0 1 3.937 3.938c0 2.758-2.42 5.415-4.452 7.158Z"/></symbol><symbol fill="currentColor" viewBox="0 0 24 24" id="heart-fill" xmlns="http://www.w3.org/2000/svg"><path d="M16.688 3.75c-1.936 0-3.631.832-4.688 2.24-1.057-1.408-2.752-2.24-4.688-2.24A5.82 5.82 0 0 0 1.5 9.563c0 6.562 9.73 11.874 10.145 12.093a.75.75 0 0 0 .71 0c.415-.22 10.145-5.531 10.145-12.093a5.819 5.819 0 0 0-5.813-5.813Z"/></symbol><symbol fill="currentColor" viewBox="0 0 24 24" id="home" xmlns="http://www.w3.org/2000/svg"><path fill-rule="evenodd" d="M11.32 5.044c-.377.288-.828.736-1.512 1.421l-3.829 3.829c-1.208 1.208-1.623 1.646-1.843 2.177-.22.531-.236 1.135-.236 2.843V17c0 .968.002 1.604.065 2.075.06.445.16.605.257.703.098.098.258.197.703.257.47.063 1.106.065 2.075.065 1.049 0 1.1-.027 1.1-1.1v-3.03c0-.686-.048-1.431.22-2.08a2.9 2.9 0 0 1 1.57-1.569c.312-.13.63-.177.954-.2.76-.052 1.55-.052 2.311 0 .325.023.643.07.955.2a2.9 2.9 0 0 1 1.569 1.57c.268.648.22 1.393.22 2.08V19c0 1.048.028 1.1 1.1 1.1.969 0 1.605-.003 2.075-.066.445-.06.606-.16.703-.257.098-.098.198-.258.258-.703.063-.47.065-1.107.065-2.075v-1.686c0-1.708-.016-2.312-.236-2.843-.22-.531-.636-.97-1.844-2.178l-3.828-3.828c-.685-.685-1.136-1.133-1.513-1.42-.357-.273-.541-.316-.68-.316-.138 0-.321.043-.678.315ZM8.218 21.856c.372-.05.785-.17 1.126-.512.342-.342.462-.754.512-1.127.045-.333.045-.739.045-1.166v-3.05c0-.479 0-.793.017-1.034.03-.436.236-.807.662-.983.056-.023.155-.05.388-.067a15.35 15.35 0 0 1 2.066 0c.233.016.332.044.388.067.426.176.632.547.662.983.016.241.017.555.017 1.033v3.051c0 .428 0 .833.044 1.167.05.372.17.784.512 1.126.342.341.754.462 1.127.512.422.056.852.044 1.277.044.891 0 1.65 0 2.254-.081.645-.087 1.248-.28 1.736-.768s.682-1.092.768-1.736c.082-.605.082-1.363.082-2.254v-1.924c0-1.463 0-2.452-.373-3.355-.374-.903-1.074-1.602-2.109-2.636l-.125-.125-3.871-3.871c-.63-.63-1.166-1.167-1.652-1.537-.516-.394-1.08-.684-1.77-.684s-1.254.29-1.771.684c-.485.37-1.021.906-1.651 1.537L4.706 9.02l-.125.126c-1.035 1.034-1.734 1.733-2.108 2.636-.374.903-.374 1.892-.373 3.355v1.924c0 .89 0 1.649.081 2.254.087.644.28 1.248.768 1.736s1.092.681 1.736.768c.605.081 1.363.081 2.254.081.425 0 .855.012 1.278-.044Z" clip-rule="evenodd"/></symbol><symbol fill="currentColor" viewBox="0 0 24 24" id="info-circle" xmlns="http://www.w3.org/2000/svg"><path d="M10.6 8a1.4 1.4 0 1 1 2.8 0 1.4 1.4 0 0 1-2.8 0Z"/><path fill-rule="evenodd" d="M11 12.9h.29l-.844 2.813a5.675 5.675 0 0 0-.132.493 1.42 1.42 0 0 0 .022.714 1.4 1.4 0 0 0 .55.739c.247.167.505.21.677.226.157.015.34.015.51.015h.427a.9.9 0 0 0 0-1.8h-.29l.843-2.813c.049-.162.102-.339.133-.493a1.42 1.42 0 0 0-.023-.714 1.4 1.4 0 0 0-.55-.739 1.42 1.42 0 0 0-.677-.226 5.657 5.657 0 0 0-.51-.015H11a.9.9 0 0 0 0 1.8Z" clip-rule="evenodd"/><path fill-rule="evenodd" d="M12 2.1c-5.468 0-9.9 4.432-9.9 9.9s4.432 9.9 9.9 9.9c5.467 0 9.9-4.432 9.9-9.9S17.467 2.1 12 2.1ZM3.9 12a8.1 8.1 0 1 1 16.2 0 8.1 8.1 0 0 1-16.2 0Z" clip-rule="evenodd"/></symbol><symbol fill="currentColor" viewBox="0 0 16 16" id="info-circle-fill" xmlns="http://www.w3.org/2000/svg"><path fill-rule="evenodd" d="M1.4 8a6.6 6.6 0 1 1 13.2 0A6.6 6.6 0 0 1 1.4 8ZM8 4.4a.933.933 0 1 0 0 1.867A.933.933 0 0 0 8 4.4Zm-.473 4.2h-.194a.6.6 0 0 1 0-1.2h.285c.112 0 .235 0 .34.01.115.01.286.04.451.15a.933.933 0 0 1 .367.494c.06.19.037.362.015.475-.02.103-.056.22-.089.329l-.562 1.875h.193a.6.6 0 1 1 0 1.2H8.05c-.113 0-.236 0-.34-.01a.947.947 0 0 1-.452-.15.933.933 0 0 1-.366-.493.947.947 0 0 1-.015-.476c.02-.103.056-.22.088-.328L7.527 8.6Z" clip-rule="evenodd"/></symbol><symbol fill="currentColor" viewBox="0 0 24 24" id="instagram" xmlns="http://www.w3.org/2000/svg"><path d="M7.858 2.07c-1.064.05-1.79.22-2.425.47-.658.256-1.215.6-1.77 1.156a4.898 4.898 0 0 0-1.15 1.773c-.246.636-.413 1.363-.46 2.428-.047 1.065-.057 1.407-.052 4.122.005 2.716.017 3.056.069 4.123.05 1.064.22 1.79.47 2.426.256.657.6 1.214 1.156 1.769a4.894 4.894 0 0 0 1.774 1.15c.636.246 1.363.413 2.428.46 1.064.046 1.407.057 4.122.052 2.714-.005 3.056-.017 4.123-.068 1.066-.05 1.789-.22 2.425-.47a4.901 4.901 0 0 0 1.769-1.156 4.9 4.9 0 0 0 1.15-1.774c.246-.636.413-1.363.46-2.427.046-1.067.057-1.408.052-4.123-.006-2.715-.018-3.056-.068-4.122-.051-1.066-.22-1.79-.47-2.426a4.91 4.91 0 0 0-1.156-1.77 4.88 4.88 0 0 0-1.774-1.149c-.636-.246-1.363-.414-2.427-.46-1.065-.046-1.407-.058-4.123-.053-2.716.006-3.056.017-4.123.07Zm.117 18.078c-.975-.043-1.504-.205-1.857-.34-.467-.18-.8-.398-1.152-.746a3.08 3.08 0 0 1-.75-1.148c-.137-.353-.302-.882-.347-1.857-.05-1.054-.06-1.37-.066-4.04-.006-2.67.004-2.986.05-4.04.042-.974.205-1.504.34-1.857.18-.468.397-.8.746-1.151a3.087 3.087 0 0 1 1.149-.75c.352-.138.881-.302 1.856-.348 1.054-.05 1.37-.06 4.04-.066 2.67-.006 2.986.004 4.041.05.974.043 1.504.205 1.857.34.467.18.8.397 1.151.747s.568.681.75 1.149c.138.351.302.88.348 1.855.05 1.054.061 1.37.066 4.04.005 2.669-.004 2.986-.05 4.04-.043.975-.205 1.504-.34 1.858a3.1 3.1 0 0 1-.747 1.15 3.077 3.077 0 0 1-1.148.75c-.352.138-.882.302-1.856.349-1.054.05-1.37.06-4.04.065-2.671.006-2.986-.005-4.04-.05m8.151-13.492a1.2 1.2 0 1 0 2.4-.004 1.2 1.2 0 0 0-2.4.004M6.865 12.01a5.134 5.134 0 1 0 10.269-.02 5.134 5.134 0 0 0-10.269.02Zm1.802-.003a3.334 3.334 0 1 1 6.667-.014 3.334 3.334 0 0 1-6.667.014"/></symbol><symbol fill="currentColor" viewBox="0 0 24 24" id="key" xmlns="http://www.w3.org/2000/svg"><path d="M7 14c-.55 0-1.02-.196-1.412-.587A1.93 1.93 0 0 1 5 12c0-.55.196-1.02.588-1.412A1.931 1.931 0 0 1 7 10c.55 0 1.021.196 1.413.588.392.392.588.863.587 1.412a1.93 1.93 0 0 1-.587 1.413A1.92 1.92 0 0 1 7 14Zm0 4c-1.667 0-3.083-.583-4.25-1.75C1.583 15.083 1 13.667 1 12c0-1.667.583-3.083 1.75-4.25C3.917 6.583 5.333 6 7 6c1.117 0 2.13.275 3.038.825A6.202 6.202 0 0 1 12.2 9H21l3 3-4.5 4.5-2-1.5-2 1.5-2.125-1.5H12.2a6.213 6.213 0 0 1-2.162 2.175C9.13 17.725 8.118 18 7 18Zm0-2c.933 0 1.754-.283 2.463-.85A4.026 4.026 0 0 0 10.875 13H14l1.45 1.025L17.5 12.5l1.775 1.375L21.15 12l-1-1h-9.275a4.033 4.033 0 0 0-1.412-2.15C8.755 8.283 7.934 8 7 8c-1.1 0-2.042.392-2.825 1.175C3.392 9.958 3 10.9 3 12s.392 2.042 1.175 2.825C4.958 15.608 5.9 16 7 16Z"/></symbol><symbol fill="currentColor" viewBox="0 0 24 24" id="like" xmlns="http://www.w3.org/2000/svg"><path fill-rule="evenodd" d="M5.772 2.629c2.372-.62 4.418.195 5.981 1.723.096.093.176.172.247.239l.246-.24c1.563-1.527 3.609-2.342 5.981-1.722 3.038.794 4.673 3.541 4.673 6.37 0 2.898-1.362 5.329-3.123 7.239-1.76 1.908-3.969 3.358-5.815 4.323l-.096.05c-.613.322-1.15.604-1.866.604-.717 0-1.254-.282-1.867-.604a40.857 40.857 0 0 0-.096-.05c-1.846-.965-4.055-2.415-5.814-4.323C2.46 14.328 1.1 11.897 1.1 9c0-2.83 1.634-5.577 4.672-6.371Zm4.723 3.01C9.288 4.46 7.87 3.941 6.227 4.37 4.127 4.92 2.9 6.83 2.9 9c0 2.298 1.075 4.314 2.646 6.018 1.573 1.707 3.591 3.041 5.325 3.947.752.394.9.45 1.129.45.229 0 .377-.056 1.129-.45 1.733-.906 3.751-2.24 5.324-3.947C20.024 13.314 21.1 11.298 21.1 9c0-2.17-1.227-4.08-3.328-4.63-1.642-.43-3.061.09-4.268 1.27l-.027.026c-.2.195-.397.387-.57.526-.166.132-.481.36-.907.36-.427 0-.742-.228-.907-.36a8.225 8.225 0 0 1-.598-.553Z" clip-rule="evenodd"/></symbol><symbol fill="none" viewBox="0 0 129 34" id="logo-desktop" xmlns="http://www.w3.org/2000/svg"><path d="m33.465 23.721 7.217-8.813H52v3.908h-9.425L32.19 31.5l-6.789-17.865-5.887 15.496-7.256-11.78H0v-3.909h14.486l4.18 6.785L25.401 2.5l8.063 21.221Z" fill="#E1312F"/><path d="M59 0h1.11v34H59V0Z" fill="#C6CAD2"/><path d="m68.351 14.972 4.59-13.02h3.835l4.599 13.02H77.69l-.782-2.483H72.71l-.772 2.483h-3.587Zm5.078-5.329h2.744l-1.368-4.11-1.376 4.11Zm10.126 5.329v-9.29l-2.681.976-.852-2.678 6.303-2.306h.213v13.298h-2.983Z" fill="#00091A"/><path d="M68.351 32.047V19.028h7.174v1.005H69.38v4.798h5.61v1.004h-5.61v6.212h-1.03Zm15.366.279a6.34 6.34 0 0 1-2.548-.511 6.4 6.4 0 0 1-2.05-1.442 6.672 6.672 0 0 1-1.359-2.157 7.228 7.228 0 0 1-.488-2.678c0-.967.162-1.863.488-2.688a6.675 6.675 0 0 1 1.358-2.157 6.279 6.279 0 0 1 2.051-1.432 6.34 6.34 0 0 1 2.548-.512c.905 0 1.749.174 2.53.521.781.347 1.465.83 2.05 1.45a6.704 6.704 0 0 1 1.368 2.168c.331.818.497 1.701.497 2.65 0 .96-.166 1.853-.497 2.678a6.595 6.595 0 0 1-1.367 2.157 6.4 6.4 0 0 1-2.051 1.442 6.255 6.255 0 0 1-2.53.511Zm0-1.041a5.36 5.36 0 0 0 2.095-.41 5.166 5.166 0 0 0 1.713-1.162 5.475 5.475 0 0 0 1.154-1.823c.279-.706.418-1.49.418-2.352 0-1.153-.243-2.16-.728-3.022a5.206 5.206 0 0 0-1.944-2.01c-.811-.476-1.714-.715-2.708-.715-.746 0-1.444.136-2.095.41a5.097 5.097 0 0 0-1.714 1.17 5.37 5.37 0 0 0-1.154 1.814c-.278.7-.417 1.485-.417 2.353 0 1.153.24 2.16.72 3.022A5.29 5.29 0 0 0 81 30.569a5.291 5.291 0 0 0 2.717.716Zm8.858.762V19.028h4.35c.793 0 1.477.155 2.05.465.58.31 1.025.747 1.332 1.312.314.558.471 1.212.471 1.962 0 .657-.148 1.24-.444 1.748-.29.502-.707.911-1.252 1.227-.538.31-1.18.502-1.926.577l4.154 5.728h-1.314l-4.101-5.71h-2.29v5.71h-1.03Zm1.03-6.714h3.018c.988 0 1.755-.23 2.3-.688.55-.465.825-1.091.825-1.878 0-.819-.237-1.479-.71-1.981-.474-.502-1.208-.753-2.202-.753h-3.231v5.3Zm10.006 6.714V19.028h1.013l5.415 9.076h-.373l5.274-9.076h.958v13.02h-1.029v-11.42l.23.074-4.865 8.183h-.941l-4.882-8.183.142-.074v11.42h-.942Zm14.02 0 5.007-13.019h.888l5.22 13.02h-1.154l-1.421-3.572h-6.072l-1.349 3.571h-1.119Zm2.841-4.575h5.309l-2.734-6.844-2.575 6.844Z" fill="#9BA2B0"/></symbol><symbol fill="none" viewBox="0 0 42 42" id="logo-mobile" xmlns="http://www.w3.org/2000/svg"><path d="m27.03 26.563 5.828-7.294H42v3.234h-7.613L26 33l-5.484-14.785-4.755 12.825-5.86-9.75H0v-3.235h11.7l3.376 5.616L20.516 9l6.514 17.563Z" fill="#E1312F"/></symbol><symbol fill="currentColor" viewBox="0 0 24 24" id="logout" xmlns="http://www.w3.org/2000/svg"><path d="M10 21.9a.9.9 0 1 0 0-1.8H7c-.969 0-1.604-.002-2.075-.066-.445-.06-.605-.159-.703-.257-.098-.097-.197-.258-.257-.703-.063-.47-.065-1.106-.065-2.074V7c0-.969.002-1.604.065-2.075.06-.445.159-.605.257-.703.098-.098.258-.197.703-.257C5.395 3.902 6.031 3.9 7 3.9h3a.9.9 0 1 0 0-1.8H6.94c-.892 0-1.65 0-2.255.08-.644.087-1.248.281-1.736.769s-.681 1.092-.768 1.736C2.1 5.29 2.1 6.048 2.1 6.94v10.12c0 .891 0 1.65.08 2.254.088.645.281 1.248.769 1.736s1.092.682 1.736.768c.605.082 1.363.082 2.254.082H10Z"/><path d="M21.636 12.636a.9.9 0 0 0 0-1.273l-5-5a.9.9 0 0 0-1.273 1.273l3.464 3.464H9a.9.9 0 0 0 0 1.8h9.827l-3.464 3.463a.9.9 0 0 0 1.273 1.273l5-5Z"/></symbol><symbol fill="currentColor" viewBox="0 0 24 24" id="mail" xmlns="http://www.w3.org/2000/svg"><path fill-rule="evenodd" d="M6.94 4.1c-.892 0-1.65 0-2.255.08-.644.088-1.248.281-1.736.769s-.681 1.092-.768 1.736C2.1 7.29 2.1 8.048 2.1 8.94v6.121c0 .891 0 1.65.08 2.254.088.645.281 1.248.769 1.736s1.092.682 1.736.768c.605.082 1.363.082 2.254.082H17.06c.891 0 1.65 0 2.254-.082.645-.086 1.248-.28 1.736-.768s.682-1.091.768-1.736c.082-.605.082-1.363.082-2.254V8.94c0-.892 0-1.65-.082-2.255-.086-.644-.28-1.248-.768-1.736s-1.091-.681-1.736-.768C18.71 4.1 17.951 4.1 17.06 4.1H6.94ZM4.221 6.222c.098-.098.258-.197.703-.257C5.395 5.902 6.031 5.9 7 5.9h10c.968 0 1.604.002 2.074.065.445.06.606.159.703.257.098.098.198.258.257.703.037.274.053.603.06 1.021L13.386 11.3c-.959.48-1.177.564-1.386.564-.21 0-.428-.084-1.387-.564L3.905 7.946a8.99 8.99 0 0 1 .06-1.021c.06-.445.159-.605.257-.703ZM3.9 9.956V15c0 .968.002 1.604.065 2.074.06.445.159.606.257.703.098.098.258.198.703.257.47.064 1.106.066 2.075.066h10c.968 0 1.604-.002 2.074-.066.445-.06.606-.159.703-.257.098-.097.198-.258.257-.703.064-.47.066-1.106.066-2.074V9.956l-5.91 2.954-.143.072c-.734.368-1.358.682-2.048.682s-1.315-.314-2.049-.682l-.143-.072L3.9 9.956Z" clip-rule="evenodd"/></symbol><symbol fill="currentColor" viewBox="0 0 24 24" id="mail-fill" xmlns="http://www.w3.org/2000/svg"><path d="M6.94 4.1h10.12c.891 0 1.65 0 2.254.081.645.087 1.248.28 1.736.768s.682 1.092.768 1.737c.017.12.03.246.04.379L13.386 11.3c-.959.479-1.177.563-1.386.563-.21 0-.428-.084-1.387-.563L2.141 7.065c.01-.133.024-.26.04-.38.087-.644.28-1.248.768-1.736s1.092-.681 1.736-.768C5.29 4.1 6.048 4.1 6.94 4.1Z"/><path d="M2.1 9.056v6.005c0 .89 0 1.649.08 2.253.087.645.281 1.249.769 1.737s1.092.681 1.736.768c.605.081 1.363.081 2.254.081H17.06c.891 0 1.65 0 2.254-.081.645-.087 1.248-.28 1.736-.768s.682-1.092.768-1.737c.082-.604.082-1.362.082-2.254V9.056l-7.709 3.855-.143.071c-.734.369-1.358.682-2.048.682s-1.315-.313-2.049-.682l-.143-.071L2.1 9.056Z"/></symbol><symbol fill="currentColor" viewBox="0 0 24 24" id="male" xmlns="http://www.w3.org/2000/svg"><path d="M8.9 7c0-1.93 1.521-3.1 3.1-3.1 1.578 0 3.1 1.17 3.1 3.1 0 2.91-.025 5.215-1.803 7.438A.9.9 0 0 0 13.1 15c0 .348.128.646.266.868.139.226.32.428.506.605.373.353.857.69 1.352.986a16.587 16.587 0 0 0 2.991 1.395c.76.253 1.19.45 1.46.72.22.22.425.585.425 1.426a.9.9 0 0 0 1.8 0c0-1.16-.296-2.044-.951-2.699-.606-.605-1.424-.908-2.165-1.155a14.825 14.825 0 0 1-2.634-1.23c-.442-.266-.802-.524-1.039-.749a2.421 2.421 0 0 1-.064-.062C16.9 12.495 16.9 9.758 16.9 7.09V7c0-3.07-2.479-4.9-4.9-4.9-2.422 0-4.9 1.83-4.9 4.9v.091c0 2.667 0 5.403 1.852 8.014l-.064.062c-.237.225-.597.483-1.039.749a14.825 14.825 0 0 1-2.634 1.23c-.74.247-1.56.55-2.164 1.155-.655.655-.951 1.54-.951 2.699a.9.9 0 0 0 1.8 0c0-.84.204-1.206.424-1.426.27-.27.7-.467 1.46-.72a16.584 16.584 0 0 0 2.991-1.395c.495-.297.98-.633 1.352-.986.186-.177.367-.38.507-.605A1.66 1.66 0 0 0 10.9 15a.9.9 0 0 0-.198-.562C8.924 12.215 8.9 9.909 8.9 7Z"/></symbol><symbol fill="currentColor" viewBox="0 0 24 24" id="mark" xmlns="http://www.w3.org/2000/svg"><path d="M7.94 3.1c-.892 0-1.65 0-2.255.081-.644.087-1.248.28-1.736.768s-.681 1.092-.768 1.737C3.1 6.29 3.1 7.048 3.1 7.939V8.5a.9.9 0 0 0 1.8 0V8c0-.968.002-1.604.065-2.075.06-.444.159-.605.257-.703.098-.098.258-.197.703-.257C6.395 4.902 7.031 4.9 8 4.9h.5a.9.9 0 1 0 0-1.8h-.56ZM16 4.9c.968 0 1.604.002 2.074.065.445.06.606.16.703.257.098.098.198.259.257.703.064.471.066 1.107.066 2.075v.5a.9.9 0 0 0 1.8 0v-.56c0-.892 0-1.65-.082-2.254-.086-.645-.28-1.249-.768-1.737s-1.091-.681-1.736-.768C17.71 3.1 16.951 3.1 16.06 3.1h-.56a.9.9 0 0 0 0 1.8h.5ZM4.9 15.5a.9.9 0 1 0-1.8 0v.56c0 .892 0 1.65.08 2.254.088.645.281 1.249.769 1.737s1.092.681 1.736.768c.605.081 1.363.081 2.254.081H9a.9.9 0 0 0 0-1.8H8c-.968 0-1.603-.002-2.074-.065-.445-.06-.605-.16-.703-.257-.098-.098-.197-.259-.257-.703C4.902 17.604 4.9 16.968 4.9 16v-.5Zm16 0a.9.9 0 1 0-1.8 0v.5c0 .968-.002 1.604-.066 2.075-.06.444-.159.605-.257.703-.097.098-.258.197-.703.257-.47.063-1.106.065-2.074.065h-.5a.9.9 0 0 0 0 1.8h.56c.891 0 1.65 0 2.254-.081.645-.087 1.248-.28 1.736-.768s.682-1.092.768-1.737c.082-.605.082-1.362.082-2.253V15.5Zm-3.264-4.864a.9.9 0 1 0-1.273-1.272L11 14.727l-3.364-3.363a.9.9 0 1 0-1.273 1.272l4 4a.9.9 0 0 0 1.273 0l6-6Z"/></symbol><symbol fill="currentColor" viewBox="0 0 20 20" id="minus" xmlns="http://www.w3.org/2000/svg"><path fill-rule="evenodd" d="M3.417 10a.75.75 0 0 1 .75-.75h11.666a.75.75 0 0 1 0 1.5H4.167a.75.75 0 0 1-.75-.75Z" clip-rule="evenodd"/></symbol><symbol fill="none" viewBox="0 0 100 40" id="money-sent" xmlns="http://www.w3.org/2000/svg"><path fill-rule="evenodd" clip-rule="evenodd" d="M91.79 30.058c-.784.105-1.843.109-3.457.109h-15a1.5 1.5 0 0 0 0 3h15.101c1.485 0 2.749 0 3.757-.136 1.074-.144 2.08-.467 2.893-1.28.813-.813 1.136-1.82 1.28-2.894.136-1.008.136-2.271.136-3.756V14.899c0-1.485 0-2.748-.136-3.756-.144-1.075-.467-2.08-1.28-2.894-.813-.813-1.82-1.136-2.893-1.28-1.008-.136-2.272-.136-3.757-.136H71.566c-1.486 0-2.749 0-3.757.136-1.074.144-2.08.467-2.894 1.28-.813.813-1.135 1.82-1.28 2.893-.135 1.009-.135 2.272-.135 3.757v7.6a1.5 1.5 0 1 0 3 0v-4.332h27V25c0 1.614-.003 2.673-.109 3.458-.1.741-.265 1.009-.428 1.172-.163.163-.43.328-1.172.428ZM93.5 15v.166h-27V15c0-1.614.003-2.673.109-3.458.1-.741.265-1.009.428-1.172.163-.163.43-.328 1.172-.428.784-.106 1.844-.109 3.457-.109h16.667c1.614 0 2.673.003 3.458.109.741.1 1.009.265 1.172.428.163.163.329.43.428 1.172.106.785.109 1.844.109 3.458Z" fill="#000"/><path d="M71.894 26.894a1.5 1.5 0 1 0-2.122-2.121L65 29.544l-2.273-2.273a1.5 1.5 0 0 0-2.121 2.122l3.333 3.333a1.5 1.5 0 0 0 2.122 0l5.833-5.833Z" fill="#000"/></symbol><symbol fill="currentColor" viewBox="0 0 24 24" id="ok" xmlns="http://www.w3.org/2000/svg"><path d="M14.289 16.81a12.681 12.681 0 0 0 3.21-1.3 1.6 1.6 0 0 0 .4-2.2 1.71 1.71 0 0 0-2.2-.5 7.06 7.06 0 0 1-7.41 0 1.6 1.6 0 0 0-1.7 2.71 9.839 9.839 0 0 0 3.21 1.3l-3.12 3.1a1.7 1.7 0 0 0 0 2.3 1.61 1.61 0 0 0 1.1.5 1.61 1.61 0 0 0 1.1-.5l3.11-3 3 3a1.7 1.7 0 0 0 2.3 0 1.57 1.57 0 0 0 0-2.2c.1-.1-3-3.21-3-3.21Zm-2.29-4.51a5.491 5.491 0 0 0 5.5-5.51 5.51 5.51 0 0 0-11 0 5.56 5.56 0 0 0 5.5 5.51Zm0-7.92a2.27 2.27 0 0 1 2.3 2.3 2.305 2.305 0 0 1-4.61 0 2.4 2.4 0 0 1 2.31-2.29v-.01Z"/></symbol><symbol fill="currentColor" viewBox="0 0 24 24" id="overall" xmlns="http://www.w3.org/2000/svg"><path d="M7 1.094a.9.9 0 0 0-.486.142l-3.5 2.25a.9.9 0 0 0-.336 1.123l.736 1.657C2.028 7.599 1.1 9.296 1.1 10.994v7.5a.9.9 0 0 0 .9.9h2.6v1.1a.9.9 0 0 0 .697.877l6.357 1.467a.9.9 0 0 0 .684.002l6.365-1.469a.9.9 0 0 0 .697-.877v-1.1H22a.9.9 0 0 0 .9-.9v-7.5c0-1.698-.928-3.395-2.314-4.728l.736-1.657a.9.9 0 0 0-.336-1.123l-3.5-2.25A.9.9 0 0 0 17 1.094H7Zm.264 1.8h9.472l2.627 1.69-.25.562c-1.507-.87-3.002-1.044-3.002-1.044a.9.9 0 0 0-.742.25l-.006.005L12 7.721 8.637 4.357a.9.9 0 0 0-.748-.255s-1.494.173-3.002 1.044l-.25-.562 2.627-1.69Zm.453 3.09L11.1 9.367v11.496l-4.7-1.086v-1.133a.9.9 0 0 0 0-.29v-7.36a.9.9 0 1 0-1.8 0v6.6H2.9v-6.6c0-1.091.83-2.67 2.145-3.781a.892.892 0 0 0 .031-.027c1.01-.842 2.161-1.107 2.64-1.202Zm8.566 0c.48.095 1.631.36 2.64 1.202 1.335 1.111 2.177 2.708 2.177 3.808v6.6h-1.7v-6.6a.9.9 0 0 0-1.8 0v7.35a.9.9 0 0 0 0 .29v1.143l-4.7 1.086V9.367l3.383-3.383Z"/></symbol><symbol fill="currentColor" viewBox="0 0 24 24" id="palette" xmlns="http://www.w3.org/2000/svg"><path d="M11 7.5a1.5 1.5 0 1 1-3 0 1.5 1.5 0 0 1 3 0Zm-2.5 4a1.5 1.5 0 1 1-3 0 1.5 1.5 0 0 1 3 0Zm6-2.5a1.5 1.5 0 1 0 0-3 1.5 1.5 0 0 0 0 3Zm4 2.5a1.5 1.5 0 1 1-3 0 1.5 1.5 0 0 1 3 0Z"/><path fill-rule="evenodd" d="M12 2.1c-5.468 0-9.9 4.432-9.9 9.9s4.432 9.9 9.9 9.9a2.4 2.4 0 0 0 2.4-2.4c0-.746-.452-1.262-.677-1.518l-.042-.048c-.272-.315-.281-.375-.281-.434a.6.6 0 0 1 .6-.6h2c1.398 0 2.873-.263 4.016-1.13 1.19-.902 1.866-2.34 1.866-4.343C21.882 5.92 17.188 2.1 12 2.1ZM3.9 12A8.1 8.1 0 0 1 12 3.9c4.368 0 8.082 3.18 8.082 7.527 0 1.57-.507 2.418-1.154 2.91-.694.526-1.709.763-2.928.763h-2a2.4 2.4 0 0 0-2.4 2.4c0 .781.454 1.305.691 1.579l.027.031c.284.329.282.37.282.388v.002a.6.6 0 0 1-.6.6A8.1 8.1 0 0 1 3.9 12Z" clip-rule="evenodd"/></symbol><symbol fill="none" viewBox="0 0 100 40" id="pay-after" xmlns="http://www.w3.org/2000/svg"><path fill-rule="evenodd" clip-rule="evenodd" d="M80 3.894c-1.15 0-2.19.522-3.414 1.136l-8.635 4.318c-.842.42-1.574.786-2.15 1.153-.62.395-1.17.855-1.58 1.518-.409.663-.575 1.36-.65 2.091-.071.68-.071 1.498-.071 2.44v6.901c0 .942 0 1.76.07 2.44.076.73.242 1.427.652 2.09.41.663.958 1.123 1.579 1.518.576.367 1.308.733 2.15 1.154l8.635 4.318c1.223.614 2.264 1.136 3.414 1.136 1.15 0 2.19-.523 3.414-1.136l8.635-4.318c.842-.421 1.574-.787 2.15-1.154.62-.395 1.17-.855 1.58-1.518.409-.663.575-1.36.65-2.09.071-.68.071-1.498.071-2.44V16.55c0-.941 0-1.76-.07-2.439-.076-.731-.242-1.428-.652-2.09-.41-.664-.958-1.124-1.579-1.519-.576-.367-1.308-.732-2.15-1.153L83.414 5.03C82.191 4.416 81.15 3.894 80 3.894Zm-2.31 3.938c1.597-.798 1.96-.938 2.31-.938.35 0 .713.14 2.31.938l1.836.918L72.5 14.573l-4.14-2.07c.282-.146.61-.31.996-.504l8.333-4.167Zm-11.171 7.105c-.018.43-.019.968-.019 1.683v6.76c0 1.033.002 1.695.054 2.202.05.472.132.68.22.822.088.142.236.309.637.564.43.274 1.021.571 1.945 1.033l8.333 4.167c.316.157.583.29.811.4v-11.64l-11.981-5.991ZM81.5 32.567c.228-.11.496-.242.81-.4l8.334-4.166c.924-.462 1.515-.76 1.945-1.033.4-.255.55-.422.637-.564.088-.143.17-.35.22-.822.052-.508.054-1.169.054-2.202v-6.76c0-.715 0-1.252-.019-1.683L81.5 20.927v11.64Zm10.14-20.064c-.282-.146-.61-.31-.996-.504L87.5 10.427 75.854 16.25 80 18.323l11.64-5.82Z" fill="#000"/></symbol><symbol fill="currentColor" viewBox="0 0 24 24" id="percentage" xmlns="http://www.w3.org/2000/svg"><path d="M19 4a1.001 1.001 0 0 1 .707 1.707l-14 14a1.001 1.001 0 0 1-1.638-1.09 1 1 0 0 1 .224-.324l14-14A1 1 0 0 1 19 4Zm-2.758 9.242a3.004 3.004 0 0 1 3 3 3 3 0 1 1-3-3Zm-.195 2.019a1.004 1.004 0 0 0-.73 1.363 1.002 1.002 0 0 0 .925.618 1.001 1.001 0 1 0-.195-1.981ZM6.61 4.986a3 3 0 1 1 2.297 5.545A3 3 0 0 1 6.61 4.986Zm1.148 1.772a1 1 0 1 0 0 2 1 1 0 0 0 0-2Z"/></symbol><symbol fill="currentColor" viewBox="0 0 24 24" id="phone" xmlns="http://www.w3.org/2000/svg"><path fill-rule="evenodd" d="M4.55 2.507c1.377-.91 3.016-.196 3.73.993l1.516 2.528a2.96 2.96 0 0 1-.075 3.165l-1.023 1.534c.32.569.76 1.458 1.938 2.636 1.178 1.179 2.068 1.62 2.637 1.939l1.534-1.023a2.96 2.96 0 0 1 3.165-.076L20.5 15.72c1.189.713 1.902 2.352.992 3.73-1.089 1.648-2.534 2.45-4.071 2.45-3.45 0-6.91-2.115-10.058-5.264C4.215 13.488 2.1 10.028 2.1 6.58c0-1.537.802-2.983 2.45-4.072Zm2.186 1.919c-.327-.545-.884-.622-1.194-.417C4.307 4.825 3.9 5.747 3.9 6.58c0 2.73 1.704 5.752 4.736 8.784 3.032 3.033 6.054 4.737 8.785 4.737.831 0 1.754-.408 2.57-1.643.204-.31.128-.866-.417-1.193l-2.528-1.517a1.16 1.16 0 0 0-1.24.03l-1.757 1.17c-.42.28-1.005.335-1.492.021-.307-.198-1.636-.774-3.194-2.332-1.558-1.558-2.134-2.886-2.332-3.194a1.357 1.357 0 0 1 .021-1.491l1.171-1.757a1.16 1.16 0 0 0 .03-1.24L6.736 4.426Z" clip-rule="evenodd"/></symbol><symbol fill="currentColor" viewBox="0 0 32 32" id="place" xmlns="http://www.w3.org/2000/svg"><path fill-rule="evenodd" d="M16 8.133a5.2 5.2 0 1 0 0 10.4 5.2 5.2 0 0 0 0-10.4Zm-2.8 5.2a2.8 2.8 0 1 1 5.6 0 2.8 2.8 0 0 1-5.6 0Z" clip-rule="evenodd"/><path fill-rule="evenodd" d="M16 1.467c-5.896 0-11.867 4.44-11.867 11.867 0 5.359 3.789 10.493 7.977 14.333l.059.053c.63.578 1.2 1.1 1.749 1.465.619.41 1.275.668 2.082.668.806 0 1.462-.257 2.081-.668.549-.364 1.12-.887 1.75-1.465l.058-.053c4.188-3.84 7.977-8.974 7.977-14.334 0-7.425-5.97-11.866-11.867-11.866ZM6.532 13.334c0-5.908 4.696-9.467 9.466-9.467 4.771 0 9.467 3.559 9.467 9.466 0 4.303-3.126 8.83-7.199 12.565-.707.648-1.14 1.04-1.513 1.288-.321.213-.524.267-.755.267-.23 0-.433-.054-.754-.267-.373-.248-.806-.64-1.513-1.288-4.073-3.735-7.2-8.262-7.2-12.564Z" clip-rule="evenodd"/></symbol><symbol fill="currentColor" viewBox="0 0 56 56" id="play-circle" xmlns="http://www.w3.org/2000/svg"><path d="M24.414 19.2a2.1 2.1 0 0 0-3.18 1.8v14a2.1 2.1 0 0 0 3.18 1.8l11.667-7a2.1 2.1 0 0 0 0-3.6l-11.667-7Z"/><path fill-rule="evenodd" d="M4.9 28C4.9 15.242 15.243 4.9 28 4.9c12.758 0 23.1 10.342 23.1 23.1 0 12.758-10.342 23.1-23.1 23.1C15.243 51.1 4.9 40.758 4.9 28ZM28 9.1C17.562 9.1 9.1 17.562 9.1 28c0 10.438 8.462 18.9 18.9 18.9 10.439 0 18.9-8.462 18.9-18.9 0-10.438-8.46-18.9-18.9-18.9Z" clip-rule="evenodd"/></symbol><symbol fill="currentColor" viewBox="0 0 20 20" id="plus" xmlns="http://www.w3.org/2000/svg"><path fill-rule="evenodd" d="M10 3.417a.75.75 0 0 1 .75.75V9.25h5.083a.75.75 0 0 1 0 1.5H10.75v5.083a.75.75 0 0 1-1.5 0V10.75H4.167a.75.75 0 0 1 0-1.5H9.25V4.167a.75.75 0 0 1 .75-.75Z" clip-rule="evenodd"/></symbol><symbol fill="none" viewBox="0 0 100 40" id="podeli" xmlns="http://www.w3.org/2000/svg"><g clip-path="url(#cga)"><mask id="cgb" style="mask-type:luminance" maskUnits="userSpaceOnUse" x="70" y="5" width="30" height="30"><path d="M100 5H70v30h30V5Z" fill="#fff"/></mask><g mask="url(#cgb)"><path d="M85 5a15 15 0 1 0 15 15A15.02 15.02 0 0 0 85 5Zm10.925 15a10.925 10.925 0 1 1-21.85 0 10.925 10.925 0 0 1 21.85 0Z" fill="#FF0001"/><path d="M99.976 18.227a15.65 15.65 0 0 0-13.225-13.21 2.103 2.103 0 0 0-1.671.515 2.133 2.133 0 0 0 1.075 3.715 11.353 11.353 0 0 1 9.612 9.602 2.131 2.131 0 0 0 4.15.278 2.08 2.08 0 0 0 .06-.9Z" fill="#000"/></g></g><defs><clipPath id="cga"><path fill="#fff" transform="translate(70 5)" d="M0 0h30v30H0z"/></clipPath></defs></symbol><symbol fill="currentColor" viewBox="0 0 24 24" id="premium" xmlns="http://www.w3.org/2000/svg"><path fill-rule="evenodd" d="M11.904 6.337c-.225.323-.484.835-.888 1.643l-.875 1.75-.023.046c-.243.486-.46.921-.675 1.245-.221.336-.542.718-1.06.87a1.901 1.901 0 0 1-.778.06c-.536-.069-.913-.396-1.184-.693-.262-.286-.545-.682-.86-1.124l-.03-.043c-.604-.844-1.013-1.415-1.337-1.779a2.938 2.938 0 0 0-.199-.206 2.93 2.93 0 0 0-.042.284C3.9 8.873 3.9 9.576 3.9 10.614V13c0 1.44.002 2.429.101 3.172.097.717.27 1.069.514 1.313s.596.417 1.313.513c.743.1 1.732.102 3.172.102h6c1.44 0 2.428-.002 3.172-.102.717-.096 1.068-.269 1.313-.513.244-.244.416-.596.513-1.313.1-.743.102-1.732.102-3.172v-2.386c0-1.037-.002-1.74-.053-2.225a2.957 2.957 0 0 0-.043-.283 2.905 2.905 0 0 0-.199.206c-.324.364-.733.935-1.336 1.78l-.03.042c-.316.442-.599.838-.86 1.124-.272.298-.649.624-1.184.694a1.928 1.928 0 0 1-.778-.061c-.518-.152-.84-.534-1.061-.87-.214-.324-.432-.759-.674-1.245l-.899-1.796c-.404-.808-.662-1.32-.888-1.643A1.97 1.97 0 0 0 12 6.21a1.97 1.97 0 0 0-.096.127Zm-1.476-1.03c.316-.453.802-.97 1.572-.97.769 0 1.256.517 1.571.97.31.444.628 1.079.991 1.806l.906 1.812c.274.547.443.882.59 1.104.037.057.066.095.087.12.024-.022.059-.055.104-.105.18-.196.4-.501.755-.999L17.037 9c.562-.787 1.027-1.438 1.423-1.883.204-.23.427-.448.675-.61a1.6 1.6 0 0 1 .973-.282 1.9 1.9 0 0 1 .906.29 1.6 1.6 0 0 1 .628.795c.107.276.162.584.194.889.064.592.064 1.393.064 2.36v2.506c0 1.36 0 2.47-.118 3.348-.123.916-.39 1.711-1.025 2.346-.634.634-1.429.9-2.346 1.024-.877.118-1.988.118-3.347.118H8.935c-1.36 0-2.47 0-3.347-.118-.917-.123-1.712-.39-2.346-1.024-.635-.635-.901-1.43-1.025-2.346-.117-.877-.117-1.988-.117-3.348v-2.506c0-.967 0-1.768.063-2.36.033-.305.087-.613.195-.89a1.6 1.6 0 0 1 .627-.794 1.9 1.9 0 0 1 .907-.29 1.6 1.6 0 0 1 .972.282c.248.162.471.38.675.61.396.445.861 1.097 1.423 1.883l.033.046c.356.498.575.803.755 1 .045.05.08.082.104.104.021-.025.05-.063.087-.12.147-.222.317-.557.59-1.104l.875-1.75.03-.062c.364-.727.682-1.362.992-1.807Z" clip-rule="evenodd"/></symbol><symbol fill="currentColor" viewBox="0 0 24 24" id="ruler" xmlns="http://www.w3.org/2000/svg"><path fill-rule="evenodd" d="M3 5.5a3 3 0 0 0-3 3v7a3 3 0 0 0 3 3h18a3 3 0 0 0 3-3v-7a3 3 0 0 0-3-3H3Zm6 2H7v5a1 1 0 1 1-2 0v-5H3a1 1 0 0 0-1 1v7a1 1 0 0 0 1 1h18a1 1 0 0 0 1-1v-7a1 1 0 0 0-1-1h-2v3a1 1 0 0 1-2 0v-3h-2v5a1 1 0 0 1-2 0v-5h-2v3a1 1 0 0 1-2 0v-3Z" clip-rule="evenodd"/></symbol><symbol fill="currentColor" viewBox="0 0 24 24" id="sale" xmlns="http://www.w3.org/2000/svg"><path d="M9 7.5a1.5 1.5 0 1 0 0 3 1.5 1.5 0 0 0 0-3Zm6.636 2.136-6 6a.9.9 0 0 1-1.273-1.272l6-6a.9.9 0 1 1 1.273 1.272ZM13.5 15a1.5 1.5 0 1 1 3 0 1.5 1.5 0 0 1-3 0Z"/><path fill-rule="evenodd" d="M10.983 1.712c.274-.172.606-.323 1.017-.323.41 0 .742.15 1.016.323.376.236.713.534 1.057.814.182.148.278.226.352.277.028.02.038.022.073.02.09-.008.212-.027.443-.064.438-.07.878-.16 1.322-.177.323-.012.686.023 1.042.229.356.205.568.501.72.787.207.393.349.82.507 1.234.083.22.128.334.167.416.015.03.022.038.053.053.082.039.196.083.416.167.414.158.84.3 1.233.507.286.151.583.364.788.72.205.355.241.718.229 1.041-.017.444-.107.885-.177 1.322a6.359 6.359 0 0 0-.064.444c-.002.034 0 .044.02.073.051.074.128.17.276.352.28.344.579.68.815 1.056.172.274.322.606.322 1.017 0 .41-.15.743-.322 1.017-.236.376-.535.712-.815 1.056a6.348 6.348 0 0 0-.276.352c-.02.029-.022.039-.02.073.008.09.026.212.064.444.07.438.16.878.177 1.322.012.323-.024.686-.23 1.041-.204.356-.5.569-.787.72-.392.207-.819.35-1.233.507-.22.084-.334.128-.416.167-.031.015-.038.022-.053.053a6.37 6.37 0 0 0-.167.416c-.158.415-.3.841-.508 1.234-.15.286-.363.582-.719.787-.355.206-.718.242-1.042.23-.444-.017-.884-.108-1.322-.178a6.338 6.338 0 0 0-.443-.063c-.035-.003-.044 0-.073.02-.074.05-.17.128-.352.276-.345.28-.68.578-1.057.814-.274.173-.606.323-1.016.323-.411 0-.743-.15-1.017-.323-.376-.236-.712-.534-1.056-.814a6.359 6.359 0 0 0-.353-.276c-.028-.02-.038-.023-.073-.02-.09.007-.211.026-.443.063-.438.07-.878.16-1.322.177-.323.013-.686-.023-1.042-.229-.355-.205-.568-.501-.72-.787-.207-.393-.349-.82-.507-1.234a6.384 6.384 0 0 0-.167-.415c-.014-.032-.022-.039-.053-.054a6.36 6.36 0 0 0-.415-.167c-.415-.158-.841-.3-1.234-.507-.286-.151-.582-.364-.788-.72-.205-.355-.241-.718-.229-1.041.017-.444.107-.884.178-1.322.037-.232.056-.354.063-.444.002-.034 0-.044-.02-.072a6.372 6.372 0 0 0-.276-.353c-.28-.344-.578-.68-.815-1.056-.172-.274-.322-.606-.322-1.017 0-.41.15-.743.322-1.017.237-.376.535-.712.815-1.056.148-.182.225-.278.276-.352.02-.029.022-.039.02-.073a6.378 6.378 0 0 0-.063-.444c-.07-.438-.161-.878-.178-1.322-.012-.323.024-.686.23-1.041.205-.356.5-.569.787-.72.393-.207.82-.35 1.234-.507.219-.084.334-.128.415-.167.031-.015.039-.022.053-.053.04-.082.084-.197.167-.416.158-.414.3-.84.508-1.234.151-.286.364-.582.72-.787.355-.206.718-.241 1.04-.23.445.017.885.108 1.323.178.232.037.353.056.443.063.035.003.045 0 .073-.02a6.38 6.38 0 0 0 .353-.276c.344-.28.68-.578 1.056-.814Zm.322 2.013c.32-.26.498-.403.636-.49.057-.035.06-.035.117 0 .138.087.316.23.636.49.397.323.79.706 1.297.842.507.135 1.04.001 1.545-.08.407-.066.632-.1.795-.107.064-.002.072.003.102.059.076.144.159.357.305.742.183.479.332 1.006.703 1.377.371.371.9.521 1.378.703.385.147.597.23.742.306.056.03.06.038.058.102-.006.163-.04.388-.106.795-.081.505-.216 1.038-.08 1.544.136.507.518.9.842 1.298.26.32.402.497.49.636.033.053.033.063 0 .117-.088.138-.23.316-.49.635-.324.397-.706.791-.842 1.298s-.001 1.039.08 1.544c.065.407.1.633.106.796.003.063-.002.071-.058.101-.145.076-.357.159-.742.306-.479.182-1.007.332-1.378.703-.37.37-.52.899-.703 1.378-.146.385-.23.597-.305.741-.03.056-.038.061-.102.059-.163-.006-.388-.041-.795-.106-.506-.082-1.038-.216-1.545-.08-.506.135-.9.518-1.297.841-.32.26-.498.403-.636.49-.054.034-.063.034-.117 0-.138-.087-.316-.23-.636-.49-.397-.323-.79-.706-1.297-.841-.507-.136-1.039-.002-1.545.08-.407.065-.632.1-.795.106-.064.002-.072-.003-.101-.059-.077-.144-.16-.356-.306-.741-.182-.48-.332-1.007-.703-1.378-.371-.371-.899-.521-1.378-.703-.385-.147-.597-.23-.741-.306-.057-.03-.061-.038-.06-.101.007-.163.042-.389.107-.796.082-.505.216-1.037.08-1.544-.136-.507-.518-.9-.842-1.298-.26-.32-.402-.497-.489-.635-.034-.054-.034-.064 0-.117.087-.139.23-.316.49-.636.323-.397.705-.791.841-1.298.136-.506.002-1.039-.08-1.544-.065-.407-.1-.632-.106-.795-.002-.064.002-.072.059-.102.144-.076.356-.159.741-.306.479-.182 1.007-.332 1.378-.703.37-.37.52-.898.703-1.377.147-.385.23-.598.306-.742.03-.056.037-.061.101-.059.163.007.388.041.795.107.506.081 1.038.215 1.545.08.507-.136.9-.519 1.297-.842Z" clip-rule="evenodd"/></symbol><symbol fill="none" viewBox="0 0 100 40" id="sberpay" xmlns="http://www.w3.org/2000/svg"><path d="M66.655 22.814h2.338c4.438 0 6.82-1.773 6.82-5.3 0-3.417-2.035-5.126-6.82-5.126H63.95V27.53h2.705v-4.716Zm0-7.938h2.577c2.64 0 3.766.713 3.766 2.574 0 2.055-1.299 2.877-3.81 2.877h-2.533v-5.452Zm13.226 12.827c1.732 0 3.053-.865 3.572-2.12v1.947h2.382v-7.14c0-2.812-1.56-3.893-4.72-3.893-1.861 0-3.16.432-3.875.973v3.158c.736-1.146 1.884-1.925 3.875-1.925 1.45 0 2.187.476 2.187 2.012v.476h-2.447c-2.662 0-4.459.692-4.459 3.158 0 2.12 1.299 3.353 3.485 3.353Zm1.278-4.867h2.143v.887c-.109.735-.91 1.709-2.62 1.709-1.125 0-1.732-.52-1.732-1.342 0-.973.715-1.254 2.209-1.254Zm8.723 6.727a1.91 1.91 0 0 1-1.299-.54v2.357c.325.282 1.06.476 1.732.476 1.429 0 2.403-.584 3.355-3.18L98 16.714h-2.684l-2.425 7.42-2.966-7.42H87.09l4.568 10.86c-.411 1.47-.996 1.99-1.775 1.99ZM39.17 17.482v3.321l4.407 2.762 10.55-7.77a11.548 11.548 0 0 0-1.388-2.299l-9.162 6.747-4.407-2.761Z" fill="#00D800"/><path d="M43.578 32.138c6.394 0 11.577-5.18 11.577-11.569 0-.708-.064-1.4-.185-2.073l-2.493 1.835c.002.08.004.159.004.238 0 4.906-3.994 8.897-8.903 8.897-4.91 0-8.904-3.991-8.904-8.897 0-4.905 3.994-8.896 8.904-8.896 1.86 0 3.589.574 5.019 1.553l2.252-1.66A11.533 11.533 0 0 0 43.578 9C37.184 9 32 14.18 32 20.57c0 6.388 5.184 11.568 11.578 11.568Z" fill="#00D800"/></symbol><symbol fill="none" viewBox="0 0 100 40" id="sbp" xmlns="http://www.w3.org/2000/svg"><path d="M99.594 16.235v8.198H96.74V18.68h-2.749v5.75H91.14v-8.198h8.455v.002Z" fill="#000"/><path fill-rule="evenodd" clip-rule="evenodd" d="M85.28 24.725c2.553 0 4.45-1.606 4.45-4.042 0-2.357-1.399-3.887-3.738-3.887-1.08 0-1.97.39-2.641 1.061.16-1.389 1.306-2.404 2.567-2.404l2.484-.005 1.24-2.433s-2.752.064-4.031.064c-2.924.052-4.898 2.778-4.898 6.088 0 3.856 1.925 5.558 4.566 5.558Zm.015-5.775c.948 0 1.606.64 1.606 1.733 0 .983-.584 1.795-1.606 1.797-.977 0-1.635-.751-1.635-1.78 0-1.093.658-1.75 1.635-1.75Z" fill="#000"/><path d="M78.39 21.688s-.674.399-1.68.474c-1.158.035-2.189-.716-2.189-2.046 0-1.3.91-2.045 2.159-2.045.766 0 1.78.545 1.78.545s.74-1.397 1.125-2.094c-.703-.547-1.64-.846-2.73-.846-2.75 0-4.879 1.838-4.879 4.422 0 2.618 2.001 4.415 4.879 4.36.805-.031 1.914-.32 2.59-.766l-1.055-2.004Z" fill="#000"/><path d="m42 10.533 3.959 7.258v4.427l-3.955 7.244L42 10.533Z" fill="#5B57A2"/><path d="m57.2 15.15 3.708-2.332 7.591-.008-11.3 7.102V15.15Z" fill="#D90751"/><path d="M57.178 10.491 57.2 20.1l-3.969-2.5V3.234l3.947 7.256Z" fill="#FAB718"/><path d="m68.5 12.811-7.592.007-3.73-2.327-3.947-7.256 15.268 9.576Z" fill="#ED6F26"/><path d="M57.2 29.502V24.84l-3.969-2.453.002 14.378 3.967-7.263Z" fill="#63B22F"/><path d="m60.9 27.19-14.941-9.399L42 10.533l26.483 16.649-7.585.01.001-.001Z" fill="#1487C9"/><path d="m53.233 36.765 3.965-7.263 3.7-2.311 7.585-.01-15.251 9.584h.001Z" fill="#017F36"/><path d="m42.004 29.46 11.259-7.074-3.785-2.382-3.52 2.213-3.954 7.244Z" fill="#984995"/></symbol><symbol fill="currentColor" viewBox="0 0 20 20" id="search" xmlns="http://www.w3.org/2000/svg"><path fill-rule="evenodd" d="M12.488 13.548a6.667 6.667 0 1 1 1.06-1.06l4.483 4.482a.75.75 0 0 1-1.061 1.06l-4.482-4.482ZM13.5 8.333a5.167 5.167 0 1 1-10.333 0 5.167 5.167 0 0 1 10.333 0Z" clip-rule="evenodd"/></symbol><symbol fill="currentColor" viewBox="0 0 24 24" id="search-2" xmlns="http://www.w3.org/2000/svg"><path d="m21.795 20.204-4.452-4.454a8.636 8.636 0 1 0-1.594 1.594l4.456 4.457a1.126 1.126 0 1 0 1.594-1.594l-.004-.003ZM4.125 10.5a6.375 6.375 0 1 1 6.374 6.375A6.382 6.382 0 0 1 4.124 10.5Z"/></symbol><symbol fill="currentColor" viewBox="0 0 20 20" id="shirt" xmlns="http://www.w3.org/2000/svg"><path d="M10 7.583a1.167 1.167 0 1 0 0 2.334 1.167 1.167 0 0 0 0-2.334Zm0 4.167a1.167 1.167 0 1 0 0 2.333 1.167 1.167 0 0 0 0-2.333Z"/><path fill-rule="evenodd" d="M5.783 1.75c-.743 0-1.374 0-1.878.068-.537.072-1.04.233-1.447.64-.407.406-.568.91-.64 1.447-.068.504-.068 1.135-.068 1.878v8.434c0 .743 0 1.374.068 1.878.072.537.233 1.04.64 1.447.406.407.91.568 1.447.64.504.068 1.135.068 1.878.068h8.434c.743 0 1.374 0 1.878-.068.537-.072 1.04-.233 1.447-.64.407-.407.568-.91.64-1.447.068-.504.068-1.135.068-1.878V5.783c0-.743 0-1.374-.068-1.878-.072-.537-.233-1.04-.64-1.447-.407-.407-.91-.568-1.447-.64-.504-.068-1.135-.068-1.878-.068H5.783Zm2.694 1.5H5.833c-.807 0-1.336.002-1.729.054-.37.05-.504.133-.586.214-.07.071-.142.18-.192.45L5.792 6.74l2.685-3.49ZM3.25 6.14v8.027c0 .806.002 1.336.054 1.729.05.37.133.504.214.585.082.082.216.165.586.215.393.052.922.054 1.73.054h8.333c.806 0 1.336-.002 1.729-.054.37-.05.504-.133.585-.215.082-.081.165-.215.215-.586.052-.392.054-.921.054-1.728V6.139l-2.023 2.276a.75.75 0 0 1-1.155-.041L10 3.73 6.428 8.374a.75.75 0 0 1-1.155.04L3.25 6.14Zm13.424-2.173c-.05-.268-.122-.378-.192-.449-.082-.081-.216-.164-.586-.214-.393-.052-.923-.054-1.73-.054h-2.643l2.686 3.49 2.465-2.773Z" clip-rule="evenodd"/></symbol><symbol fill="currentColor" viewBox="0 0 24 24" id="slippers" xmlns="http://www.w3.org/2000/svg"><path fill-rule="evenodd" d="m1.116 13.17.77 4.624c.557 3.336 4.778 5.25 7.478 2.937a4.4 4.4 0 0 0 1.536-3.34v-10.1a4.947 4.947 0 0 0-2.403-4.243C4.416.599-.24 5.036.468 9.284l.64 3.841.008.045Zm6.455-8.578c-2.373-1.424-5.078.866-5.355 3.3a12.046 12.046 0 0 1 6.86-.993A3.15 3.15 0 0 0 7.57 4.592Zm1.53 4.135a10.246 10.246 0 0 0-6.386.922l-.312.156a.906.906 0 0 1-.021.01l.31 1.867a12.047 12.047 0 0 1 6.408-.78V8.728Zm0 4a10.246 10.246 0 0 0-6.103.786l.664 3.985c.337 2.02 2.869 3.29 4.53 1.866A2.6 2.6 0 0 0 9.1 17.39v-4.663Zm14.431-3.443-.64 3.841a.754.754 0 0 1-.008.045l-.77 4.624c-.556 3.336-4.778 5.25-7.477 2.937a4.4 4.4 0 0 1-1.537-3.34v-10.1c0-1.738.912-3.349 2.403-4.243 4.082-2.45 8.737 1.987 8.029 6.235Zm-7.103-4.692c2.325-1.395 5.083.905 5.356 3.3a12.046 12.046 0 0 0-6.86-.993 3.15 3.15 0 0 1 1.504-2.307Zm5.169 5.213.02.01-.31 1.867a12.047 12.047 0 0 0-6.408-.78V8.728a10.246 10.246 0 0 1 6.385.922l.313.156ZM14.9 12.727a10.246 10.246 0 0 1 6.102.786l-.664 3.985c-.333 1.998-2.882 3.28-4.53 1.866a2.6 2.6 0 0 1-.908-1.974v-4.663Z" clip-rule="evenodd"/></symbol><symbol fill="currentColor" viewBox="0 0 20 20" id="sort" xmlns="http://www.w3.org/2000/svg"><path d="M6.364 3.636a.75.75 0 0 0-1.061 0L1.97 6.97a.75.75 0 0 0 1.06 1.06l2.053-2.053v9.856a.75.75 0 0 0 1.5 0V5.977L8.636 8.03a.75.75 0 0 0 1.061-1.06L6.364 3.636Zm7.272 12.728a.75.75 0 0 0 1.061 0l3.333-3.334a.75.75 0 1 0-1.06-1.06l-2.053 2.053V4.167a.75.75 0 0 0-1.5 0v9.856l-2.053-2.053a.75.75 0 0 0-1.061 1.06l3.333 3.334Z"/></symbol><symbol fill="none" viewBox="0 0 100 40" id="split" xmlns="http://www.w3.org/2000/svg"><g clip-path="url(#cra)"><mask id="crb" style="mask-type:luminance" maskUnits="userSpaceOnUse" x="10" y="8" width="90" height="24"><path d="M100 8H10v24h90V8Z" fill="#fff"/></mask><g mask="url(#crb)"><mask id="crc" style="mask-type:luminance" maskUnits="userSpaceOnUse" x="10" y="8" width="25" height="24"><path d="M10 8h24.18v24H10V8Z" fill="#fff"/></mask><g mask="url(#crc)"><mask id="crd" style="mask-type:luminance" maskUnits="userSpaceOnUse" x="10" y="8" width="25" height="24"><path d="M31.471 8H12.708A2.698 2.698 0 0 0 10 10.688v18.624A2.698 2.698 0 0 0 12.708 32h18.763a2.698 2.698 0 0 0 2.708-2.688V10.688A2.698 2.698 0 0 0 31.471 8Z" fill="#fff"/></mask><g mask="url(#crd)"><mask id="cre" style="mask-type:alpha" maskUnits="userSpaceOnUse" x="9" y="8" width="22" height="25"><path fill-rule="evenodd" clip-rule="evenodd" d="m30.015 27.188.027.012-.026.021.04.019-.014.012.03.013-.026.023.02.008.01.005-.02.019.045.021-.019.018a.437.437 0 0 1 .038.018l-.004.004-.003.002-.005.005.024.012a6.507 6.507 0 0 1-.027.024l.04.021-.003.004-.003.003-.007.007.04.02-.019.017.01.005a.167.167 0 0 1 .013.007l-.023.02.038.021-.016.015.035.02-.003.003-.01.009.014.007.008.005.003.001-.024.022.037.022-.016.014.034.02-.018.014.022.014a.061.061 0 0 1 .01.006l-.016.014.031.02-.023.02a.57.57 0 0 1 .038.025l-.01.008.026.017-.019.016.027.019-.013.01a.803.803 0 0 1 .035.023l-.011.01c.01.005.018.012.027.018a.596.596 0 0 1-.02.019.75.75 0 0 1 .032.024l-.02.017.028.02-.014.014.038.026-.008.008a.381.381 0 0 1 .023.018l-.018.013.023.019.004.002-.01.01.03.025-.013.012.016.013a.75.75 0 0 0 .01.008l-.006.007.023.02-.018.016.033.027-.01.009.03.027-.01.009.026.024-.013.013.022.02-.012.012.027.024-.01.01.024.022.002.003-.005.005.03.028-.015.014.021.02-.013.012.027.025-.012.01.026.026-.276.248a12.168 12.168 0 0 1-8.52 3.25 12.162 12.162 0 0 1-8.388-3.572 11.983 11.983 0 0 1-3.497-8.368 11.98 11.98 0 0 1 3.377-8.417c.223-.236.457-.464.707-.682l.008-.007.01-.008c.2-.17.41-.334.623-.49l.016-.013a12.296 12.296 0 0 1 5.194-2.266 12.338 12.338 0 0 1 5.666.3 12.045 12.045 0 0 1 5.326 3.182l.002.003a.023.023 0 0 1 .005.012c.006.01.01.02.013.03.121.227.18 1.46-8.732 8.317l6.559 6.57c.8.326 1.308.534 1.306.536l-.011.01Z" fill="#fff"/></mask><g mask="url(#cre)"><path d="M22.09 32c6.676 0 12.09-5.373 12.09-12S28.765 8 22.09 8C15.413 8 10 13.373 10 20s5.413 12 12.09 12Z" fill="url(#crf)"/></g><path d="M25.648 17.306a170.37 170.37 0 0 1-6.746 5.22c2.218 2.284 4.598 4.131 6.743 5.242 2.147 1.11 3.86 1.337 4.67.612.81-.726.717-2.4-.255-4.576-.898-2.027-2.451-4.303-4.412-6.498Z" fill="url(#crg)"/><path d="m25.837 17.15-.906.738a24.831 24.831 0 0 1 4.129 6.114c.938 2.134.913 3.206.613 3.474-.303.27-1.608.337-3.693-.756a25.061 25.061 0 0 1-6.158-4.878l-1.04.767.224.216c4.342 4.44 9.04 6.967 11.106 6.047.062-.03.145-.06.203-.094.165-.101.31-.232.428-.386 1.35-1.752-.7-6.47-4.786-11.094l-.12-.148Z" fill="#84EEB1"/></g></g><path d="M88.391 15.044V11.8h11.093v3.244h-3.586v12.553h-3.944V15.044h-3.565.002Zm-9.657 12.553h-3.942V11.801h3.942v8.914l4.122-8.914h3.942v15.796h-3.942v-8.913l-4.121 8.913ZM60.966 23.98c.578.073 1.002-.015 1.269-.265.282-.264.46-.743.535-1.434.09-.78.163-2 .223-3.662.073-1.678.134-3.95.178-6.818h9.846v15.796h-3.943V15.044h-2.54c-.027 1.825-.094 3.65-.2 5.472-.075 1.368-.186 2.456-.334 3.265-.252 1.5-.825 2.582-1.715 3.243-.89.661-1.998.845-3.318.552l-.001-3.596ZM48.224 11.8h11.338v15.797H55.62V15.044h-3.453v12.553h-3.944V11.8Zm-4.588 16.019c-1.427 0-2.66-.324-3.698-.971-1.04-.648-1.842-1.573-2.406-2.78-.55-1.221-.825-2.67-.825-4.347 0-1.692.282-3.14.846-4.347.565-1.22 1.367-2.154 2.406-2.8 1.055-.649 2.317-.972 3.788-.972 1.188 0 2.213.206 3.074.618v3.242a6.172 6.172 0 0 0-2.562-.573c-2.346 0-3.52 1.61-3.52 4.832 0 1.618.283 2.824.847 3.619.579.779 1.47 1.17 2.673 1.17.92 0 1.773-.214 2.562-.64v3.242c-.773.47-1.835.707-3.186.707Z" fill="#000"/></g></g><defs><radialGradient id="crf" cx="0" cy="0" r="1" gradientTransform="matrix(-14.6278 63.6301 -38.843 -8.79776 26.654 -1.18)" gradientUnits="userSpaceOnUse"><stop offset=".043" stop-color="#0D9B43"/><stop offset=".172" stop-color="#48F56D"/><stop offset=".218" stop-color="#43EA68"/><stop offset=".309" stop-color="#37CB5A"/><stop offset=".43" stop-color="#239A44"/><stop offset=".482" stop-color="#1F9140"/><stop offset=".503" stop-color="#0BA446"/><stop offset=".73" stop-color="#085625"/><stop offset=".8" stop-color="#00421C"/></radialGradient><linearGradient id="crg" x1="26.608" y1="36.829" x2="22.206" y2="5.056" gradientUnits="userSpaceOnUse"><stop offset=".1" stop-color="#FF8475"/><stop offset=".37" stop-color="#E84E43"/><stop offset=".6" stop-color="#D6261F"/><stop offset=".79" stop-color="#CC0E08"/><stop offset=".9" stop-color="#C80500"/></linearGradient><clipPath id="cra"><path fill="#fff" transform="translate(10 8)" d="M0 0h90v24H0z"/></clipPath></defs></symbol><symbol fill="currentColor" viewBox="0 0 24 24" id="star" xmlns="http://www.w3.org/2000/svg"><path fill-rule="evenodd" d="m12 4.57-.095.25-1.547 4.138-.009.025a4.27 4.27 0 0 1-.171.413c-.08.159-.205.355-.424.514a1.388 1.388 0 0 1-.62.244c-.145.022-.31.03-.446.035l-.026.001-4.413.193-.267.012.209.166 3.457 2.75.02.017c.107.085.236.187.34.29.127.126.275.305.359.562.083.257.07.49.04.665-.024.145-.068.304-.104.435l-.007.026-1.18 4.257-.072.257.223-.147 3.684-2.438.022-.015c.113-.075.25-.166.381-.234.159-.081.375-.166.645-.166s.487.085.645.166c.13.068.268.159.381.234l.023.015 3.683 2.438.223.147-.071-.257-1.18-4.257-.008-.026a4.3 4.3 0 0 1-.104-.435 1.388 1.388 0 0 1 .04-.665c.084-.257.232-.436.359-.562.104-.103.233-.205.34-.29l.02-.017 3.458-2.75.208-.166-.266-.012-4.413-.193h-.027c-.136-.007-.3-.014-.446-.036a1.387 1.387 0 0 1-.62-.244 1.388 1.388 0 0 1-.424-.514 4.398 4.398 0 0 1-.17-.413 2.37 2.37 0 0 1-.01-.025L12.093 4.82l-.094-.25Zm-1.244-1.675c.151-.281.515-.867 1.243-.867.729 0 1.092.586 1.243.867.172.318.337.761.516 1.238l.02.057 1.548 4.137.023.062.066.003 4.474.196c.508.022.981.042 1.336.107.315.057.984.222 1.21.914.225.693-.22 1.22-.441 1.45-.25.262-.62.557-1.018.873L17.47 14.72l-.052.041.018.064 1.18 4.257.017.058c.136.49.262.946.31 1.304.043.317.094 1.005-.495 1.433-.59.428-1.228.167-1.516.029-.326-.157-.72-.418-1.144-.699l-.051-.033-3.684-2.438-.055-.037-.055.037-3.684 2.438c-.017.01-.033.022-.05.033-.424.281-.819.542-1.145.699-.287.138-.926.399-1.515-.03-.59-.427-.539-1.115-.496-1.432.048-.358.175-.814.31-1.304l1.197-4.315.018-.064-.052-.041-3.457-2.75-.047-.038c-.399-.316-.769-.611-1.018-.872-.221-.231-.666-.758-.441-1.45.225-.693.895-.858 1.209-.915.355-.065.828-.085 1.336-.107l.061-.003 4.413-.193c.024 0 .046-.002.066-.003l.023-.062L10.22 4.19l.022-.057c.178-.477.344-.92.515-1.238Z" clip-rule="evenodd"/></symbol><symbol fill="currentColor" viewBox="0 0 24 24" id="telegram" xmlns="http://www.w3.org/2000/svg"><path d="m2.289 11.404 12.508-5.046c1.235-.526 5.422-2.208 5.422-2.208s1.933-.736 1.771 1.051c-.053.736-.482 3.312-.912 6.097l-1.342 8.253s-.108 1.209-1.022 1.419c-.914.21-2.415-.736-2.684-.946-.214-.158-4.026-2.523-5.422-3.68-.376-.315-.805-.946.054-1.682a203.02 203.02 0 0 0 5.636-5.256c.645-.63 1.289-2.103-1.395-.315l-7.57 4.993s-.859.526-2.469.053c-1.61-.473-3.49-1.104-3.49-1.104s-1.288-.788.913-1.63h.002Z"/></symbol><symbol fill="currentColor" viewBox="0 0 24 24" id="undo" xmlns="http://www.w3.org/2000/svg"><path fill-rule="evenodd" d="M15.364 3.364a.9.9 0 0 0 0 1.272L18.826 8.1H8.5a6.4 6.4 0 0 0 0 12.8H12a.9.9 0 0 0 0-1.8H8.5a4.6 4.6 0 0 1 0-9.2h10.327l-3.464 3.464a.9.9 0 1 0 1.273 1.272l5-5a.9.9 0 0 0 0-1.272l-5-5a.9.9 0 0 0-1.272 0Z" clip-rule="evenodd"/></symbol><symbol fill="currentColor" viewBox="0 0 24 24" id="user" xmlns="http://www.w3.org/2000/svg"><path d="M21.973 19.687a11.564 11.564 0 0 0-5.698-4.99 7.126 7.126 0 1 0-8.55 0 11.565 11.565 0 0 0-5.698 4.99 1.124 1.124 0 1 0 1.947 1.125c1.699-2.936 4.699-4.687 8.026-4.687s6.327 1.752 8.026 4.687a1.125 1.125 0 0 0 1.947-1.125ZM7.125 9a4.875 4.875 0 1 1 9.75 0 4.875 4.875 0 0 1-9.75 0Z"/></symbol><symbol fill="currentColor" viewBox="0 0 24 24" id="user-circle" xmlns="http://www.w3.org/2000/svg"><path fill-rule="evenodd" d="M12 7.1a3.9 3.9 0 1 0 0 7.8 3.9 3.9 0 0 0 0-7.8ZM9.9 11a2.1 2.1 0 1 1 4.2 0 2.1 2.1 0 0 1-4.2 0Z" clip-rule="evenodd"/><path fill-rule="evenodd" d="M12 2.1c-5.468 0-9.9 4.432-9.9 9.9a9.883 9.883 0 0 0 3.676 7.7A9.862 9.862 0 0 0 12 21.9a9.862 9.862 0 0 0 6.223-2.2A9.882 9.882 0 0 0 21.9 12c0-5.468-4.433-9.9-9.9-9.9ZM3.9 12a8.1 8.1 0 1 1 13.71 5.842A9.858 9.858 0 0 0 12 16.1a9.858 9.858 0 0 0-5.61 1.742A8.074 8.074 0 0 1 3.9 12Zm8.1 5.9c1.488 0 2.88.4 4.078 1.1A8.06 8.06 0 0 1 12 20.1c-1.488 0-2.881-.4-4.079-1.1 1.198-.7 2.59-1.1 4.079-1.1Z" clip-rule="evenodd"/></symbol><symbol fill="currentColor" viewBox="0 0 24 24" id="valentines-day" xmlns="http://www.w3.org/2000/svg"><path fill-rule="evenodd" d="M8.762 7.226c1.301-.357 2.4.07 3.238.826.837-.756 1.936-1.183 3.237-.826 1.77.484 2.663 2.14 2.663 3.75 0 1.636-.732 2.998-1.652 4.05-.917 1.047-2.06 1.836-3.012 2.36l-.065.037c-.301.167-.676.375-1.171.375-.496 0-.87-.208-1.172-.375l-.065-.037c-.951-.524-2.095-1.313-3.012-2.36-.92-1.052-1.651-2.414-1.651-4.05 0-1.61.893-3.266 2.662-3.75Zm.475 1.736c.732-.2 1.407.094 2.03.965a.9.9 0 0 0 1.464 0c.624-.87 1.3-1.166 2.03-.965.802.22 1.339 1.004 1.339 2.013 0 1.07-.474 2.028-1.207 2.865-.735.84-1.69 1.51-2.526 1.97-.094.052-.163.09-.223.121a1.513 1.513 0 0 1-.144.067 1.493 1.493 0 0 1-.144-.067c-.061-.031-.13-.07-.224-.12-.835-.462-1.79-1.13-2.526-1.971-.733-.837-1.206-1.794-1.206-2.865 0-1.01.537-1.794 1.337-2.013Z" clip-rule="evenodd"/><path fill-rule="evenodd" d="M12 2.1c-5.468 0-9.9 4.432-9.9 9.9s4.432 9.9 9.9 9.9c5.467 0 9.9-4.432 9.9-9.9S17.467 2.1 12 2.1ZM3.9 12a8.1 8.1 0 1 1 16.2 0 8.1 8.1 0 0 1-16.2 0Z" clip-rule="evenodd"/></symbol><symbol fill="currentColor" viewBox="0 0 24 24" id="vk" xmlns="http://www.w3.org/2000/svg"><path d="M12.996 18.886c-7.222 0-11.34-4.941-11.51-13.177H5.12c.116 6.04 2.777 8.595 4.889 9.122V5.71h3.41v5.205c2.08-.221 4.276-2.597 5.015-5.216h3.4a10.064 10.064 0 0 1-4.624 6.578 10.419 10.419 0 0 1 5.416 6.61h-3.748c-.802-2.502-2.809-4.445-5.459-4.71v4.71h-.422Z"/></symbol><symbol fill="currentColor" viewBox="0 0 24 24" id="whatsapp" xmlns="http://www.w3.org/2000/svg"><g clip-path="url(#cza)"><path d="M16.999 14.2c-.3-.1-1.6-.8-1.9-.9-.3-.1-.4-.1-.6.1-.275.386-.576.754-.9 1.1-.2.2-.3.2-.6.1a5.44 5.44 0 0 1-2.2-1.4 6.2 6.2 0 0 1-1.5-1.9c-.2-.3 0-.4.1-.6.157-.146.292-.315.4-.5.1-.2.2-.3.3-.5.1-.2 0-.3 0-.5s-.6-1.5-.9-2c-.3-.5-.4-.5-.6-.5h-.5a1.08 1.08 0 0 0-.7.3 2.89 2.89 0 0 0-1 2.3 5.39 5.39 0 0 0 1.1 2.81 10.92 10.92 0 0 0 4.71 4.11c.7.3 1.2.4 1.6.6a3.42 3.42 0 0 0 1.7.1 3.46 3.46 0 0 0 1.9-1.3c.126-.422.194-.86.2-1.3a1.761 1.761 0 0 1-.6-.1l-.01-.02Zm-5 6.8a8.801 8.801 0 0 1-4.71-1.3l-.3-.2-3.51.9.91-3.4-.2-.3a9.33 9.33 0 0 1-1.4-4.91 9.22 9.22 0 1 1 9.21 9.21Zm7.81-16.92a11.43 11.43 0 0 0-7.81-3.2 11 11 0 0 0-11 11c0 1.938.517 3.84 1.5 5.51l-1.62 5.73 5.91-1.5a10.69 10.69 0 0 0 5.31 1.3 11 11 0 0 0 11-11 11.53 11.53 0 0 0-3.31-7.81"/></g><defs><clipPath id="cza"><path d="M0 0h24v24H0z"/></clipPath></defs></symbol><symbol fill="none" viewBox="0 0 100 40" id="yapay" xmlns="http://www.w3.org/2000/svg"><g clip-path="url(#daa)"><mask id="dab" style="mask-type:luminance" maskUnits="userSpaceOnUse" x="34" y="9" width="66" height="22"><path d="M100 9H34v22h66V9Z" fill="#fff"/></mask><g mask="url(#dab)"><mask id="dac" style="mask-type:luminance" maskUnits="userSpaceOnUse" x="56" y="9" width="44" height="21"><path d="M56.786 9.628H100V29.27H56.786V9.628Z" fill="#fff"/></mask><g mask="url(#dac)"><path d="M92.731 12.74h-4.36l-2.735 7.045c-1.478 3.834-.173 6.298 2.315 6.298 2.169 0 3.67-1.47 4.633-3.51l-.025 2.588 2.735-.3L100 12.739h-4.36l-2.76 7.12c-.567 1.445-1.282 2.34-2.291 2.34-1.01 0-1.206-.872-.616-2.39l2.76-7.07m-23.26 15.065 5.865-15.063H63.216l-6.43 16.532 4.559-.523 4.828-12.399h3.4l-4.657 11.976 4.558-.522v-.001Zm3.425-6.723c-1.108 3.261.42 6.223 4.114 6.223 5.273 0 8.426-6.747 8.426-10.506 0-2.814-1.527-4.507-4.534-4.507-3.251 0-5.223 2.143-6.552 5.378h4.188c.592-1.294 1.208-2.066 1.972-2.066.64 0 .863.648.863 1.418 0 .3-.05.648-.124 1.046h-2.537l-1.109 2.838h2.736c-.715 1.644-1.75 3.088-2.786 3.088-.935 0-1.058-1.37-.491-2.913l-4.166.001Zm24.688-9.112.91-2.34h-6.135l-.912 2.34h6.137Z" fill="#242424"/></g><path d="M56 20c0-6.075-4.925-11-11-11s-11 4.925-11 11 4.925 11 11 11 11-4.925 11-11Z" fill="#F8604A"/><path d="M46.55 26.61h2.298v-13.2h-3.34c-3.362 0-5.13 1.73-5.13 4.274 0 2.032.97 3.229 2.698 4.463l-3.003 4.465h2.489l3.343-4.995-1.16-.779c-1.405-.95-2.09-1.69-2.09-3.285 0-1.406.99-2.355 2.87-2.355h1.026v11.414l-.001-.001Z" fill="#fff" fill-opacity=".98"/></g></g><defs><clipPath id="daa"><path fill="#fff" transform="translate(34 9)" d="M0 0h66v22H0z"/></clipPath></defs></symbol><symbol fill="currentColor" viewBox="0 0 24 24" id="youtube" xmlns="http://www.w3.org/2000/svg"><path fill-rule="evenodd" d="M2.222 5.412c-1.107 1.128-1.14 2.55-1.208 5.393a50.911 50.911 0 0 0 0 2.39c.067 2.844.1 4.265 1.208 5.393 1.107 1.128 2.602 1.191 5.591 1.316C9.16 19.961 10.6 20 12 20c1.4 0 2.84-.04 4.187-.096 2.989-.125 4.484-.188 5.591-1.316 1.107-1.128 1.14-2.55 1.208-5.393a50.912 50.912 0 0 0 0-2.39c-.067-2.844-.1-4.265-1.208-5.393-1.107-1.128-2.602-1.191-5.591-1.316A101.375 101.375 0 0 0 12 4c-1.4 0-2.84.04-4.187.096-2.989.125-4.484.188-5.591 1.316ZM9 16l7-4-7-4v8Z" clip-rule="evenodd"/></symbol></svg>