<svg xmlns="http://www.w3.org/2000/svg" width="24" height="24" fill="currentColor" viewBox="0 0 24 24">
  <path fill-rule="evenodd" d="m12 4.57-.095.25-1.547 4.138-.009.025a4.27 4.27 0 0 1-.171.413c-.08.159-.205.355-.424.514a1.388 1.388 0 0 1-.62.244c-.145.022-.31.03-.446.035l-.026.001-4.413.193-.267.012.209.166 3.457 2.75.02.017c.107.085.236.187.34.29.127.126.275.305.359.562.083.257.07.49.04.665-.024.145-.068.304-.104.435l-.007.026-1.18 4.257-.072.257.223-.147 3.684-2.438.022-.015c.113-.075.25-.166.381-.234.159-.081.375-.166.645-.166s.487.085.645.166c.13.068.268.159.381.234l.023.015 3.683 2.438.223.147-.071-.257-1.18-4.257-.008-.026a4.3 4.3 0 0 1-.104-.435 1.388 1.388 0 0 1 .04-.665c.084-.257.232-.436.359-.562.104-.103.233-.205.34-.29l.02-.017 3.458-2.75.208-.166-.266-.012-4.413-.193h-.027c-.136-.007-.3-.014-.446-.036a1.387 1.387 0 0 1-.62-.244 1.388 1.388 0 0 1-.424-.514 4.398 4.398 0 0 1-.17-.413 2.37 2.37 0 0 1-.01-.025L12.093 4.82l-.094-.25Zm-1.244-1.675c.151-.281.515-.867 1.243-.867.729 0 1.092.586 1.243.867.172.318.337.761.516 1.238l.02.057 1.548 4.137.023.062.066.003 4.474.196c.508.022.981.042 1.336.107.315.057.984.222 1.21.914.225.693-.22 1.22-.441 1.45-.25.262-.62.557-1.018.873L17.47 14.72l-.052.041.018.064 1.18 4.257.017.058c.136.49.262.946.31 1.304.043.317.094 1.005-.495 1.433-.59.428-1.228.167-1.516.029-.326-.157-.72-.418-1.144-.699l-.051-.033-3.684-2.438-.055-.037-.055.037-3.684 2.438c-.017.01-.033.022-.05.033-.424.281-.819.542-1.145.699-.287.138-.926.399-1.515-.03-.59-.427-.539-1.115-.496-1.432.048-.358.175-.814.31-1.304l1.197-4.315.018-.064-.052-.041-3.457-2.75-.047-.038c-.399-.316-.769-.611-1.018-.872-.221-.231-.666-.758-.441-1.45.225-.693.895-.858 1.209-.915.355-.065.828-.085 1.336-.107l.061-.003 4.413-.193c.024 0 .046-.002.066-.003l.023-.062L10.22 4.19l.022-.057c.178-.477.344-.92.515-1.238Z" clip-rule="evenodd"/>
</svg>
