<svg xmlns="http://www.w3.org/2000/svg" width="24" height="24" fill="currentColor" viewBox="0 0 24 24">
  <path d="m2.289 11.404 12.508-5.046c1.235-.526 5.422-2.208 5.422-2.208s1.933-.736 1.771 1.051c-.053.736-.482 3.312-.912 6.097l-1.342 8.253s-.108 1.209-1.022 1.419c-.914.21-2.415-.736-2.684-.946-.214-.158-4.026-2.523-5.422-3.68-.376-.315-.805-.946.054-1.682a203.02 203.02 0 0 0 5.636-5.256c.645-.63 1.289-2.103-1.395-.315l-7.57 4.993s-.859.526-2.469.053c-1.61-.473-3.49-1.104-3.49-1.104s-1.288-.788.913-1.63h.002Z"/>
</svg>
