<svg xmlns="http://www.w3.org/2000/svg" width="24" height="24" fill="currentColor" viewBox="0 0 24 24">
  <path fill-rule="evenodd" d="M12 7.1a3.9 3.9 0 1 0 0 7.8 3.9 3.9 0 0 0 0-7.8ZM9.9 11a2.1 2.1 0 1 1 4.2 0 2.1 2.1 0 0 1-4.2 0Z" clip-rule="evenodd"/>
  <path fill-rule="evenodd" d="M12 2.1c-5.468 0-9.9 4.432-9.9 9.9a9.883 9.883 0 0 0 3.676 7.7A9.862 9.862 0 0 0 12 21.9a9.862 9.862 0 0 0 6.223-2.2A9.882 9.882 0 0 0 21.9 12c0-5.468-4.433-9.9-9.9-9.9ZM3.9 12a8.1 8.1 0 1 1 13.71 5.842A9.858 9.858 0 0 0 12 16.1a9.858 9.858 0 0 0-5.61 1.742A8.074 8.074 0 0 1 3.9 12Zm8.1 5.9c1.488 0 2.88.4 4.078 1.1A8.06 8.06 0 0 1 12 20.1c-1.488 0-2.881-.4-4.079-1.1 1.198-.7 2.59-1.1 4.079-1.1Z" clip-rule="evenodd"/>
</svg>
