<svg xmlns="http://www.w3.org/2000/svg" width="24" height="24" fill="currentColor" viewBox="0 0 24 24">
  <path fill-rule="evenodd" d="M8.762 7.226c1.301-.357 2.4.07 3.238.826.837-.756 1.936-1.183 3.237-.826 1.77.484 2.663 2.14 2.663 3.75 0 1.636-.732 2.998-1.652 4.05-.917 1.047-2.06 1.836-3.012 2.36l-.065.037c-.301.167-.676.375-1.171.375-.496 0-.87-.208-1.172-.375l-.065-.037c-.951-.524-2.095-1.313-3.012-2.36-.92-1.052-1.651-2.414-1.651-4.05 0-1.61.893-3.266 2.662-3.75Zm.475 1.736c.732-.2 1.407.094 2.03.965a.9.9 0 0 0 1.464 0c.624-.87 1.3-1.166 2.03-.965.802.22 1.339 1.004 1.339 2.013 0 1.07-.474 2.028-1.207 2.865-.735.84-1.69 1.51-2.526 1.97-.094.052-.163.09-.223.121a1.513 1.513 0 0 1-.144.067 1.493 1.493 0 0 1-.144-.067c-.061-.031-.13-.07-.224-.12-.835-.462-1.79-1.13-2.526-1.971-.733-.837-1.206-1.794-1.206-2.865 0-1.01.537-1.794 1.337-2.013Z" clip-rule="evenodd"/>
  <path fill-rule="evenodd" d="M12 2.1c-5.468 0-9.9 4.432-9.9 9.9s4.432 9.9 9.9 9.9c5.467 0 9.9-4.432 9.9-9.9S17.467 2.1 12 2.1ZM3.9 12a8.1 8.1 0 1 1 16.2 0 8.1 8.1 0 0 1-16.2 0Z" clip-rule="evenodd"/>
</svg>
